<svg width="385" height="80" viewBox="0 0 385 80" fill="none" xmlns="http://www.w3.org/2000/svg">
    <g clip-path="url(#clip0_1_49)">
        <path fill-rule="evenodd" clip-rule="evenodd"
            d="M42.8883 73.8249L44.502 73.7121C50.2779 73.1589 55.8206 71.1588 60.6161 67.897C65.4117 64.6353 69.3051 60.2175 71.9353 55.0532C68.6515 59.6934 64.2765 63.4573 59.1948 66.014C54.1132 68.5707 48.4804 69.8419 42.7914 69.7161V73.8249H42.8883ZM42.8883 79.8673V75.6296C43.5015 75.6296 44.0986 75.6296 44.7118 75.5007C51.5228 74.8758 58.0172 72.3376 63.4434 68.1799C68.8695 64.0223 73.0056 58.4152 75.3726 52.0078C76.5616 48.7692 77.2842 45.3785 77.5188 41.9371C77.422 51.4035 73.8379 60.5029 67.4505 67.4989C61.063 74.4949 52.3195 78.8978 42.8883 79.8673ZM17.9401 54.7792L18.3435 55.2626C22.1389 60.932 27.5612 65.3241 33.8998 67.8631C36.7699 68.9821 39.8089 69.6086 42.8883 69.7161V73.8249C40.9216 73.9051 38.9516 73.8242 36.9982 73.5832C34.4171 73.2526 31.8829 72.6254 29.4459 71.7141C24.8693 70.0331 20.7046 67.3962 17.23 63.9798C16.5684 63.3192 15.9067 62.6263 15.2935 61.9174C14.6803 61.2084 14.2446 60.6605 13.7605 59.9838L17.9562 54.7792H17.9401ZM42.8883 75.6296V79.8673C36.5181 80.5236 30.0846 79.5858 24.1682 77.1384C18.2519 74.691 13.039 70.8111 9 65.8489V65.7361L12.4534 61.4501C12.8891 61.9979 13.3248 62.5619 13.7928 63.0614C14.2608 63.5609 15.1321 64.5438 15.8422 65.2366C19.5171 68.8385 23.918 71.6178 28.752 73.3898C31.3205 74.3415 33.9899 74.9957 36.7077 75.3396C38.7562 75.6078 40.8236 75.7048 42.8883 75.6296Z"
            fill="url(#paint0_linear_1_49)" />
        <path fill-rule="evenodd" clip-rule="evenodd"
            d="M59.5304 28.4777L63.7906 23.1926C63.2904 22.5319 62.774 21.8874 62.1769 21.2751C61.5798 20.6628 60.9182 19.8572 60.2404 19.1965C56.7658 15.7801 52.6011 13.1433 48.0245 11.4622C40.374 8.64406 31.97 8.62947 24.3097 11.421C16.6495 14.2126 10.2306 19.629 6.1967 26.7052C10.2415 20.8976 16.1246 16.6166 22.9001 14.5504C29.6757 12.4843 36.9503 12.753 43.5545 15.3133C50.1015 17.9404 55.6639 22.5426 59.4658 28.4777H59.5304ZM64.9525 21.7424C64.5329 21.1785 64.0811 20.6306 63.6131 20.1311C63.1451 19.6316 62.2737 18.6487 61.5798 17.9558C57.9009 14.359 53.5012 11.5804 48.67 9.8026C39.6645 6.48435 29.7086 6.86868 20.9865 10.8712C12.2645 14.8738 5.48886 22.1676 2.14626 31.1525C0.957506 34.341 0.234671 37.6839 0 41.0781C0.0615031 34.852 1.6359 28.7339 4.58793 23.2494C7.53995 17.7649 11.7813 13.078 16.9477 9.5914C22.1141 6.10477 28.051 3.92264 34.2483 3.23251C40.4456 2.54238 46.7181 3.36486 52.5268 5.62931C58.7493 8.05984 64.2363 12.0565 68.4543 17.2307L64.9525 21.7424Z"
            fill="url(#paint1_linear_1_49)" />
        <path fill-rule="evenodd" clip-rule="evenodd"
            d="M38.4152 19.0199C42.3024 19.018 46.1232 20.0263 49.5019 21.9455C52.8806 23.8648 55.7009 26.6291 57.6855 29.9665C59.6701 33.3039 60.7507 37.0995 60.821 40.9802C60.8913 44.861 59.9489 48.6932 58.0866 52.1001C57.5798 50.9646 56.6804 50.0494 55.5531 49.522C54.4182 49.0933 53.2161 48.8696 52.0028 48.8613C50.2923 48.6196 45.6448 47.25 44.854 45.1553C44.6295 43.8409 44.5806 42.5026 44.7088 41.1754C44.7103 39.724 45.0239 38.2898 45.6286 36.9699C48.4849 32.6999 48.259 25.8357 42.6271 23.9827C41.1967 23.4221 39.6509 23.2186 38.1238 23.3899C36.5968 23.5611 35.1347 24.1021 33.8646 24.9656C32.9514 25.6446 32.1859 26.5018 31.6145 27.4851C31.0431 28.4683 30.6776 29.5572 30.5403 30.6858C30.3466 31.6526 30.8146 32.0232 30.7178 32.6999C30.5616 33.1667 30.3446 33.6109 30.0723 34.0212C29.9432 34.279 29.7818 34.5851 29.6366 34.8268C29.5021 35.0268 29.3834 35.2369 29.2816 35.4552C29.0395 36.132 29.4106 36.4543 29.8948 36.5026H30.4435C30.3888 36.8725 30.2913 37.2347 30.153 37.5822C29.9432 37.9689 30.2498 38.3556 30.75 38.4684C30.6718 38.5088 30.6027 38.5647 30.547 38.6327C30.4912 38.7007 30.45 38.7794 30.4258 38.8639C30.4016 38.9484 30.395 39.037 30.4064 39.1241C30.4177 39.2113 30.4468 39.2952 30.4919 39.3707C30.6533 39.5641 30.9114 39.6285 30.8792 40.5309C30.8469 41.4332 30.7017 42.1422 31.6538 42.4483C32.571 42.5695 33.5031 42.5093 34.3971 42.2711C34.3971 43.0606 34.3002 43.8824 34.1873 44.6236C33.7516 46.7666 28.7168 48.5552 26.861 48.813C25.6477 48.8213 24.4456 49.045 23.3108 49.4737C22.4204 49.9326 21.6589 50.6063 21.0953 51.4335C20.5318 52.2608 20.1839 53.2154 20.0833 54.2109C17.7217 50.8613 16.3268 46.9285 16.0508 42.8415C15.7747 38.7545 16.6281 34.6702 18.5179 31.0344C20.4076 27.3985 23.2611 24.3508 26.767 22.2236C30.273 20.0964 34.2967 18.9714 38.3991 18.9715L38.4152 19.0199Z"
            fill="url(#paint2_radial_1_49)" />
    </g>
    <path
        d="M96.1923 62.5965C96.1116 61.9156 95.7846 61.387 95.2112 61.0107C94.6378 60.6344 93.9345 60.4462 93.1013 60.4462C92.4921 60.4462 91.959 60.5448 91.5021 60.7419C91.0496 60.939 90.6957 61.21 90.4404 61.555C90.1895 61.8999 90.0641 62.2919 90.0641 62.7309C90.0641 63.0982 90.1514 63.414 90.3261 63.6783C90.5053 63.9381 90.7338 64.1554 91.0115 64.3301C91.2893 64.5003 91.5805 64.6414 91.8851 64.7534C92.1897 64.861 92.4697 64.9483 92.725 65.0155L94.1227 65.3918C94.481 65.4859 94.8797 65.6158 95.3187 65.7815C95.7622 65.9473 96.1855 66.1735 96.5887 66.4602C96.9964 66.7424 97.3323 67.1053 97.5966 67.5487C97.8609 67.9922 97.9931 68.5365 97.9931 69.1816C97.9931 69.9252 97.7982 70.5972 97.4085 71.1974C97.0232 71.7977 96.4588 72.2748 95.7152 72.6287C94.976 72.9826 94.0779 73.1595 93.0207 73.1595C92.0351 73.1595 91.1818 73.0005 90.4605 72.6824C89.7438 72.3644 89.1794 71.9209 88.7672 71.352C88.3596 70.7831 88.1289 70.1223 88.0751 69.3697H89.7953C89.8401 69.8894 90.0148 70.3194 90.3194 70.6599C90.6285 70.9958 91.0183 71.2467 91.4886 71.4125C91.9635 71.5737 92.4741 71.6544 93.0207 71.6544C93.6568 71.6544 94.2279 71.5513 94.7341 71.3453C95.2403 71.1347 95.6413 70.8435 95.9369 70.4717C96.2326 70.0954 96.3804 69.6564 96.3804 69.1547C96.3804 68.6978 96.2527 68.326 95.9974 68.0393C95.7421 67.7526 95.4061 67.5196 94.9895 67.3404C94.5729 67.1613 94.1227 67.0045 93.6389 66.8701L91.9455 66.3863C90.8704 66.0772 90.0193 65.6359 89.3921 65.0625C88.765 64.4891 88.4514 63.7388 88.4514 62.8115C88.4514 62.041 88.6597 61.3691 89.0763 60.7957C89.4974 60.2178 90.0618 59.7698 90.7696 59.4518C91.4819 59.1292 92.277 58.968 93.1551 58.968C94.042 58.968 94.8305 59.127 95.5203 59.445C96.2102 59.7586 96.7567 60.1887 97.1599 60.7352C97.5675 61.2817 97.7825 61.9021 97.8049 62.5965H96.1923ZM101.539 76.7881C101.271 76.7881 101.031 76.7657 100.82 76.7209C100.61 76.6805 100.464 76.6402 100.384 76.5999L100.787 75.2023C101.172 75.3008 101.512 75.3366 101.808 75.3098C102.104 75.2829 102.366 75.1507 102.594 74.9133C102.827 74.6804 103.04 74.3018 103.233 73.7777L103.528 72.9714L99.7116 62.5965H101.432L104.281 70.8211H104.388L107.237 62.5965H108.958L104.577 74.4228C104.379 74.9559 104.135 75.3971 103.844 75.7465C103.553 76.1004 103.215 76.3625 102.829 76.5327C102.449 76.7029 102.019 76.7881 101.539 76.7881ZM118.362 64.908L116.937 65.3112C116.847 65.0737 116.715 64.843 116.541 64.619C116.37 64.3906 116.137 64.2024 115.842 64.0546C115.546 63.9068 115.168 63.8329 114.706 63.8329C114.075 63.8329 113.548 63.9785 113.127 64.2696C112.71 64.5563 112.502 64.9214 112.502 65.3649C112.502 65.7591 112.646 66.0705 112.932 66.2989C113.219 66.5274 113.667 66.7178 114.276 66.8701L115.808 67.2464C116.731 67.4704 117.419 67.813 117.871 68.2745C118.323 68.7314 118.55 69.3205 118.55 70.0417C118.55 70.633 118.379 71.1616 118.039 71.6275C117.703 72.0934 117.233 72.4607 116.628 72.7295C116.023 72.9983 115.32 73.1326 114.518 73.1326C113.465 73.1326 112.594 72.9042 111.904 72.4473C111.214 71.9903 110.777 71.3229 110.594 70.4449L112.099 70.0686C112.242 70.624 112.513 71.0406 112.912 71.3184C113.315 71.5961 113.842 71.735 114.491 71.735C115.23 71.735 115.817 71.5782 116.252 71.2646C116.691 70.9466 116.91 70.5658 116.91 70.1223C116.91 69.7639 116.785 69.4638 116.534 69.2219C116.283 68.9755 115.898 68.7919 115.378 68.6709L113.658 68.2677C112.713 68.0438 112.018 67.6966 111.575 67.2262C111.136 66.7514 110.916 66.1578 110.916 65.4455C110.916 64.8632 111.08 64.348 111.407 63.9001C111.738 63.4521 112.189 63.1004 112.758 62.8451C113.331 62.5898 113.98 62.4621 114.706 62.4621C115.728 62.4621 116.529 62.6861 117.112 63.134C117.699 63.582 118.115 64.1733 118.362 64.908ZM125.425 62.5965V63.9404H120.077V62.5965H125.425ZM121.636 60.1237H123.221V69.961C123.221 70.409 123.286 70.745 123.416 70.969C123.551 71.1885 123.721 71.3363 123.927 71.4125C124.138 71.4841 124.359 71.52 124.592 71.52C124.767 71.52 124.91 71.511 125.022 71.4931C125.134 71.4707 125.224 71.4528 125.291 71.4393L125.614 72.8639C125.506 72.9042 125.356 72.9445 125.163 72.9848C124.971 73.0296 124.727 73.052 124.431 73.052C123.983 73.052 123.544 72.9557 123.114 72.7631C122.688 72.5705 122.334 72.277 122.052 71.8828C121.775 71.4886 121.636 70.9914 121.636 70.3911V60.1237ZM132.027 73.1326C131.033 73.1326 130.175 72.9131 129.454 72.4741C128.737 72.0307 128.184 71.4125 127.794 70.6196C127.409 69.8222 127.216 68.8949 127.216 67.8377C127.216 66.7805 127.409 65.8487 127.794 65.0424C128.184 64.2316 128.726 63.5999 129.42 63.1475C130.119 62.6906 130.934 62.4621 131.866 62.4621C132.404 62.4621 132.934 62.5517 133.459 62.7309C133.983 62.9101 134.46 63.2012 134.89 63.6044C135.32 64.0031 135.663 64.5317 135.918 65.1902C136.173 65.8487 136.301 66.6595 136.301 67.6227V68.2946H128.345V66.9238H134.688C134.688 66.3415 134.572 65.8218 134.339 65.3649C134.11 64.908 133.783 64.5474 133.358 64.2831C132.937 64.0188 132.439 63.8866 131.866 63.8866C131.234 63.8866 130.688 64.0434 130.227 64.357C129.77 64.6661 129.418 65.0693 129.172 65.5665C128.925 66.0637 128.802 66.5968 128.802 67.1657V68.0796C128.802 68.8591 128.936 69.5198 129.205 70.0618C129.478 70.5994 129.857 71.0093 130.341 71.2915C130.825 71.5692 131.387 71.7081 132.027 71.7081C132.444 71.7081 132.82 71.6499 133.156 71.5334C133.497 71.4125 133.79 71.2333 134.036 70.9959C134.283 70.7539 134.473 70.4538 134.608 70.0954L136.14 70.5255C135.978 71.0451 135.707 71.5021 135.327 71.8963C134.946 72.286 134.475 72.5906 133.916 72.8101C133.356 73.0251 132.726 73.1326 132.027 73.1326ZM131.113 61.1988L129.017 58.081H130.872L132.511 61.1988H131.113ZM138.713 72.9176V62.5965H140.245V64.2092H140.38C140.595 63.6582 140.942 63.2304 141.421 62.9257C141.901 62.6166 142.476 62.4621 143.148 62.4621C143.829 62.4621 144.396 62.6166 144.848 62.9257C145.305 63.2304 145.661 63.6582 145.917 64.2092H146.024C146.288 63.6761 146.685 63.2528 147.213 62.9392C147.742 62.6211 148.376 62.4621 149.115 62.4621C150.038 62.4621 150.793 62.751 151.379 63.3289C151.966 63.9023 152.26 64.796 152.26 66.01V72.9176H150.674V66.01C150.674 65.2484 150.466 64.7042 150.049 64.3771C149.632 64.0501 149.142 63.8866 148.577 63.8866C147.852 63.8866 147.29 64.1061 146.891 64.5451C146.492 64.9797 146.293 65.5307 146.293 66.1981V72.9176H144.68V65.8487C144.68 65.2619 144.49 64.7893 144.109 64.4309C143.728 64.0681 143.238 63.8866 142.637 63.8866C142.225 63.8866 141.84 63.9964 141.482 64.2159C141.128 64.4354 140.841 64.74 140.622 65.1297C140.407 65.515 140.299 65.9607 140.299 66.4669V72.9176H138.713ZM159.487 73.1326C158.492 73.1326 157.634 72.9131 156.913 72.4741C156.196 72.0307 155.643 71.4125 155.253 70.6196C154.868 69.8222 154.675 68.8949 154.675 67.8377C154.675 66.7805 154.868 65.8487 155.253 65.0424C155.643 64.2316 156.185 63.5999 156.879 63.1475C157.578 62.6906 158.394 62.4621 159.325 62.4621C159.863 62.4621 160.394 62.5517 160.918 62.7309C161.442 62.9101 161.919 63.2012 162.349 63.6044C162.779 64.0031 163.122 64.5317 163.377 65.1902C163.632 65.8487 163.76 66.6595 163.76 67.6227V68.2946H155.804V66.9238H162.147C162.147 66.3415 162.031 65.8218 161.798 65.3649C161.57 64.908 161.243 64.5474 160.817 64.2831C160.396 64.0188 159.899 63.8866 159.325 63.8866C158.694 63.8866 158.147 64.0434 157.686 64.357C157.229 64.6661 156.877 65.0693 156.631 65.5665C156.384 66.0637 156.261 66.5968 156.261 67.1657V68.0796C156.261 68.8591 156.396 69.5198 156.664 70.0618C156.938 70.5994 157.316 71.0093 157.8 71.2915C158.284 71.5692 158.846 71.7081 159.487 71.7081C159.903 71.7081 160.279 71.6499 160.615 71.5334C160.956 71.4125 161.249 71.2333 161.496 70.9959C161.742 70.7539 161.932 70.4538 162.067 70.0954L163.599 70.5255C163.438 71.0451 163.167 71.5021 162.786 71.8963C162.405 72.286 161.935 72.5906 161.375 72.8101C160.815 73.0251 160.185 73.1326 159.487 73.1326ZM175.392 73.1326C174.531 73.1326 173.772 72.9154 173.114 72.4809C172.455 72.0419 171.94 71.4237 171.568 70.6263C171.196 69.8244 171.01 68.877 171.01 67.7839C171.01 66.6999 171.196 65.7591 171.568 64.9617C171.94 64.1644 172.457 63.5484 173.12 63.1139C173.783 62.6794 174.549 62.4621 175.418 62.4621C176.09 62.4621 176.621 62.5741 177.011 62.7981C177.405 63.0176 177.705 63.2684 177.911 63.5506C178.122 63.8284 178.285 64.0569 178.402 64.236H178.536V59.1561H180.122V72.9176H178.59V71.3318H178.402C178.285 71.52 178.12 71.7574 177.905 72.0441C177.69 72.3263 177.383 72.5794 176.984 72.8034C176.585 73.0229 176.055 73.1326 175.392 73.1326ZM175.607 71.7081C176.243 71.7081 176.78 71.5424 177.219 71.2109C177.658 70.8749 177.992 70.4113 178.22 69.8199C178.449 69.2241 178.563 68.5365 178.563 67.7571C178.563 66.9866 178.451 66.3124 178.227 65.7345C178.003 65.1521 177.672 64.6997 177.233 64.3771C176.794 64.0501 176.252 63.8866 175.607 63.8866C174.935 63.8866 174.375 64.0591 173.927 64.404C173.483 64.7445 173.15 65.2081 172.926 65.795C172.706 66.3773 172.596 67.0313 172.596 67.7571C172.596 68.4917 172.708 69.1592 172.932 69.7595C173.161 70.3553 173.497 70.8301 173.94 71.184C174.388 71.5334 174.944 71.7081 175.607 71.7081ZM184.617 59.1561V63.8866H183.139V59.1561H184.617ZM187.441 72.9176V62.5965H189.027V72.9176H187.441ZM188.248 60.8763C187.939 60.8763 187.672 60.771 187.448 60.5605C187.229 60.3499 187.119 60.0968 187.119 59.8012C187.119 59.5055 187.229 59.2524 187.448 59.0419C187.672 58.8313 187.939 58.7261 188.248 58.7261C188.557 58.7261 188.821 58.8313 189.041 59.0419C189.265 59.2524 189.377 59.5055 189.377 59.8012C189.377 60.0968 189.265 60.3499 189.041 60.5605C188.821 60.771 188.557 60.8763 188.248 60.8763ZM193.517 66.7088V72.9176H191.932V62.5965H193.464V64.2092H193.598C193.84 63.685 194.207 63.264 194.7 62.9459C195.193 62.6234 195.829 62.4621 196.608 62.4621C197.307 62.4621 197.919 62.6054 198.443 62.8921C198.967 63.1744 199.375 63.6044 199.666 64.1823C199.957 64.7557 200.103 65.4814 200.103 66.3594V72.9176H198.517V66.4669C198.517 65.6561 198.306 65.0245 197.885 64.572C197.464 64.1151 196.886 63.8866 196.151 63.8866C195.645 63.8866 195.193 63.9964 194.794 64.2159C194.4 64.4354 194.089 64.7557 193.86 65.1768C193.632 65.5979 193.517 66.1085 193.517 66.7088ZM207.596 62.5965V63.9404H202.033V62.5965H207.596ZM203.699 72.9176V61.1719C203.699 60.5806 203.838 60.0879 204.116 59.6937C204.393 59.2994 204.754 59.0038 205.198 58.8067C205.641 58.6096 206.109 58.511 206.602 58.511C206.992 58.511 207.31 58.5424 207.556 58.6051C207.803 58.6678 207.986 58.7261 208.107 58.7798L207.65 60.1506C207.57 60.1237 207.458 60.0901 207.314 60.0498C207.175 60.0095 206.992 59.9893 206.763 59.9893C206.239 59.9893 205.861 60.1215 205.628 60.3858C205.399 60.6501 205.285 61.0376 205.285 61.5482V72.9176H203.699ZM213.587 73.1326C212.655 73.1326 211.838 72.9109 211.134 72.4674C210.435 72.0239 209.889 71.4035 209.495 70.6061C209.105 69.8087 208.91 68.877 208.91 67.8108C208.91 66.7357 209.105 65.7972 209.495 64.9953C209.889 64.1935 210.435 63.5708 211.134 63.1273C211.838 62.6838 212.655 62.4621 213.587 62.4621C214.519 62.4621 215.334 62.6838 216.033 63.1273C216.736 63.5708 217.283 64.1935 217.672 64.9953C218.067 65.7972 218.264 66.7357 218.264 67.8108C218.264 68.877 218.067 69.8087 217.672 70.6061C217.283 71.4035 216.736 72.0239 216.033 72.4674C215.334 72.9109 214.519 73.1326 213.587 73.1326ZM213.587 71.7081C214.295 71.7081 214.877 71.5267 215.334 71.1638C215.791 70.801 216.129 70.3239 216.349 69.7326C216.568 69.1413 216.678 68.5007 216.678 67.8108C216.678 67.1209 216.568 66.4781 216.349 65.8823C216.129 65.2865 215.791 64.805 215.334 64.4376C214.877 64.0703 214.295 63.8866 213.587 63.8866C212.879 63.8866 212.297 64.0703 211.84 64.4376C211.383 64.805 211.045 65.2865 210.825 65.8823C210.606 66.4781 210.496 67.1209 210.496 67.8108C210.496 68.5007 210.606 69.1413 210.825 69.7326C211.045 70.3239 211.383 70.801 211.84 71.1638C212.297 71.5267 212.879 71.7081 213.587 71.7081ZM220.684 72.9176V62.5965H222.216V64.1554H222.324C222.512 63.6447 222.852 63.2304 223.345 62.9123C223.838 62.5942 224.393 62.4352 225.012 62.4352C225.128 62.4352 225.274 62.4375 225.448 62.4419C225.623 62.4464 225.755 62.4531 225.845 62.4621V64.0748C225.791 64.0613 225.668 64.0412 225.475 64.0143C225.287 63.9829 225.088 63.9673 224.877 63.9673C224.376 63.9673 223.928 64.0725 223.533 64.2831C223.144 64.4891 222.835 64.7758 222.606 65.1432C222.382 65.506 222.27 65.9204 222.27 66.3863V72.9176H220.684ZM227.725 72.9176V62.5965H229.257V64.2092H229.391C229.606 63.6582 229.953 63.2304 230.433 62.9257C230.912 62.6166 231.488 62.4621 232.16 62.4621C232.84 62.4621 233.407 62.6166 233.86 62.9257C234.317 63.2304 234.673 63.6582 234.928 64.2092H235.036C235.3 63.6761 235.696 63.2528 236.225 62.9392C236.753 62.6211 237.387 62.4621 238.126 62.4621C239.049 62.4621 239.804 62.751 240.391 63.3289C240.978 63.9023 241.271 64.796 241.271 66.01V72.9176H239.685V66.01C239.685 65.2484 239.477 64.7042 239.06 64.3771C238.644 64.0501 238.153 63.8866 237.589 63.8866C236.863 63.8866 236.301 64.1061 235.902 64.5451C235.504 64.9797 235.304 65.5307 235.304 66.1981V72.9176H233.692V65.8487C233.692 65.2619 233.501 64.7893 233.12 64.4309C232.74 64.0681 232.249 63.8866 231.649 63.8866C231.237 63.8866 230.852 63.9964 230.493 64.2159C230.139 64.4354 229.853 64.74 229.633 65.1297C229.418 65.515 229.31 65.9607 229.31 66.4669V72.9176H227.725ZM247.208 73.1595C246.554 73.1595 245.96 73.0363 245.427 72.79C244.894 72.5391 244.471 72.1785 244.157 71.7081C243.844 71.2333 243.687 70.6599 243.687 69.9879C243.687 69.3966 243.803 68.9173 244.036 68.55C244.269 68.1781 244.581 67.887 244.97 67.6764C245.36 67.4659 245.79 67.3091 246.26 67.2061C246.735 67.0985 247.212 67.0134 247.692 66.9507C248.319 66.8701 248.827 66.8096 249.217 66.7693C249.611 66.7245 249.898 66.6506 250.077 66.5475C250.261 66.4445 250.353 66.2653 250.353 66.01V65.9562C250.353 65.2932 250.171 64.7781 249.808 64.4107C249.45 64.0434 248.906 63.8597 248.175 63.8597C247.418 63.8597 246.825 64.0255 246.395 64.357C245.965 64.6885 245.662 65.0424 245.488 65.4187L243.983 64.8811C244.251 64.254 244.61 63.7657 245.058 63.4163C245.51 63.0624 246.003 62.816 246.536 62.6771C247.073 62.5338 247.602 62.4621 248.122 62.4621C248.453 62.4621 248.834 62.5024 249.264 62.583C249.699 62.6592 250.117 62.8182 250.521 63.0601C250.928 63.302 251.266 63.6671 251.535 64.1554C251.804 64.6437 251.938 65.2977 251.938 66.1175V72.9176H250.353V71.52H250.272C250.164 71.744 249.985 71.9836 249.734 72.239C249.484 72.4943 249.15 72.7116 248.733 72.8907C248.317 73.0699 247.808 73.1595 247.208 73.1595ZM247.45 71.735C248.077 71.735 248.606 71.6118 249.036 71.3654C249.47 71.119 249.797 70.801 250.017 70.4113C250.241 70.0215 250.353 69.6116 250.353 69.1816V67.7302C250.285 67.8108 250.138 67.8847 249.909 67.9519C249.685 68.0146 249.425 68.0706 249.13 68.1199C248.838 68.1647 248.554 68.205 248.276 68.2409C248.003 68.2722 247.781 68.2991 247.611 68.3215C247.199 68.3752 246.814 68.4626 246.455 68.5836C246.101 68.7 245.815 68.877 245.595 69.1144C245.38 69.3473 245.273 69.6654 245.273 70.0686C245.273 70.6196 245.476 71.0362 245.884 71.3184C246.296 71.5961 246.818 71.735 247.45 71.735ZM259.321 62.5965V63.9404H253.973V62.5965H259.321ZM255.532 60.1237H257.117V69.961C257.117 70.409 257.182 70.745 257.312 70.969C257.447 71.1885 257.617 71.3363 257.823 71.4125C258.034 71.4841 258.255 71.52 258.488 71.52C258.663 71.52 258.806 71.511 258.918 71.4931C259.03 71.4707 259.12 71.4528 259.187 71.4393L259.51 72.8639C259.402 72.9042 259.252 72.9445 259.059 72.9848C258.867 73.0296 258.623 73.052 258.327 73.052C257.879 73.052 257.44 72.9557 257.01 72.7631C256.584 72.5705 256.23 72.277 255.948 71.8828C255.671 71.4886 255.532 70.9914 255.532 70.3911V60.1237ZM261.707 72.9176V62.5965H263.293V72.9176H261.707ZM262.513 60.8763C262.204 60.8763 261.938 60.771 261.714 60.5605C261.494 60.3499 261.384 60.0968 261.384 59.8012C261.384 59.5055 261.494 59.2524 261.714 59.0419C261.938 58.8313 262.204 58.7261 262.513 58.7261C262.822 58.7261 263.087 58.8313 263.306 59.0419C263.53 59.2524 263.642 59.5055 263.642 59.8012C263.642 60.0968 263.53 60.3499 263.306 60.5605C263.087 60.771 262.822 60.8763 262.513 60.8763ZM270.39 73.1326C269.458 73.1326 268.641 72.9109 267.938 72.4674C267.239 72.0239 266.692 71.4035 266.298 70.6061C265.908 69.8087 265.713 68.877 265.713 67.8108C265.713 66.7357 265.908 65.7972 266.298 64.9953C266.692 64.1935 267.239 63.5708 267.938 63.1273C268.641 62.6838 269.458 62.4621 270.39 62.4621C271.322 62.4621 272.137 62.6838 272.836 63.1273C273.539 63.5708 274.086 64.1935 274.476 64.9953C274.87 65.7972 275.067 66.7357 275.067 67.8108C275.067 68.877 274.87 69.8087 274.476 70.6061C274.086 71.4035 273.539 72.0239 272.836 72.4674C272.137 72.9109 271.322 73.1326 270.39 73.1326ZM270.39 71.7081C271.098 71.7081 271.68 71.5267 272.137 71.1638C272.594 70.801 272.932 70.3239 273.152 69.7326C273.371 69.1413 273.481 68.5007 273.481 67.8108C273.481 67.1209 273.371 66.4781 273.152 65.8823C272.932 65.2865 272.594 64.805 272.137 64.4376C271.68 64.0703 271.098 63.8866 270.39 63.8866C269.682 63.8866 269.1 64.0703 268.643 64.4376C268.186 64.805 267.848 65.2865 267.628 65.8823C267.409 66.4781 267.299 67.1209 267.299 67.8108C267.299 68.5007 267.409 69.1413 267.628 69.7326C267.848 70.3239 268.186 70.801 268.643 71.1638C269.1 71.5267 269.682 71.7081 270.39 71.7081ZM279.073 66.7088V72.9176H277.488V62.5965H279.02V64.2092H279.154C279.396 63.685 279.763 63.264 280.256 62.9459C280.749 62.6234 281.385 62.4621 282.164 62.4621C282.863 62.4621 283.475 62.6054 283.999 62.8921C284.523 63.1744 284.931 63.6044 285.222 64.1823C285.513 64.7557 285.658 65.4814 285.658 66.3594V72.9176H284.073V66.4669C284.073 65.6561 283.862 65.0245 283.441 64.572C283.02 64.1151 282.442 63.8866 281.707 63.8866C281.201 63.8866 280.749 63.9964 280.35 64.2159C279.956 64.4354 279.645 64.7557 279.416 65.1768C279.188 65.5979 279.073 66.1085 279.073 66.7088ZM293.878 72.9176V62.5965H295.41V64.2092H295.545C295.76 63.6582 296.107 63.2304 296.586 62.9257C297.065 62.6166 297.641 62.4621 298.313 62.4621C298.994 62.4621 299.561 62.6166 300.013 62.9257C300.47 63.2304 300.826 63.6582 301.081 64.2092H301.189C301.453 63.6761 301.85 63.2528 302.378 62.9392C302.907 62.6211 303.541 62.4621 304.28 62.4621C305.203 62.4621 305.958 62.751 306.544 63.3289C307.131 63.9023 307.425 64.796 307.425 66.01V72.9176H305.839V66.01C305.839 65.2484 305.631 64.7042 305.214 64.3771C304.797 64.0501 304.307 63.8866 303.742 63.8866C303.017 63.8866 302.454 64.1061 302.056 64.5451C301.657 64.9797 301.458 65.5307 301.458 66.1981V72.9176H299.845V65.8487C299.845 65.2619 299.655 64.7893 299.274 64.4309C298.893 64.0681 298.403 63.8866 297.802 63.8866C297.39 63.8866 297.005 63.9964 296.647 64.2159C296.293 64.4354 296.006 64.74 295.786 65.1297C295.571 65.515 295.464 65.9607 295.464 66.4669V72.9176H293.878ZM314.651 73.1326C313.657 73.1326 312.799 72.9131 312.078 72.4741C311.361 72.0307 310.808 71.4125 310.418 70.6196C310.033 69.8222 309.84 68.8949 309.84 67.8377C309.84 66.7805 310.033 65.8487 310.418 65.0424C310.808 64.2316 311.35 63.5999 312.044 63.1475C312.743 62.6906 313.558 62.4621 314.49 62.4621C315.028 62.4621 315.559 62.5517 316.083 62.7309C316.607 62.9101 317.084 63.2012 317.514 63.6044C317.944 64.0031 318.287 64.5317 318.542 65.1902C318.797 65.8487 318.925 66.6595 318.925 67.6227V68.2946H310.969V66.9238H317.312C317.312 66.3415 317.196 65.8218 316.963 65.3649C316.734 64.908 316.407 64.5474 315.982 64.2831C315.561 64.0188 315.064 63.8866 314.49 63.8866C313.859 63.8866 313.312 64.0434 312.851 64.357C312.394 64.6661 312.042 65.0693 311.796 65.5665C311.549 66.0637 311.426 66.5968 311.426 67.1657V68.0796C311.426 68.8591 311.56 69.5198 311.829 70.0618C312.103 70.5994 312.481 71.0093 312.965 71.2915C313.449 71.5692 314.011 71.7081 314.651 71.7081C315.068 71.7081 315.444 71.6499 315.78 71.5334C316.121 71.4125 316.414 71.2333 316.661 70.9959C316.907 70.7539 317.097 70.4538 317.232 70.0954L318.764 70.5255C318.602 71.0451 318.331 71.5021 317.951 71.8963C317.57 72.286 317.1 72.5906 316.54 72.8101C315.98 73.0251 315.35 73.1326 314.651 73.1326ZM313.684 61.1988L315.323 58.081H317.178L315.081 61.1988H313.684ZM325.235 73.1326C324.375 73.1326 323.615 72.9154 322.957 72.4809C322.298 72.0419 321.783 71.4237 321.411 70.6263C321.039 69.8244 320.854 68.877 320.854 67.7839C320.854 66.6999 321.039 65.7591 321.411 64.9617C321.783 64.1644 322.3 63.5484 322.963 63.1139C323.626 62.6794 324.392 62.4621 325.262 62.4621C325.933 62.4621 326.464 62.5741 326.854 62.7981C327.248 63.0176 327.548 63.2684 327.754 63.5506C327.965 63.8284 328.129 64.0569 328.245 64.236H328.379V59.1561H329.965V72.9176H328.433V71.3318H328.245C328.129 71.52 327.963 71.7574 327.748 72.0441C327.533 72.3263 327.226 72.5794 326.827 72.8034C326.428 73.0229 325.898 73.1326 325.235 73.1326ZM325.45 71.7081C326.086 71.7081 326.623 71.5424 327.062 71.2109C327.501 70.8749 327.835 70.4113 328.064 69.8199C328.292 69.2241 328.406 68.5365 328.406 67.7571C328.406 66.9866 328.294 66.3124 328.07 65.7345C327.846 65.1521 327.515 64.6997 327.076 64.3771C326.637 64.0501 326.095 63.8866 325.45 63.8866C324.778 63.8866 324.218 64.0591 323.77 64.404C323.326 64.7445 322.993 65.2081 322.769 65.795C322.549 66.3773 322.439 67.0313 322.439 67.7571C322.439 68.4917 322.551 69.1592 322.775 69.7595C323.004 70.3553 323.34 70.8301 323.783 71.184C324.231 71.5334 324.787 71.7081 325.45 71.7081ZM333.09 72.9176V62.5965H334.676V72.9176H333.09ZM333.896 60.8763C333.587 60.8763 333.32 60.771 333.096 60.5605C332.877 60.3499 332.767 60.0968 332.767 59.8012C332.767 59.5055 332.877 59.2524 333.096 59.0419C333.32 58.8313 333.587 58.7261 333.896 58.7261C334.205 58.7261 334.469 58.8313 334.689 59.0419C334.913 59.2524 335.025 59.5055 335.025 59.8012C335.025 60.0968 334.913 60.3499 334.689 60.5605C334.469 60.771 334.205 60.8763 333.896 60.8763ZM341.773 73.1326C340.805 73.1326 339.972 72.9042 339.273 72.4473C338.575 71.9903 338.037 71.3609 337.661 70.5591C337.284 69.7572 337.096 68.8411 337.096 67.8108C337.096 66.7626 337.289 65.8375 337.674 65.0357C338.064 64.2293 338.606 63.5999 339.3 63.1475C339.999 62.6906 340.814 62.4621 341.746 62.4621C342.472 62.4621 343.126 62.5965 343.708 62.8653C344.291 63.134 344.768 63.5103 345.139 63.9941C345.511 64.4779 345.742 65.0424 345.832 65.6874H344.246C344.125 65.2171 343.856 64.8005 343.439 64.4376C343.027 64.0703 342.472 63.8866 341.773 63.8866C341.155 63.8866 340.613 64.0479 340.147 64.3704C339.685 64.6885 339.325 65.1387 339.065 65.721C338.81 66.2989 338.682 66.9776 338.682 67.7571C338.682 68.5544 338.807 69.2488 339.058 69.8401C339.314 70.4314 339.672 70.8906 340.133 71.2176C340.599 71.5446 341.146 71.7081 341.773 71.7081C342.185 71.7081 342.559 71.6364 342.895 71.4931C343.231 71.3497 343.516 71.1437 343.749 70.8749C343.981 70.6061 344.147 70.2836 344.246 69.9073H345.832C345.742 70.5165 345.52 71.0653 345.166 71.5536C344.817 72.0374 344.353 72.4226 343.775 72.7093C343.202 72.9915 342.535 73.1326 341.773 73.1326ZM351.187 73.1595C350.533 73.1595 349.939 73.0363 349.406 72.79C348.873 72.5391 348.45 72.1785 348.136 71.7081C347.823 71.2333 347.666 70.6599 347.666 69.9879C347.666 69.3966 347.782 68.9173 348.015 68.55C348.248 68.1781 348.56 67.887 348.949 67.6764C349.339 67.4659 349.769 67.3091 350.24 67.2061C350.714 67.0985 351.191 67.0134 351.671 66.9507C352.298 66.8701 352.806 66.8096 353.196 66.7693C353.59 66.7245 353.877 66.6506 354.056 66.5475C354.24 66.4445 354.332 66.2653 354.332 66.01V65.9562C354.332 65.2932 354.15 64.7781 353.787 64.4107C353.429 64.0434 352.885 63.8597 352.155 63.8597C351.398 63.8597 350.804 64.0255 350.374 64.357C349.944 64.6885 349.642 65.0424 349.467 65.4187L347.962 64.8811C348.23 64.254 348.589 63.7657 349.037 63.4163C349.489 63.0624 349.982 62.816 350.515 62.6771C351.053 62.5338 351.581 62.4621 352.101 62.4621C352.432 62.4621 352.813 62.5024 353.243 62.583C353.678 62.6592 354.097 62.8182 354.5 63.0601C354.907 63.302 355.246 63.6671 355.514 64.1554C355.783 64.6437 355.918 65.2977 355.918 66.1175V72.9176H354.332V71.52H354.251C354.144 71.744 353.964 71.9836 353.714 72.239C353.463 72.4943 353.129 72.7116 352.712 72.8907C352.296 73.0699 351.787 73.1595 351.187 73.1595ZM351.429 71.735C352.056 71.735 352.585 71.6118 353.015 71.3654C353.449 71.119 353.776 70.801 353.996 70.4113C354.22 70.0215 354.332 69.6116 354.332 69.1816V67.7302C354.265 67.8108 354.117 67.8847 353.888 67.9519C353.664 68.0146 353.404 68.0706 353.109 68.1199C352.818 68.1647 352.533 68.205 352.255 68.2409C351.982 68.2722 351.76 68.2991 351.59 68.3215C351.178 68.3752 350.793 68.4626 350.434 68.5836C350.081 68.7 349.794 68.877 349.574 69.1144C349.359 69.3473 349.252 69.6654 349.252 70.0686C349.252 70.6196 349.456 71.0362 349.863 71.3184C350.275 71.5961 350.797 71.735 351.429 71.735ZM360.398 59.1561V72.9176H358.812V59.1561H360.398Z"
        fill="black" />
    <path
        d="M90.0082 49L97.4712 10.8811L109.642 38.4369L122.248 10.8811L128.954 49H123.466L120.044 27.5983L109.55 50.6304L99.3542 27.5754L95.5423 49H90.0082ZM156.05 18.5738H141.836V27.0931H155.637V32.1221H141.836V43.9711H156.05V49H136.486V13.5448H156.05V18.5738ZM163.077 49V13.5448H170.517C174.084 13.5448 176.901 13.8969 178.968 14.6012C181.187 15.29 183.2 16.4612 185.007 18.1145C188.666 21.4518 190.495 25.8378 190.495 31.2724C190.495 36.7224 188.589 41.1313 184.777 44.4992C182.864 46.1832 180.858 47.3543 178.761 48.0126C176.801 48.6709 174.023 49 170.425 49H163.077ZM168.427 43.9711H170.839C173.242 43.9711 175.24 43.7185 176.832 43.2133C178.424 42.6775 179.863 41.8278 181.149 40.6644C183.782 38.2609 185.099 35.1302 185.099 31.2724C185.099 27.384 183.797 24.2304 181.195 21.8116C178.853 19.6531 175.401 18.5738 170.839 18.5738H168.427V43.9711ZM202.597 13.5448V49H197.246V13.5448H202.597ZM231.944 40.3888H216.765L212.815 49H207.052L224.595 11.3174L241.519 49H235.664L231.944 40.3888ZM229.762 35.3599L224.504 23.3042L218.992 35.3599H229.762ZM251.325 13.5448V43.9711H261.75V49H245.974V13.5448H251.325ZM263.587 31.1117C263.587 26.121 265.416 21.8346 269.075 18.2523C272.719 14.67 277.097 12.8789 282.21 12.8789C287.262 12.8789 291.594 14.6854 295.207 18.2982C298.835 21.9111 300.649 26.2511 300.649 31.3183C300.649 36.4162 298.828 40.7409 295.184 44.2925C291.525 47.8595 287.109 49.643 281.934 49.643C277.357 49.643 273.247 48.0585 269.603 44.8896C265.592 41.3839 263.587 36.7912 263.587 31.1117ZM268.983 31.1806C268.983 35.0996 270.3 38.3221 272.933 40.8481C275.551 43.374 278.574 44.637 282.003 44.637C285.723 44.637 288.862 43.3511 291.418 40.7792C293.975 38.1767 295.253 35.0078 295.253 31.2724C295.253 27.4912 293.99 24.3222 291.464 21.7657C288.954 19.1938 285.846 17.9079 282.141 17.9079C278.452 17.9079 275.336 19.1938 272.795 21.7657C270.254 24.3069 268.983 27.4452 268.983 31.1806ZM325.61 30.5376H340.261V31.7087C340.261 34.3725 339.947 36.73 339.319 38.7814C338.707 40.6797 337.674 42.4555 336.219 44.1088C332.928 47.8136 328.741 49.6659 323.659 49.6659C318.699 49.6659 314.45 47.8748 310.914 44.2925C307.378 40.695 305.609 36.3779 305.609 31.3413C305.609 26.1976 307.408 21.8346 311.006 18.2523C314.603 14.6547 318.982 12.8559 324.141 12.8559C326.912 12.8559 329.499 13.4224 331.902 14.5552C334.199 15.6881 336.457 17.5251 338.676 20.0664L334.865 23.7175C331.956 19.8444 328.412 17.9079 324.233 17.9079C320.482 17.9079 317.336 19.2014 314.795 21.7886C312.254 24.3299 310.983 27.5141 310.983 31.3413C310.983 35.291 312.399 38.5441 315.231 41.1007C317.879 43.4735 320.75 44.66 323.842 44.66C326.475 44.66 328.841 43.772 330.938 41.9962C333.035 40.2051 334.206 38.0619 334.451 35.5665H325.61V30.5376ZM352.363 13.5448V49H347.012V13.5448H352.363ZM380.929 18.8264L376.589 21.3983C375.777 19.9898 375.004 19.0713 374.269 18.6427C373.504 18.1528 372.517 17.9079 371.307 17.9079C369.822 17.9079 368.59 18.3288 367.61 19.1708C366.63 19.9975 366.14 21.0385 366.14 22.2938C366.14 24.0237 367.426 25.4168 369.998 26.4731L373.535 27.9198C376.413 29.0833 378.518 30.507 379.849 32.191C381.181 33.8596 381.847 35.911 381.847 38.3451C381.847 41.6059 380.76 44.3002 378.587 46.4281C376.397 48.5714 373.68 49.643 370.435 49.643C367.358 49.643 364.816 48.7321 362.811 46.9104C360.836 45.0886 359.604 42.5244 359.114 39.2177L364.533 38.0236C364.778 40.1056 365.207 41.5446 365.819 42.3407C366.921 43.8716 368.529 44.637 370.641 44.637C372.31 44.637 373.695 44.0782 374.798 42.9607C375.9 41.8431 376.451 40.4271 376.451 38.7125C376.451 38.0236 376.351 37.3959 376.152 36.8295C375.969 36.2478 375.67 35.7196 375.257 35.2451C374.859 34.7552 374.338 34.3036 373.695 33.8902C373.052 33.4616 372.287 33.0559 371.399 32.6732L367.978 31.2495C363.125 29.1981 360.698 26.1976 360.698 22.2479C360.698 19.5842 361.716 17.3567 363.752 15.5656C365.788 13.7592 368.322 12.8559 371.353 12.8559C375.441 12.8559 378.632 14.8461 380.929 18.8264Z"
        fill="black" />
    <defs>
        <linearGradient id="paint0_linear_1_49" x1="39.4833" y1="54.0219" x2="54.4823" y2="61.3389"
            gradientUnits="userSpaceOnUse">
            <stop stop-color="#0968A1" />
            <stop offset="1" stop-color="#244361" />
        </linearGradient>
        <linearGradient id="paint1_linear_1_49" x1="62.5319" y1="12.5096" x2="1.67004" y2="25.4694"
            gradientUnits="userSpaceOnUse">
            <stop stop-color="#E30613" />
            <stop offset="1" stop-color="#A12424" />
        </linearGradient>
        <radialGradient id="paint2_radial_1_49" cx="0" cy="0" r="1" gradientUnits="userSpaceOnUse"
            gradientTransform="translate(38.4153 36.6315) scale(25.6583 25.6198)">
            <stop stop-color="#1681A2" />
            <stop offset="1" stop-color="#00468E" />
        </radialGradient>
        <clipPath id="clip0_1_49">
            <rect width="77.0877" height="77.0045" fill="white" transform="translate(0 2.99551)" />
        </clipPath>
    </defs>
</svg>