<svg width="80" height="80" viewBox="0 0 80 80" fill="none" xmlns="http://www.w3.org/2000/svg">
    <g clip-path="url(#clip0_1_101)">
        <path
            d="M39.207 63.198C51.4623 63.198 61.3972 53.2631 61.3972 41.0078C61.3972 28.7525 51.4623 18.8176 39.207 18.8176C26.9517 18.8176 17.0168 28.7525 17.0168 41.0078C17.0168 53.2631 26.9517 63.198 39.207 63.198Z"
            fill="#3B3835" />
        <path fill-rule="evenodd" clip-rule="evenodd"
            d="M35.4692 59.4997C34.7532 59.3315 29.9629 57.4196 28.52 56.4028L28.3983 56.3205L28.3732 56.3026L28.2515 56.2167L27.8398 55.9052L27.6715 55.7799L27.6214 55.7369L27.4782 55.6295L27.1488 55.3503L26.977 55.2106L26.8982 55.139L26.7371 55.003L26.4686 54.7559L26.3075 54.6091L26.2072 54.5089L26.0282 54.3478L25.8134 54.1258L25.6666 53.9826L25.5449 53.8501L25.3587 53.6604L25.1833 53.4635L25.058 53.3274L24.9147 53.1592L24.7214 52.9372L24.5675 52.7689L24.4636 52.6472L24.3025 52.4395L24.102 52.1925L23.9982 52.0457L23.9159 51.9419L23.7404 51.6949L23.5364 51.4156L23.4934 51.301L23.4325 51.2115L23.2464 50.9215L23.0423 50.6136L22.9886 50.5277L22.9492 50.4633L22.7487 50.1052L22.5554 49.7794L22.5232 49.7222L22.5017 49.6828L22.2725 49.246L22.1043 48.9309V48.9023C21.9682 48.6302 21.8393 48.3581 21.714 48.0788L21.6102 47.8211L21.3453 47.2661V47.2303V47.1838L21.2343 46.8759L21.0374 46.4319L21.0159 46.3603L20.9872 46.2851L20.8942 45.9772L20.7689 45.5763L20.7402 45.4653L20.708 45.3614L20.6328 45.0679L20.5397 44.7098L20.5075 44.5631L20.4717 44.427L20.418 44.1549L20.3464 43.8291L20.3142 43.6429L20.2819 43.4747L20.2426 43.224L20.196 42.9376L20.1674 42.7085L20.1352 42.508L20.1137 42.286L20.0815 42.0318L20.06 41.7669L20.0385 41.5342V41.3409V41.1225V40.811V40.5496V39.5579V39.4254V39.2715L20.0635 38.8633V38.5519V38.4516V38.3442L20.1173 37.868L20.1495 37.5494V37.485V37.4098L20.2426 36.8334L20.2855 36.5434V36.5111V36.4753L20.4789 35.5373L20.7223 34.5814C22.017 30.0257 24.8871 26.0776 28.8211 23.4404C32.7551 20.8033 37.4976 19.6485 42.2036 20.1818L43.1703 20.3178L41.8349 20.103L41.4231 20.0493L40.4815 19.9383L40.0376 19.8989L39.0351 19.8381H38.7022H37.3882H37.1018L36.0707 19.8739L35.6411 19.9025L34.7246 19.9813L34.3128 20.0242L33.16 20.1531L33.0132 20.1746L31.7458 20.4073L31.3878 20.4861L30.4748 20.6973L30.0631 20.8011L29.1501 21.0589L28.8172 21.1592L27.5999 21.5673L27.4245 21.6318L26.4041 22.0256L26.0461 22.1831L25.2119 22.5411L24.8539 22.7094L23.8908 23.1963L23.7011 23.293L22.584 23.9159L22.3083 24.0842L21.4885 24.5926L21.1305 24.8181L20.3607 25.348L20.0671 25.5557L19.0432 26.329L18.9966 26.3684L18.0622 27.1453L17.7758 27.4031L17.0955 28.0224L16.7984 28.3089L16.0823 29.0249L15.8783 29.2326L15.0226 30.1813L14.8185 30.4212L14.1992 31.173L13.9271 31.5311L13.3972 32.2471L13.1466 32.6051L12.5093 33.5503L12.4198 33.6828C9.92193 37.6031 8.36977 42.0505 7.8859 46.6737C7.40202 51.2969 7.99968 55.9693 9.63167 60.3218C11.2637 64.6744 13.8853 68.5879 17.2895 71.7533C20.6937 74.9187 24.7872 77.2492 29.2468 78.5608C29.8089 78.7184 30.3746 78.8616 30.9438 78.994C31.5131 79.1265 32.0895 79.2446 32.6623 79.352L32.7841 79.3735C42.8303 81.2758 53.2235 79.2549 61.825 73.7268C70.4265 68.1987 76.5818 59.5838 79.0243 49.6551C81.4668 39.7264 80.0107 29.2391 74.9556 20.3514C69.9005 11.4637 61.6309 4.8517 51.8487 1.8761C58.8845 4.26521 64.7825 9.18156 68.3996 15.6721C72.0166 22.1626 73.0949 29.7649 71.4254 37.0052C70.6609 40.3304 69.3286 43.4987 67.4871 46.3711C64.3644 51.2637 59.8884 55.1445 54.6027 57.5424C49.3169 59.9402 43.4487 60.752 37.7105 59.8792C36.9565 59.7975 36.2081 59.6708 35.4692 59.4997ZM67.4943 46.3711L67.4728 46.2171C67.4836 46.2672 67.4907 46.3209 67.4943 46.3711Z"
            fill="url(#paint0_linear_1_101)" />
        <path fill-rule="evenodd" clip-rule="evenodd"
            d="M20.5003 35.5337C20.6686 34.8177 22.5804 30.0273 23.5936 28.5845L23.676 28.4628V28.4377L23.7619 28.3124L24.0734 27.9043L24.1987 27.736L24.2417 27.6823L24.3526 27.5391L24.6283 27.2097L24.7715 27.0379L24.8396 26.9627L24.9756 26.8016L25.2226 26.533L25.3694 26.3684L25.4697 26.2681L25.6344 26.0927L25.8563 25.8779L25.9995 25.7311L26.132 25.6058L26.3218 25.4196L26.5187 25.2442L26.6547 25.1189L26.8194 24.9792L27.0414 24.7823L27.2097 24.6463L27.335 24.5389L27.539 24.3813L27.7897 24.1808L27.9329 24.077L28.0367 23.9947L28.2837 23.8192L28.563 23.6152L28.6811 23.54L28.7671 23.4755L29.0571 23.2894L29.365 23.0889L29.4545 23.0352L29.5189 22.9958L29.8769 22.7917L30.1991 22.5984L30.26 22.5697L30.2994 22.5447L30.7326 22.3191L31.0477 22.1509H31.0763C31.3484 22.0184 31.6241 21.8859 31.9033 21.7642L32.1611 21.6568L32.7089 21.4312H32.7483L32.802 21.3704L33.1134 21.263L33.561 21.0983L33.6362 21.0732L33.7113 21.0481L34.0157 20.9551L34.4166 20.8298L34.5276 20.8011L34.635 20.7689L34.925 20.6937L35.2831 20.597L35.4298 20.5648L35.5695 20.529L35.8416 20.4753L36.1638 20.4073L36.35 20.3751L36.5218 20.3393L36.7688 20.3035L37.0588 20.2533L37.2844 20.2247L37.4849 20.1961L37.7069 20.1746L37.9611 20.1424L38.2296 20.1209L38.4623 20.0994H38.652L38.8704 20.0815H39.1819H39.4433H39.608H39.7906H40.1486H40.4386H40.5675H40.7143L41.126 20.1101H41.4339H41.5341H41.6451L42.1177 20.1603L42.4363 20.1925H42.5044H42.576L43.1846 20.2963L43.4746 20.3428H43.5068H43.5426L44.4771 20.5362L45.433 20.7832C49.9861 22.0762 53.9326 24.9432 56.5695 28.8738C59.2065 32.8043 60.3629 37.5432 59.8326 42.2466L59.7002 43.2097L59.915 41.8743L59.9651 41.4661L60.0689 40.5174L60.1083 40.0734L60.1692 39.0745V38.738L60.1871 37.4241V37.1412L60.1477 36.1066L60.119 35.6805L60.0403 34.7604L60.0009 34.3522L59.8469 33.2102L59.8255 33.0669L59.5963 31.796L59.5176 31.4379L59.3027 30.5286L59.1989 30.1133L58.9411 29.2003L58.8409 28.8673L58.4363 27.6537L58.3683 27.4782L57.9745 26.4579L57.8205 26.0998L57.4625 25.2621L57.2942 24.904L56.7894 23.9553L56.6928 23.7655L56.0734 22.6485L55.9087 22.3728L55.3967 21.553L55.1748 21.1949L54.6413 20.4359L54.4337 20.1424L53.6567 19.122L53.6174 19.0754L52.8512 18.1482L52.597 17.8582L51.974 17.1815L51.6912 16.8808L50.9752 16.1647L50.7639 15.9642L49.8187 15.105L49.5789 14.9045L48.8234 14.2851L48.4654 14.013L47.7494 13.4796L47.3914 13.2289L46.4462 12.5917L46.3173 12.5057C42.3965 10.0087 37.9489 8.45718 33.3257 7.9737C28.7025 7.49023 24.0302 8.08802 19.6776 9.71989C15.325 11.3518 11.4114 13.973 8.24553 17.3768C5.07971 20.7805 2.74841 24.8736 1.43567 29.3328C1.27814 29.8949 1.13493 30.4605 1.00246 31.0334C0.869991 31.6062 0.751844 32.179 0.644437 32.7519L0.622956 32.8736C-1.28555 42.9239 0.733253 53.3235 6.26347 61.9298C11.7937 70.5361 20.4141 76.6936 30.3487 79.1338C40.2834 81.5739 50.7756 80.1109 59.6637 75.0461C68.5519 69.9813 75.159 61.7005 78.124 51.9096C76.6644 56.2126 74.2456 60.1275 71.0504 63.3582C67.8553 66.5888 63.9675 69.0508 59.6809 70.558C55.3944 72.0651 50.8212 72.578 46.3073 72.0578C41.7934 71.5376 37.4568 69.9979 33.6254 67.5552C28.7329 64.4315 24.8522 59.9549 22.4543 54.6686C20.0565 49.3823 19.2446 43.5137 20.1172 37.7749C20.2003 37.0209 20.3283 36.2725 20.5003 35.5337Z"
            fill="url(#paint1_linear_1_101)" />
        <path fill-rule="evenodd" clip-rule="evenodd"
            d="M50.2627 1.35684L50.5563 1.4356L51.8487 1.81153C56.1524 3.2708 60.0679 5.68966 63.299 8.88512C66.5301 12.0806 68.9922 15.969 70.4991 20.2562C72.006 24.5434 72.5182 29.1172 71.997 33.6315C71.4758 38.1459 69.9349 42.4826 67.4907 46.3137C64.3727 51.1964 59.9069 55.0713 54.6333 57.4698C49.3598 59.8683 43.5043 60.6877 37.7749 59.829C38.4265 59.9006 39.0781 59.94 39.7261 59.9471H40.2524H40.3992C41.3304 59.9269 42.2589 59.8396 43.1774 59.6858H43.2347L43.3672 59.6643H43.446C43.7252 59.6142 44.0045 59.5569 44.2837 59.496H44.3195L44.4269 59.4674L44.8745 59.36L45.1323 59.292L45.2576 59.2597L45.3542 59.2311L45.5153 59.1845L45.7695 59.1058H45.8197H45.8698L46.1455 59.0199H46.1634L46.235 58.9948L46.6359 58.8552H46.6538L46.7505 58.8229L46.9546 58.7442L47.0691 58.7048L47.1801 58.6582L47.3663 58.5866L47.4666 58.5437H47.4845L47.5346 58.5222L47.8926 58.3683L47.9499 58.3432L48.1969 58.2286L48.2793 58.1928L48.3509 58.1606L48.5478 58.0675L48.7017 57.9923L48.802 57.9422L48.9237 57.8813L49.049 57.8169L49.0812 57.799L49.1278 57.7775L49.5323 57.5591L49.6433 57.4983L49.6755 57.4768H49.7042L49.8044 57.4195L49.8581 57.3909L49.962 57.3264L50.2699 57.1438L50.3809 57.0758L50.4704 57.0221L50.5563 56.9684L50.7031 56.8144L50.7783 56.7607L50.9071 56.6784L51.215 56.4743L51.3511 56.3812L51.4048 56.3418L51.4442 56.3168L52.0457 55.8764L52.1208 55.8191L52.1459 55.8012L52.2605 55.7082L52.4968 55.5256L52.7223 55.3358L52.8548 55.2284L52.9264 55.164L52.9873 55.1138L53.4634 54.6914L53.5064 54.652L53.5386 54.6233L53.5744 54.5911L53.7212 54.4443L53.9575 54.2224L54.0434 54.1329L54.1508 54.029L54.2045 53.9753L54.2618 53.918L54.3549 53.8214L54.4193 53.7533L54.6019 53.5564L54.7702 53.3774L54.8418 53.2951L54.8704 53.2664L54.9206 53.2127L55.1139 52.98L55.3574 52.6972L55.4254 52.6148L55.4504 52.5826L55.5328 52.486L55.7011 52.264L55.9087 52.0026L56.0161 51.8523L56.1235 51.7126L56.2631 51.5086L56.435 51.2687L56.5603 51.0789L56.6749 50.9107L56.793 50.7209L56.9327 50.5061L57.0687 50.277L57.1904 50.0765L57.2835 49.9082L57.3945 49.7184L57.5413 49.4428L57.6666 49.2136L57.7382 49.0668L57.8241 48.9057L57.9745 48.5835L58.0998 48.3222L58.1535 48.2004L58.2144 48.068L58.3719 47.6885L58.4936 47.402L58.5294 47.309L58.5724 47.2087L58.7335 46.7576L58.8445 46.4569V46.3924L58.8695 46.3244L59.0414 45.7659L59.1273 45.4902V45.458L59.1703 45.2897C59.2443 45.0295 59.3123 44.7646 59.3744 44.4949C59.4245 44.2801 59.471 44.0653 59.5104 43.8469C59.5713 43.539 59.625 43.2311 59.6715 42.9268C60.9834 35.3884 59.3619 27.6338 55.1395 21.2526C50.917 14.8715 44.4136 10.3473 36.9623 8.60752C29.5111 6.86776 21.6766 8.04423 15.0649 11.8958C8.4533 15.7473 3.56546 21.9821 1.40345 29.3219C2.70647 24.6283 4.86183 20.2144 7.76192 16.3007L7.81204 16.2327L8.32401 15.556L8.42426 15.4307L8.90043 14.8256L9.04006 14.6574L9.49475 14.1096L9.67018 13.9127L10.107 13.4114L10.3075 13.1895L10.7299 12.7276L10.9555 12.4877L11.3708 12.0617L11.6178 11.8111L12.0367 11.4029L12.3052 11.1452L12.7026 10.7657L12.9926 10.5007L13.3864 10.1427L13.6908 9.87418L14.0703 9.55554L14.3925 9.28345L14.7792 8.96839L15.1372 8.69629L15.5203 8.39555L15.8783 8.12345L16.2578 7.84062L16.6158 7.5721L16.9738 7.30358L17.3605 7.03865L17.7185 6.78445L18.1231 6.5052L18.4811 6.2689L18.8928 6.00754L19.2508 5.78199L19.6769 5.5278L20.0349 5.31656L20.4753 5.06595L20.8333 4.86903L21.3453 4.62558L21.7033 4.43941L22.1723 4.20311L22.5303 4.02768L23.0137 3.79855L23.3717 3.63744L23.8514 3.41189L24.2094 3.2651L24.7178 3.0467L25.0759 2.91065L25.5986 2.703L25.928 2.57411L26.4686 2.3772L26.7908 2.26264L27.3457 2.0693L27.6572 1.96548L28.23 1.78289L28.5308 1.69338L29.1215 1.51795L29.4115 1.43918L30.0201 1.27449L30.2958 1.20647L30.9259 1.04894L31.1837 0.991657L31.8389 0.848449L32.0752 0.798326L32.7554 0.665857L32.9667 0.630055L33.6827 0.504747L33.8581 0.479686L34.6136 0.368699L34.7389 0.350798L35.5444 0.250552H35.6089C38.7178 -0.095268 41.8568 -0.0724347 44.9604 0.318576H44.9998L45.8376 0.436723L45.9808 0.454624H46.0738L47.3878 0.683758L47.6993 0.741042L49.0096 1.0203L50.2627 1.35684Z"
            fill="url(#paint2_linear_1_101)" />
        <path fill-rule="evenodd" clip-rule="evenodd"
            d="M7.76192 16.3008C4.88894 20.2054 2.75459 24.6027 1.46431 29.2755C3.62632 21.9356 8.51416 15.7008 15.1258 11.8493C21.7374 7.99778 29.5719 6.82131 37.0232 8.56108C44.4744 10.3008 50.9779 14.8251 55.2003 21.2062C59.4227 27.5873 61.0442 35.342 59.7324 42.8803C60.2166 39.6009 59.8779 36.2525 58.7467 33.1364C57.6156 30.0204 55.7274 27.2345 53.2522 25.0293C51.4791 23.4586 49.4382 22.2192 47.2267 21.3704C47.0405 21.2952 46.1956 21.0123 45.7337 20.8548C45.2719 20.6973 44.8924 20.6114 44.4627 20.4968C44.0331 20.3822 43.6035 20.3106 43.1703 20.2462C35.618 18.8509 27.8184 20.4085 21.3813 24.5975C14.9443 28.7865 10.3612 35.287 8.57832 42.7572C6.79541 50.2275 7.9487 58.0971 11.8001 64.7416C15.6516 71.3862 21.9071 76.2983 29.2755 78.4641C23.0416 76.732 17.3214 73.5124 12.6064 69.0817C7.89144 64.6511 4.32263 59.142 2.20661 53.0277C0.0905844 46.9135 -0.509376 40.3769 0.458275 33.9797C1.42593 27.5824 3.93225 21.5157 7.76192 16.3008Z"
            fill="url(#paint3_linear_1_101)" />
        <path fill-rule="evenodd" clip-rule="evenodd"
            d="M50.5563 1.37476C59.9802 3.96906 68.1272 9.92581 73.4575 18.1191C78.7877 26.3123 80.9318 36.1743 79.4845 45.8411V45.9592C79.3377 46.9366 79.1479 47.9176 78.9224 48.8986C78.6968 49.8796 78.4354 50.8427 78.1383 51.7878C76.6795 56.0914 74.261 60.0068 71.0659 63.2379C67.8708 66.469 63.9827 68.9312 59.6957 70.4381C55.4087 71.9451 50.8352 72.4573 46.3211 71.9361C41.807 71.415 37.4705 69.874 33.6397 67.4298C28.7475 64.3069 24.8671 59.8308 22.4698 54.545C20.0726 49.2592 19.2615 43.391 20.1352 37.6531C19.9262 39.44 19.9648 41.2471 20.2497 43.0234L20.2712 43.1667V43.1989L20.2963 43.3457L20.3965 43.8505L20.4359 44.0581V44.1226L20.4717 44.3016L20.5755 44.7169L20.6292 44.9353L20.6579 45.0355L20.708 45.2396L20.8118 45.5976L20.8727 45.8089L20.9192 45.9449L20.9872 46.174L21.0911 46.464L21.1591 46.6609L21.2235 46.8292L21.313 47.0798L21.4133 47.3233L21.4777 47.4951L21.5672 47.6956L21.6782 47.9677L21.7713 48.1682L21.8358 48.315L21.9503 48.5477L22.0864 48.8377L22.1723 48.9953L22.2296 49.117L22.3728 49.3783L22.5375 49.6862L22.6091 49.8044L22.6592 49.8975L22.8382 50.1946L23.0244 50.5097L23.0817 50.5956L23.1211 50.6601L23.343 50.9966L23.5507 51.3117L23.5901 51.3654L23.6151 51.4047L23.9051 51.7986L24.1164 52.0886L24.1378 52.11C24.3204 52.3499 24.4959 52.5898 24.7071 52.8261L24.8933 53.0337L25.2871 53.4777L25.3157 53.5063L25.3479 53.5421L25.5771 53.7784L25.9065 54.1365L25.9637 54.1902L26.021 54.2474L26.2537 54.4658L26.5581 54.7558L26.644 54.8274L26.7263 54.9026L26.9555 55.0995L27.2383 55.343L27.3565 55.4361L27.4674 55.5292L27.6858 55.6974L27.9472 55.9015L28.1011 56.0125L28.2372 56.1163L28.4448 56.2595L28.6847 56.4314L28.8745 56.5567L29.0427 56.6712L29.2325 56.7858L29.4437 56.9254L29.6764 57.0615L29.8769 57.1868L30.0452 57.2799L30.2349 57.3909L30.507 57.5341L30.7398 57.663L30.883 57.7346L31.0477 57.8169L31.3699 57.9709L31.6312 58.0962L31.7494 58.1499L31.8819 58.2107L32.2614 58.3683L32.5478 58.49L32.6409 58.5222L32.7447 58.5652L33.1922 58.7263L33.4929 58.8373L33.5574 58.8588L33.629 58.8838L34.1839 59.0557L34.4632 59.1416H34.499C34.814 59.2347 35.1363 59.317 35.4585 59.3922C36.2257 59.5689 37.0028 59.6992 37.7856 59.7825C43.515 60.6417 49.3707 59.8225 54.6443 57.4239C59.918 55.0254 64.3837 51.1502 67.5015 46.2671C69.3434 43.3938 70.6757 40.2241 71.4397 36.8977C73.1134 29.6529 72.0355 22.0447 68.4153 15.55C64.7951 9.05523 58.8909 4.13724 51.8487 1.75068L50.5563 1.37476Z"
            fill="url(#paint4_linear_1_101)" />
        <path
            d="M24.3061 52.2927C23.923 51.8094 24.5675 50.1446 25.2012 47.0656C25.6308 44.9855 26.0318 43.2849 26.311 42.1464C25.3657 41.417 24.5541 40.529 23.9123 39.5221C17.1099 29.5225 22.1866 20.6221 23.9803 19.881C24.3993 18.7792 25.0323 17.7712 25.8428 16.9152C26.6533 16.0592 27.6252 15.3722 28.7026 14.8938C30.3277 14.0296 32.0707 13.4083 33.876 13.05C36.1637 12.4009 38.5206 12.0271 40.8968 11.9365C44.1011 11.8577 51.2473 13.6264 53.7856 14.5393C55.6975 15.2303 54.5482 17.5861 53.8716 18.696C54.5889 19.6316 55.1255 20.6928 55.454 21.8251C56.3419 24.4744 56.9685 24.8754 57.262 25.4268C57.5556 25.9781 58.2287 27.9866 57.8528 28.5953C57.2584 29.5583 57.3587 30.6969 57.7382 31.1515C58.4481 31.964 59.1126 32.815 59.7288 33.7007C60.5236 35.2258 61.9342 36.3071 61.5368 37.084C61.1394 37.8609 60.5737 38.158 59.156 38.9457C58.5975 39.2643 58.8445 39.9338 58.9125 40.3205C59.0148 40.6465 59.2072 40.9369 59.4674 41.1583C59.4137 41.1332 59.7216 42.0712 59.0163 42.508C58.7246 42.6585 58.4776 42.8833 58.3003 43.1596C58.3003 43.1596 59.2455 44.026 59.156 44.2337C58.8553 44.6803 58.5188 45.1017 58.1499 45.4939C57.7489 46.013 57.3515 46.346 57.8528 46.8902C58.354 47.4344 58.5473 48.9417 57.8528 49.5145C57.1582 50.0873 55.8514 51.4442 52.4287 51.0862C49.9978 50.8499 47.4164 51.9705 45.9843 53.1019C43.4388 55.1426 43.2204 58.2466 42.7621 59.6394C42.5402 60.2945 31.4701 61.3077 24.3061 52.2927Z"
            fill="white" />
        <path
            d="M31.5382 31.5847C31.5704 31.5596 31.6527 31.5847 31.7744 31.6778C31.377 32.3723 31.4164 33.1099 31.7923 34.055C32.4583 35.6411 33.9405 37.6138 34.6136 38.0971C35.2866 38.5804 35.5444 39.2141 36.1065 39.7512C36.5075 40.1307 37.7821 40.3956 38.4838 39.6617C38.6468 39.4927 38.7942 39.3094 38.9241 39.1139C39.0996 39.7619 39.8693 42.5903 40.1414 43.1631C40.4457 43.8147 41.2441 46.4176 42.8409 47.5417C44.205 48.5048 51.1685 51.0933 52.7724 51.122C47.4021 51.0826 45.0034 53.4634 43.9794 55.7225C42.5473 53.3131 38.7917 41.7597 38.7058 41.6093C38.6198 41.4589 38.516 41.8134 37.4097 41.8241C36.017 41.8241 35.2437 40.5209 34.9429 40.077C34.6422 39.633 30.6825 36.7653 30.5249 35.4513C30.3674 34.1374 31.1765 31.8819 31.5382 31.5847Z"
            fill="#BEBBBB" />
        <path
            d="M39.0888 33.1851C38.6126 32.726 38.18 32.2238 37.7964 31.685C37.2916 30.9295 34.9322 29.1072 33.2316 30.2529C31.531 31.3985 31.1264 32.4655 31.7995 34.0515C32.4726 35.6375 33.9476 37.6102 34.6207 38.0936C35.2938 38.5769 35.5516 39.2106 36.1137 39.7476C36.5147 40.1271 37.7892 40.3921 38.4909 39.6581C38.7396 39.4146 38.9443 39.13 39.096 38.8168L39.0888 33.1851Z"
            fill="white" />
        <path
            d="M56.7393 37.3059C56.7393 37.3059 56.3813 37.4133 56.4243 38.5411C56.4457 38.9815 56.9613 39.2858 57.5449 39.3073C57.7987 39.3054 58.0495 39.3631 58.277 39.4756C58.5045 39.5882 58.7026 39.7524 58.8552 39.9553C58.8552 39.9553 58.6368 39.2392 59.1166 38.9922C59.4925 38.7989 60.9246 37.936 61.2647 37.4885C61.458 37.2343 60.4055 38.0685 59.7467 38.0578C58.243 38.0363 57.5699 38.1723 57.4625 38.4802C57.4088 38.6413 57.4625 38.8382 57.1045 38.8382C56.3634 38.8275 56.6176 37.8394 56.7393 37.3059Z"
            fill="#BEBBBB" />
        <path
            d="M56.7501 28.8386C56.7501 28.8386 51.1399 29.3184 50.8212 32.0608C52.0242 32.1826 53.5995 33.45 54.1114 33.3032C55.4397 32.9201 56.2596 29.7802 56.5925 29.5833C56.9255 29.3864 57.3873 28.6346 56.7501 28.8386Z"
            fill="#BEBBBB" />
        <path
            d="M54.5733 30.9223C54.5733 30.9223 54.9528 32.4331 54.0864 33.3425C52.5039 33.1993 51.9024 32.3186 50.832 32.0787C51.5731 32.247 53.6532 30.8041 54.5733 30.9223Z"
            fill="url(#paint5_linear_1_101)" />
        <path
            d="M54.6986 31.3304C54.6986 31.3304 54.6986 31.6885 54.6556 31.6885C52.4681 31.5703 51.3368 32.8091 50.832 32.068C51.1005 32.469 52.4932 31.4558 54.6986 31.3304Z"
            fill="#BEBBBB" />
        <path
            d="M50.832 32.0788C51.4263 32.5908 52.665 31.309 54.695 31.4272C54.9062 31.4272 54.9743 30.6216 54.763 30.4211C54.3477 30.4534 51.6912 30.994 50.832 32.0788Z"
            fill="url(#paint6_linear_1_101)" />
        <path
            d="M58.311 43.1595C58.4935 42.9229 58.7108 42.7152 58.9555 42.5437C59.1376 42.4502 59.2863 42.3026 59.3811 42.1212C59.476 41.9398 59.5124 41.7334 59.4853 41.5305C59.5032 41.9959 57.8026 41.9387 57.1904 42.3504C56.67 42.7418 56.0493 42.9777 55.4003 43.0306C55.2034 42.9948 55.2535 42.9232 55.0172 42.9698C54.7809 43.0163 54.9349 43.1452 55.4648 43.1882C56.2417 43.2454 57.6236 42.7406 58.311 43.1595Z"
            fill="#BEBBBB" />
        <path
            d="M59.1667 44.2479C59.1667 44.2479 57.8492 44.6417 57.6594 45.1322C57.3551 45.9163 57.3014 46.3531 57.706 46.7254C57.6472 46.5929 57.6285 46.446 57.652 46.3029C57.6755 46.1598 57.7403 46.0267 57.8384 45.9199C58.3194 45.394 58.7632 44.8353 59.1667 44.2479Z"
            fill="#BEBBBB" />
    </g>
    <defs>
        <linearGradient id="paint0_linear_1_101" x1="0.320354" y1="30.9318" x2="79.1808" y2="49.1527"
            gradientUnits="userSpaceOnUse">
            <stop stop-color="#721537" />
            <stop offset="1" stop-color="#E7227B" />
        </linearGradient>
        <linearGradient id="paint1_linear_1_101" x1="-11.9964" y1="33.1569" x2="78.0022" y2="53.9512"
            gradientUnits="userSpaceOnUse">
            <stop stop-color="#51160D" />
            <stop offset="1" stop-color="#E00914" />
        </linearGradient>
        <linearGradient id="paint2_linear_1_101" x1="26.9477" y1="64.5769" x2="45.7186" y2="1.09051"
            gradientUnits="userSpaceOnUse">
            <stop stop-color="#01487A" />
            <stop offset="1" stop-color="#50C2F0" />
        </linearGradient>
        <linearGradient id="paint3_linear_1_101" x1="68.0836" y1="47.4109" x2="-2.57003" y2="41.5152"
            gradientUnits="userSpaceOnUse">
            <stop stop-color="#01487A" />
            <stop offset="1" stop-color="#50C2F0" />
        </linearGradient>
        <linearGradient id="paint4_linear_1_101" x1="0.571686" y1="36.8776" x2="74.7756" y2="35.5954"
            gradientUnits="userSpaceOnUse">
            <stop stop-color="#51160D" />
            <stop offset="1" stop-color="#E00914" />
        </linearGradient>
        <linearGradient id="paint5_linear_1_101" x1="54.3931" y1="30.8876" x2="50.5623" y2="30.9643"
            gradientUnits="userSpaceOnUse">
            <stop stop-color="white" />
            <stop offset="1" stop-color="#F6FBFD" />
        </linearGradient>
        <linearGradient id="paint6_linear_1_101" x1="54.6339" y1="30.034" x2="50.5453" y2="30.1158"
            gradientUnits="userSpaceOnUse">
            <stop stop-color="white" />
            <stop offset="1" stop-color="#F6FBFD" />
        </linearGradient>
        <clipPath id="clip0_1_101">
            <rect width="79.9356" height="80" fill="white" />
        </clipPath>
    </defs>
</svg>