<svg width="385" height="80" fill="none" xmlns="http://www.w3.org/2000/svg">
    <g clip-path="url(#prefix__clip0_1_49)" fill-rule="evenodd" clip-rule="evenodd">
        <path
            d="M42.888 73.825l1.614-.113a34.5 34.5 0 0016.114-5.815 34.433 34.433 0 0011.32-12.844 34.729 34.729 0 01-12.741 10.961 34.787 34.787 0 01-16.404 3.702v4.109h.097zm0 6.042V75.63c.614 0 1.21 0 1.824-.13a36.242 36.242 0 0018.731-7.32 36.162 36.162 0 0011.93-16.172 36.405 36.405 0 002.146-10.07 38.494 38.494 0 01-10.069 25.56 38.605 38.605 0 01-24.562 12.37zM17.94 54.78l.403.484a33.878 33.878 0 0015.557 12.6 27.374 27.374 0 008.988 1.853v4.109c-1.966.08-3.936 0-5.89-.242a33.835 33.835 0 01-7.552-1.869A34.282 34.282 0 0117.23 63.98a39.047 39.047 0 01-1.937-2.063 25.017 25.017 0 01-1.532-1.933l4.195-5.205h-.016zm24.948 20.85v4.238a38.62 38.62 0 01-18.72-2.729A38.564 38.564 0 019 65.848v-.112l3.453-4.286c.436.548.872 1.112 1.34 1.611.468.5 1.34 1.483 2.05 2.176a36.283 36.283 0 0012.909 8.153 35.852 35.852 0 007.956 1.95c2.048.268 4.116.365 6.18.29z"
            fill="url(#prefix__paint0_linear_1_49)" />
        <path
            d="M59.53 28.478l4.26-5.285c-.5-.661-1.016-1.306-1.613-1.918-.597-.612-1.259-1.418-1.937-2.078a34.284 34.284 0 00-12.215-7.735 34.47 34.47 0 00-23.715-.041A34.408 34.408 0 006.197 26.705 31.579 31.579 0 0122.9 14.55a31.626 31.626 0 0120.654.763 33.876 33.876 0 0115.912 13.165h.064zm5.422-6.736a18.683 18.683 0 00-1.339-1.61c-.468-.5-1.34-1.483-2.033-2.176a36.494 36.494 0 00-12.91-8.153 36.295 36.295 0 00-27.684 1.068 36.211 36.211 0 00-18.84 20.282A35.403 35.403 0 000 41.078 38.416 38.416 0 014.588 23.25a38.481 38.481 0 0112.36-13.658 38.573 38.573 0 0135.58-3.962 38.727 38.727 0 0115.926 11.602l-3.501 4.511z"
            fill="url(#prefix__paint1_linear_1_49)" />
        <path
            d="M38.415 19.02a22.425 22.425 0 0111.087 2.925 22.383 22.383 0 018.183 8.021 22.34 22.34 0 01.402 22.134 5.176 5.176 0 00-2.534-2.578 10.245 10.245 0 00-3.55-.66c-1.71-.242-6.358-1.612-7.149-3.707a15.046 15.046 0 01-.145-3.98c.001-1.451.315-2.885.92-4.205 2.856-4.27 2.63-11.134-3.002-12.987a9.454 9.454 0 00-8.762.983 8.397 8.397 0 00-3.325 5.72c-.193.967.275 1.337.178 2.014a5.607 5.607 0 01-.646 1.321c-.129.258-.29.564-.435.806-.135.2-.254.41-.355.628-.242.677.129 1 .613 1.048h.549a4.83 4.83 0 01-.291 1.08c-.21.386.097.773.597.885a.645.645 0 00-.258.903c.161.193.42.258.387 1.16-.032.902-.177 1.611.775 1.917.917.121 1.85.061 2.743-.177 0 .79-.097 1.611-.21 2.353-.435 2.143-5.47 3.931-7.326 4.189a10.244 10.244 0 00-3.55.66 6.015 6.015 0 00-3.228 4.738 22.343 22.343 0 016.684-31.987 22.424 22.424 0 0111.632-3.253l.016.049z"
            fill="url(#prefix__paint2_radial_1_49)" />
    </g>
    <path
        d="M96.192 62.596a2.11 2.11 0 00-.98-1.585c-.574-.377-1.278-.565-2.11-.565-.61 0-1.143.099-1.6.296-.452.197-.806.468-1.062.813-.25.345-.376.737-.376 1.176 0 .367.087.683.262.947.18.26.408.477.686.652.277.17.569.311.873.423.305.108.585.195.84.263l1.398.376c.358.094.757.224 1.196.39.443.165.867.392 1.27.678.407.282.743.645 1.008 1.089.264.443.396.987.396 1.633 0 .743-.195 1.415-.584 2.015-.386.6-.95 1.078-1.694 1.432-.739.354-1.637.53-2.694.53-.986 0-1.84-.159-2.56-.477-.717-.318-1.282-.761-1.694-1.33-.407-.569-.638-1.23-.692-1.982h1.72c.045.52.22.95.524 1.29.31.336.7.587 1.17.752.474.162.985.242 1.532.242.636 0 1.207-.103 1.713-.309.506-.21.907-.501 1.203-.873a2.07 2.07 0 00.443-1.317c0-.457-.127-.829-.383-1.116a2.81 2.81 0 00-1.007-.699c-.417-.179-.867-.336-1.351-.47l-1.694-.484c-1.075-.309-1.926-.75-2.553-1.323-.627-.574-.94-1.324-.94-2.252 0-.77.208-1.442.624-2.015.421-.578.986-1.026 1.694-1.344.712-.323 1.507-.484 2.385-.484.887 0 1.675.159 2.365.477.69.314 1.237.744 1.64 1.29.407.547.623 1.167.645 1.861h-1.613zm5.347 14.192c-.268 0-.508-.022-.719-.067a1.89 1.89 0 01-.436-.121l.403-1.398c.385.099.725.135 1.021.108.296-.027.558-.16.786-.397.233-.233.446-.611.639-1.135l.295-.807-3.816-10.375h1.72l2.849 8.225h.107l2.849-8.224h1.721l-4.381 11.826c-.198.533-.442.974-.733 1.323a2.738 2.738 0 01-1.015.787c-.38.17-.81.255-1.29.255zm16.823-11.88l-1.425.403a2.675 2.675 0 00-.396-.692 1.937 1.937 0 00-.699-.564c-.296-.148-.674-.222-1.136-.222-.631 0-1.158.145-1.579.437-.417.286-.625.651-.625 1.095 0 .394.144.706.43.934.287.228.735.419 1.344.571l1.532.376c.923.224 1.611.567 2.063 1.029.452.456.679 1.045.679 1.767 0 .591-.171 1.12-.511 1.585-.336.466-.806.834-1.411 1.103-.605.268-1.308.403-2.11.403-1.053 0-1.924-.229-2.614-.686-.69-.457-1.127-1.124-1.31-2.002l1.505-.376c.143.555.414.972.813 1.25.403.277.93.416 1.579.416.739 0 1.326-.157 1.761-.47.439-.318.658-.7.658-1.143a1.2 1.2 0 00-.376-.9c-.251-.246-.636-.43-1.156-.551l-1.72-.403c-.945-.224-1.64-.571-2.083-1.042-.439-.475-.659-1.068-.659-1.78 0-.583.164-1.098.491-1.546.331-.448.782-.8 1.351-1.055.573-.255 1.222-.383 1.948-.383 1.022 0 1.823.224 2.406.672a3.626 3.626 0 011.25 1.774zm7.063-2.312v1.344h-5.348v-1.343h5.348zm-3.789-2.472h1.585v9.837c0 .448.065.784.195 1.008.135.22.305.367.511.444.211.071.432.107.665.107.175 0 .318-.009.43-.027l.269-.054.323 1.425c-.108.04-.258.08-.451.12a3.304 3.304 0 01-.732.068c-.448 0-.887-.096-1.317-.289a2.613 2.613 0 01-1.062-.88c-.277-.394-.416-.892-.416-1.492V60.124zm10.391 13.009c-.994 0-1.852-.22-2.573-.659a4.42 4.42 0 01-1.66-1.854c-.385-.798-.578-1.725-.578-2.782s.193-1.99.578-2.796c.39-.81.932-1.442 1.626-1.895.699-.456 1.514-.685 2.446-.685.538 0 1.068.09 1.593.269.524.18 1.001.47 1.431.873.43.4.773.928 1.028 1.586.255.659.383 1.47.383 2.433v.672h-7.956v-1.371h6.343c0-.583-.116-1.102-.349-1.56a2.64 2.64 0 00-.981-1.08c-.421-.265-.919-.397-1.492-.397-.632 0-1.178.156-1.639.47a3.09 3.09 0 00-1.055 1.21 3.545 3.545 0 00-.37 1.599v.914c0 .78.134 1.44.403 1.982.273.537.652.947 1.136 1.23.484.277 1.046.416 1.686.416a3.43 3.43 0 001.129-.175c.341-.12.634-.3.88-.537.247-.242.437-.542.572-.9l1.532.43c-.162.52-.433.976-.813 1.37-.381.39-.852.695-1.411.914-.56.215-1.19.323-1.889.323zm-.914-11.934l-2.096-3.118h1.855l1.639 3.118h-1.398zm7.6 11.719V62.596h1.532v1.613h.135a2.595 2.595 0 011.041-1.283c.48-.31 1.055-.464 1.727-.464.681 0 1.248.155 1.7.464.457.304.813.732 1.069 1.283h.107a3.008 3.008 0 011.189-1.27c.529-.318 1.163-.477 1.902-.477.923 0 1.678.289 2.264.867.587.573.881 1.467.881 2.681v6.908h-1.586V66.01c0-.762-.208-1.306-.625-1.633a2.314 2.314 0 00-1.472-.49c-.725 0-1.287.22-1.686.658-.399.435-.598.986-.598 1.653v6.72h-1.613v-7.07c0-.586-.19-1.059-.571-1.417-.381-.363-.871-.544-1.472-.544-.412 0-.797.11-1.155.329-.354.22-.641.524-.86.914-.215.385-.323.83-.323 1.337v6.45h-1.586zm20.774.215c-.995 0-1.853-.22-2.574-.659a4.42 4.42 0 01-1.66-1.854c-.385-.798-.578-1.725-.578-2.782s.193-1.99.578-2.796c.39-.81.932-1.442 1.626-1.895.699-.456 1.515-.685 2.446-.685.538 0 1.069.09 1.593.269.524.18 1.001.47 1.431.873.43.4.773.928 1.028 1.586.255.659.383 1.47.383 2.433v.672h-7.956v-1.371h6.343c0-.583-.116-1.102-.349-1.56a2.627 2.627 0 00-.981-1.08c-.421-.265-.918-.397-1.492-.397-.631 0-1.178.156-1.639.47a3.09 3.09 0 00-1.055 1.21 3.545 3.545 0 00-.37 1.599v.914c0 .78.135 1.44.403 1.982.274.537.652.947 1.136 1.23.484.277 1.046.416 1.687.416.416 0 .792-.058 1.128-.175.341-.12.634-.3.881-.537.246-.242.436-.542.571-.9l1.532.43c-.161.52-.432.976-.813 1.37-.381.39-.851.695-1.411.914-.56.215-1.19.323-1.888.323zm15.905 0c-.861 0-1.62-.218-2.278-.652-.659-.44-1.174-1.057-1.546-1.855-.372-.802-.558-1.749-.558-2.842 0-1.084.186-2.025.558-2.822.372-.798.889-1.414 1.552-1.848.663-.435 1.429-.652 2.298-.652.672 0 1.203.112 1.593.336.394.22.694.47.9.753.211.277.374.506.491.685h.134v-5.08h1.586v13.762h-1.532v-1.586h-.188c-.117.188-.282.425-.497.712-.215.282-.522.535-.921.76-.399.219-.929.329-1.592.329zm.215-1.425c.636 0 1.173-.166 1.612-.497.439-.336.773-.8 1.001-1.391.229-.596.343-1.283.343-2.063 0-.77-.112-1.445-.336-2.023-.224-.582-.555-1.034-.994-1.357-.439-.327-.981-.49-1.626-.49-.672 0-1.232.172-1.68.517-.444.34-.777.804-1.001 1.391-.22.582-.33 1.236-.33 1.962 0 .735.112 1.402.336 2.002.229.596.565 1.071 1.008 1.425.448.35 1.004.524 1.667.524zm9.01-12.552v4.73h-1.478v-4.73h1.478zm2.824 13.762V62.596h1.586v10.322h-1.586zm.807-12.042c-.309 0-.576-.105-.8-.316a1.016 1.016 0 01-.329-.759c0-.296.11-.549.329-.76.224-.21.491-.315.8-.315.309 0 .573.105.793.316.224.21.336.463.336.76 0 .295-.112.548-.336.758-.22.211-.484.316-.793.316zm5.269 5.833v6.209h-1.585V62.596h1.532v1.613h.134a2.946 2.946 0 011.102-1.263c.493-.323 1.129-.484 1.908-.484.699 0 1.311.143 1.835.43.524.282.932.712 1.223 1.29.291.574.437 1.3.437 2.177v6.559h-1.586v-6.451c0-.81-.211-1.442-.632-1.895-.421-.457-.999-.685-1.734-.685-.506 0-.958.11-1.357.329a2.36 2.36 0 00-.934.96c-.228.422-.343.933-.343 1.533zm14.079-4.113v1.344h-5.563v-1.343h5.563zm-3.897 10.322V61.172c0-.591.139-1.084.417-1.478.277-.395.638-.69 1.082-.887a3.416 3.416 0 011.404-.296c.39 0 .708.031.954.094.247.063.43.121.551.175l-.457 1.37a7.241 7.241 0 00-.336-.1 2.036 2.036 0 00-.551-.06c-.524 0-.902.131-1.135.396-.229.264-.343.652-.343 1.162v11.37h-1.586zm9.888.215c-.932 0-1.749-.222-2.453-.666-.699-.443-1.245-1.064-1.639-1.86-.39-.798-.585-1.73-.585-2.796 0-1.075.195-2.014.585-2.816.394-.802.94-1.424 1.639-1.868.704-.443 1.521-.665 2.453-.665.932 0 1.747.222 2.446.665.703.444 1.25 1.066 1.639 1.868.395.802.592 1.74.592 2.816 0 1.066-.197 1.998-.592 2.795-.389.797-.936 1.418-1.639 1.861-.699.444-1.514.666-2.446.666zm0-1.425c.708 0 1.29-.181 1.747-.544.457-.363.795-.84 1.015-1.431a5.491 5.491 0 00.329-1.922c0-.69-.11-1.333-.329-1.929a3.255 3.255 0 00-1.015-1.444c-.457-.368-1.039-.551-1.747-.551-.708 0-1.29.183-1.747.55a3.255 3.255 0 00-1.015 1.445 5.547 5.547 0 00-.329 1.929c0 .69.11 1.33.329 1.922.22.59.558 1.068 1.015 1.43.457.364 1.039.545 1.747.545zm7.097 1.21V62.596h1.532v1.56h.108c.188-.511.528-.926 1.021-1.244a3.007 3.007 0 011.667-.477c.116 0 .262.002.436.007.175.004.307.011.397.02v1.613a4.696 4.696 0 00-.37-.06 3.627 3.627 0 00-.598-.048c-.501 0-.949.106-1.344.316a2.39 2.39 0 00-.927.86 2.318 2.318 0 00-.336 1.243v6.532h-1.586zm7.041 0V62.596h1.532v1.613h.134a2.591 2.591 0 011.042-1.283c.479-.31 1.055-.464 1.727-.464.68 0 1.247.155 1.7.464.457.304.813.732 1.068 1.283h.108c.264-.533.66-.956 1.189-1.27.528-.318 1.162-.477 1.901-.477.923 0 1.678.289 2.265.867.587.573.88 1.467.88 2.681v6.908h-1.586V66.01c0-.762-.208-1.306-.625-1.633a2.311 2.311 0 00-1.471-.49c-.726 0-1.288.22-1.687.658-.398.435-.598.986-.598 1.653v6.72h-1.612v-7.07c0-.586-.191-1.059-.572-1.417-.38-.363-.871-.544-1.471-.544-.412 0-.797.11-1.156.329a2.49 2.49 0 00-.86.914c-.215.385-.323.83-.323 1.337v6.45h-1.585zm19.483.241a4.197 4.197 0 01-1.781-.369 3.06 3.06 0 01-1.27-1.082c-.313-.475-.47-1.048-.47-1.72 0-.591.116-1.07.349-1.438.233-.372.545-.663.934-.874.39-.21.82-.367 1.29-.47.475-.108.952-.193 1.432-.255.627-.08 1.135-.141 1.525-.182.394-.044.681-.118.86-.222.184-.102.276-.282.276-.537v-.054c0-.663-.182-1.178-.545-1.545-.358-.368-.902-.551-1.633-.551-.757 0-1.35.165-1.78.497-.43.332-.733.685-.907 1.062l-1.505-.538c.268-.627.627-1.115 1.075-1.465.452-.354.945-.6 1.478-.739a6.136 6.136 0 011.586-.215c.331 0 .712.04 1.142.121.435.076.853.235 1.257.477.407.242.745.607 1.014 1.095.269.489.403 1.143.403 1.963v6.8h-1.585V71.52h-.081c-.108.224-.287.464-.538.719-.25.255-.584.473-1.001.652-.416.179-.925.268-1.525.268zm.242-1.424c.627 0 1.156-.123 1.586-.37.434-.246.761-.564.981-.954.224-.39.336-.8.336-1.23v-1.45c-.068.08-.215.154-.444.22a7.518 7.518 0 01-.779.169 36.208 36.208 0 01-1.519.201 6.066 6.066 0 00-1.156.263c-.354.116-.64.293-.86.53-.215.233-.322.551-.322.955 0 .55.203.967.611 1.25.412.277.934.416 1.566.416zm11.871-9.139v1.344h-5.348v-1.343h5.348zm-3.789-2.472h1.585v9.837c0 .448.065.784.195 1.008.135.22.305.367.511.444.211.071.432.107.665.107.175 0 .318-.009.43-.027l.269-.054.323 1.425c-.108.04-.258.08-.451.12a3.304 3.304 0 01-.732.068c-.448 0-.887-.096-1.317-.289a2.613 2.613 0 01-1.062-.88c-.277-.394-.416-.892-.416-1.492V60.124zm6.175 12.794V62.596h1.586v10.322h-1.586zm.806-12.042c-.309 0-.575-.105-.799-.316-.22-.21-.33-.463-.33-.759s.11-.549.33-.76c.224-.21.49-.315.799-.315.309 0 .574.105.793.316.224.21.336.463.336.76 0 .295-.112.548-.336.758-.219.211-.484.316-.793.316zm7.877 12.257c-.932 0-1.749-.222-2.452-.666-.699-.443-1.246-1.064-1.64-1.86-.39-.798-.585-1.73-.585-2.796 0-1.075.195-2.014.585-2.816.394-.802.941-1.424 1.64-1.868.703-.443 1.52-.665 2.452-.665.932 0 1.747.222 2.446.665.703.444 1.25 1.066 1.64 1.868.394.802.591 1.74.591 2.816 0 1.066-.197 1.998-.591 2.795-.39.797-.937 1.418-1.64 1.861-.699.444-1.514.666-2.446.666zm0-1.425c.708 0 1.29-.181 1.747-.544.457-.363.795-.84 1.015-1.431a5.491 5.491 0 00.329-1.922c0-.69-.11-1.333-.329-1.929a3.255 3.255 0 00-1.015-1.444c-.457-.368-1.039-.551-1.747-.551-.708 0-1.29.183-1.747.55a3.255 3.255 0 00-1.015 1.445 5.547 5.547 0 00-.329 1.929c0 .69.11 1.33.329 1.922.22.59.558 1.068 1.015 1.43.457.364 1.039.545 1.747.545zm8.683-5v6.21h-1.585V62.596h1.532v1.613h.134a2.946 2.946 0 011.102-1.263c.493-.323 1.129-.484 1.908-.484.699 0 1.311.143 1.835.43.524.282.932.712 1.223 1.29.291.574.436 1.3.436 2.177v6.559h-1.585v-6.451c0-.81-.211-1.442-.632-1.895-.421-.457-.999-.685-1.734-.685-.506 0-.958.11-1.357.329a2.36 2.36 0 00-.934.96c-.228.422-.343.933-.343 1.533zm14.805 6.21V62.596h1.532v1.613h.135a2.595 2.595 0 011.041-1.283c.479-.31 1.055-.464 1.727-.464.681 0 1.248.155 1.7.464.457.304.813.732 1.068 1.283h.108a3.008 3.008 0 011.189-1.27c.529-.318 1.163-.477 1.902-.477.923 0 1.678.289 2.264.867.587.573.881 1.467.881 2.681v6.908h-1.586V66.01c0-.762-.208-1.306-.625-1.633a2.314 2.314 0 00-1.472-.49c-.725 0-1.288.22-1.686.658-.399.435-.598.986-.598 1.653v6.72h-1.613v-7.07c0-.586-.19-1.059-.571-1.417-.381-.363-.871-.544-1.472-.544-.412 0-.797.11-1.155.329-.354.22-.641.524-.861.914-.215.385-.322.83-.322 1.337v6.45h-1.586zm20.773.215c-.994 0-1.852-.22-2.573-.659a4.42 4.42 0 01-1.66-1.854c-.385-.798-.578-1.725-.578-2.782s.193-1.99.578-2.796c.39-.81.932-1.442 1.626-1.895.699-.456 1.514-.685 2.446-.685.538 0 1.069.09 1.593.269.524.18 1.001.47 1.431.873.43.4.773.928 1.028 1.586.255.659.383 1.47.383 2.433v.672h-7.956v-1.371h6.343c0-.583-.116-1.102-.349-1.56a2.64 2.64 0 00-.981-1.08c-.421-.265-.918-.397-1.492-.397-.631 0-1.178.156-1.639.47a3.09 3.09 0 00-1.055 1.21 3.545 3.545 0 00-.37 1.599v.914c0 .78.134 1.44.403 1.982.274.537.652.947 1.136 1.23.484.277 1.046.416 1.686.416a3.43 3.43 0 001.129-.175c.341-.12.634-.3.881-.537.246-.242.436-.542.571-.9l1.532.43c-.162.52-.433.976-.813 1.37-.381.39-.851.695-1.411.914-.56.215-1.19.323-1.889.323zm-.967-11.934l1.639-3.118h1.855l-2.097 3.118h-1.397zm11.551 11.934c-.86 0-1.62-.218-2.278-.652-.659-.44-1.174-1.057-1.546-1.855-.372-.802-.557-1.749-.557-2.842 0-1.084.185-2.025.557-2.822.372-.798.889-1.414 1.552-1.848.663-.435 1.429-.652 2.299-.652.671 0 1.202.112 1.592.336.394.22.694.47.9.753.211.277.375.506.491.685h.134v-5.08h1.586v13.762h-1.532v-1.586h-.188a9.99 9.99 0 01-.497.712c-.215.282-.522.535-.921.76-.399.219-.929.329-1.592.329zm.215-1.425c.636 0 1.173-.166 1.612-.497.439-.336.773-.8 1.002-1.391.228-.596.342-1.283.342-2.063 0-.77-.112-1.445-.336-2.023-.224-.582-.555-1.034-.994-1.357-.439-.327-.981-.49-1.626-.49-.672 0-1.232.172-1.68.517-.444.34-.777.804-1.001 1.391-.22.582-.33 1.236-.33 1.962 0 .735.112 1.402.336 2.002.229.596.565 1.071 1.008 1.425.448.35 1.004.524 1.667.524zm7.64 1.21V62.596h1.586v10.322h-1.586zm.806-12.042c-.309 0-.576-.105-.8-.316a1.016 1.016 0 01-.329-.759c0-.296.11-.549.329-.76.224-.21.491-.315.8-.315.309 0 .573.105.793.316.224.21.336.463.336.76 0 .295-.112.548-.336.758-.22.211-.484.316-.793.316zm7.877 12.257c-.968 0-1.801-.229-2.5-.686-.698-.457-1.236-1.086-1.612-1.888-.377-.802-.565-1.718-.565-2.748 0-1.048.193-1.974.578-2.775.39-.807.932-1.436 1.626-1.889.699-.456 1.514-.685 2.446-.685.726 0 1.38.134 1.962.403.583.269 1.06.645 1.431 1.13.372.483.603 1.047.693 1.692h-1.586c-.121-.47-.39-.886-.807-1.25-.412-.367-.967-.55-1.666-.55-.618 0-1.16.16-1.626.483-.462.319-.822.769-1.082 1.351-.255.578-.383 1.257-.383 2.036 0 .797.125 1.492.376 2.083.256.591.614 1.05 1.075 1.378.466.327 1.013.49 1.64.49.412 0 .786-.072 1.122-.215.336-.143.621-.35.854-.618.232-.269.398-.591.497-.968h1.586a3.679 3.679 0 01-.666 1.647 3.713 3.713 0 01-1.391 1.155c-.573.282-1.24.424-2.002.424zm9.414.026a4.197 4.197 0 01-1.781-.369 3.06 3.06 0 01-1.27-1.082c-.313-.475-.47-1.048-.47-1.72 0-.591.116-1.07.349-1.438.233-.372.545-.663.934-.874.39-.21.82-.367 1.291-.47.474-.108.951-.193 1.431-.255.627-.08 1.135-.141 1.525-.182.394-.044.681-.118.86-.222.184-.102.276-.282.276-.537v-.054c0-.663-.182-1.178-.545-1.545-.358-.368-.902-.551-1.632-.551-.757 0-1.351.165-1.781.497-.43.332-.732.685-.907 1.062l-1.505-.538c.268-.627.627-1.115 1.075-1.465.452-.354.945-.6 1.478-.739a6.142 6.142 0 011.586-.215c.331 0 .712.04 1.142.121.435.076.854.235 1.257.477.407.242.746.607 1.014 1.095.269.489.404 1.143.404 1.963v6.8h-1.586V71.52h-.081c-.107.224-.287.464-.537.719-.251.255-.585.473-1.002.652-.416.179-.925.268-1.525.268zm.242-1.424c.627 0 1.156-.123 1.586-.37.434-.246.761-.564.981-.954.224-.39.336-.8.336-1.23v-1.45c-.067.08-.215.154-.444.22a7.518 7.518 0 01-.779.169 35.482 35.482 0 01-1.519.201 6.066 6.066 0 00-1.156.263 2 2 0 00-.86.53c-.215.233-.322.551-.322.955 0 .55.204.967.611 1.25.412.277.934.416 1.566.416zm8.969-12.579v13.762h-1.586V59.156h1.586zM90.008 49l7.463-38.119 12.171 27.556 12.606-27.556L128.954 49h-5.488l-3.422-21.402L109.55 50.63 99.354 27.575 95.542 49h-5.534zm66.042-30.426h-14.214v8.52h13.801v5.028h-13.801v11.85h14.214V49h-19.564V13.545h19.564v5.029zM163.077 49V13.545h7.44c3.567 0 6.384.352 8.451 1.056 2.219.689 4.232 1.86 6.039 3.513 3.659 3.338 5.488 7.724 5.488 13.158 0 5.45-1.906 9.86-5.718 13.227-1.913 1.684-3.919 2.855-6.016 3.514-1.96.658-4.738.987-8.336.987h-7.348zm5.35-5.029h2.412c2.403 0 4.401-.252 5.993-.758a12.167 12.167 0 004.317-2.549c2.633-2.403 3.95-5.534 3.95-9.392 0-3.888-1.302-7.042-3.904-9.46-2.342-2.159-5.794-3.238-10.356-3.238h-2.412V43.97zm34.17-30.426V49h-5.351V13.545h5.351zm29.347 26.844h-15.179L212.815 49h-5.763l17.543-37.683L241.519 49h-5.855l-3.72-8.611zm-2.182-5.03l-5.258-12.055-5.512 12.056h10.77zm21.563-21.814V43.97h10.425V49h-15.776V13.545h5.351zm12.262 17.567c0-4.991 1.829-9.277 5.488-12.86 3.644-3.582 8.022-5.373 13.135-5.373 5.052 0 9.384 1.806 12.997 5.42 3.628 3.612 5.442 7.952 5.442 13.02 0 5.097-1.821 9.422-5.465 12.973-3.659 3.567-8.075 5.351-13.25 5.351-4.577 0-8.687-1.584-12.331-4.753-4.011-3.506-6.016-8.099-6.016-13.778zm5.396.069c0 3.919 1.317 7.141 3.95 9.667 2.618 2.526 5.641 3.789 9.07 3.789 3.72 0 6.859-1.286 9.415-3.858 2.557-2.602 3.835-5.771 3.835-9.507 0-3.78-1.263-6.95-3.789-9.506-2.51-2.572-5.618-3.858-9.323-3.858-3.689 0-6.805 1.286-9.346 3.858-2.541 2.54-3.812 5.68-3.812 9.415zm56.627-.643h14.651v1.17c0 2.665-.314 5.022-.942 7.073-.612 1.899-1.645 3.675-3.1 5.328-3.291 3.705-7.478 5.557-12.56 5.557-4.96 0-9.209-1.791-12.745-5.373-3.536-3.598-5.305-7.915-5.305-12.952 0-5.143 1.799-9.506 5.397-13.089 3.597-3.597 7.976-5.396 13.135-5.396 2.771 0 5.358.566 7.761 1.7 2.297 1.132 4.555 2.97 6.774 5.51l-3.811 3.652c-2.909-3.874-6.453-5.81-10.632-5.81-3.751 0-6.897 1.293-9.438 3.88-2.541 2.542-3.812 5.726-3.812 9.553 0 3.95 1.416 7.203 4.248 9.76 2.648 2.373 5.519 3.559 8.611 3.559 2.633 0 4.999-.888 7.096-2.664 2.097-1.79 3.268-3.934 3.513-6.43h-8.841v-5.028zm26.753-16.993V49h-5.351V13.545h5.351zm28.566 5.281l-4.34 2.572c-.812-1.408-1.585-2.327-2.32-2.755-.765-.49-1.752-.735-2.962-.735-1.485 0-2.717.42-3.697 1.263-.98.826-1.47 1.867-1.47 3.123 0 1.73 1.286 3.123 3.858 4.18l3.537 1.446c2.878 1.163 4.983 2.587 6.314 4.271 1.332 1.669 1.998 3.72 1.998 6.154 0 3.26-1.087 5.955-3.26 8.083-2.19 2.143-4.907 3.215-8.152 3.215-3.077 0-5.619-.91-7.624-2.733-1.975-1.821-3.207-4.386-3.697-7.692l5.419-1.194c.245 2.082.674 3.52 1.286 4.317 1.102 1.53 2.71 2.296 4.822 2.296 1.669 0 3.054-.559 4.157-1.676 1.102-1.118 1.653-2.534 1.653-4.248 0-.69-.1-1.317-.299-1.883a4.41 4.41 0 00-.895-1.585c-.398-.49-.919-.941-1.562-1.355a14.478 14.478 0 00-2.296-1.217l-3.421-1.424c-4.853-2.05-7.28-5.051-7.28-9.001 0-2.664 1.018-4.891 3.054-6.682 2.036-1.807 4.57-2.71 7.601-2.71 4.088 0 7.279 1.99 9.576 5.97z"
        fill="#000" />
    <defs>
        <linearGradient id="prefix__paint0_linear_1_49" x1="39.483" y1="54.022" x2="54.482" y2="61.339"
            gradientUnits="userSpaceOnUse">
            <stop stop-color="#0968A1" />
            <stop offset="1" stop-color="#244361" />
        </linearGradient>
        <linearGradient id="prefix__paint1_linear_1_49" x1="62.532" y1="12.51" x2="1.67" y2="25.469"
            gradientUnits="userSpaceOnUse">
            <stop stop-color="#E30613" />
            <stop offset="1" stop-color="#A12424" />
        </linearGradient>
        <radialGradient id="prefix__paint2_radial_1_49" cx="0" cy="0" r="1" gradientUnits="userSpaceOnUse"
            gradientTransform="matrix(25.6583 0 0 25.6198 38.415 36.632)">
            <stop stop-color="#1681A2" />
            <stop offset="1" stop-color="#00468E" />
        </radialGradient>
        <clipPath id="prefix__clip0_1_49">
            <path fill="#fff" transform="translate(0 2.996)" d="M0 0h77.088v77.004H0z" />
        </clipPath>
    </defs>
</svg>