<svg width="344" height="80" viewBox="0 0 344 80" fill="none" xmlns="http://www.w3.org/2000/svg">
    <g clip-path="url(#clip0_1_100)">
        <path
            d="M39.207 63.198C51.4623 63.198 61.3972 53.2631 61.3972 41.0078C61.3972 28.7525 51.4623 18.8176 39.207 18.8176C26.9517 18.8176 17.0168 28.7525 17.0168 41.0078C17.0168 53.2631 26.9517 63.198 39.207 63.198Z"
            fill="#3B3835" />
        <path fill-rule="evenodd" clip-rule="evenodd"
            d="M35.4692 59.4997C34.7532 59.3315 29.9629 57.4196 28.52 56.4028L28.3983 56.3205L28.3732 56.3026L28.2515 56.2167L27.8398 55.9052L27.6715 55.7799L27.6214 55.7369L27.4782 55.6295L27.1488 55.3503L26.977 55.2106L26.8982 55.139L26.7371 55.003L26.4686 54.7559L26.3075 54.6091L26.2072 54.5089L26.0282 54.3478L25.8134 54.1258L25.6666 53.9826L25.5449 53.8501L25.3587 53.6604L25.1833 53.4635L25.058 53.3274L24.9147 53.1592L24.7214 52.9372L24.5675 52.7689L24.4636 52.6472L24.3025 52.4395L24.102 52.1925L23.9982 52.0457L23.9159 51.9419L23.7404 51.6949L23.5364 51.4156L23.4934 51.301L23.4325 51.2115L23.2464 50.9215L23.0423 50.6136L22.9886 50.5277L22.9492 50.4633L22.7487 50.1052L22.5554 49.7794L22.5232 49.7222L22.5017 49.6828L22.2725 49.246L22.1043 48.9309V48.9023C21.9682 48.6302 21.8393 48.3581 21.714 48.0788L21.6102 47.8211L21.3453 47.2661V47.2303V47.1838L21.2343 46.8759L21.0374 46.4319L21.0159 46.3603L20.9872 46.2851L20.8942 45.9772L20.7689 45.5763L20.7402 45.4653L20.708 45.3614L20.6328 45.0679L20.5397 44.7098L20.5075 44.5631L20.4717 44.427L20.418 44.1549L20.3464 43.8291L20.3142 43.6429L20.2819 43.4747L20.2426 43.224L20.196 42.9376L20.1674 42.7085L20.1352 42.508L20.1137 42.286L20.0815 42.0318L20.06 41.7669L20.0385 41.5342V41.3409V41.1225V40.811V40.5496V39.5579V39.4254V39.2715L20.0635 38.8633V38.5519V38.4516V38.3442L20.1173 37.868L20.1495 37.5494V37.485V37.4098L20.2426 36.8334L20.2855 36.5434V36.5111V36.4753L20.4789 35.5373L20.7223 34.5814C22.017 30.0257 24.8871 26.0776 28.8211 23.4404C32.7551 20.8033 37.4976 19.6485 42.2036 20.1818L43.1703 20.3178L41.8349 20.103L41.4231 20.0493L40.4815 19.9383L40.0376 19.8989L39.0351 19.8381H38.7022H37.3882H37.1018L36.0707 19.8739L35.6411 19.9025L34.7246 19.9813L34.3128 20.0242L33.16 20.1531L33.0132 20.1746L31.7458 20.4073L31.3878 20.4861L30.4748 20.6973L30.0631 20.8011L29.1501 21.0589L28.8172 21.1592L27.5999 21.5673L27.4245 21.6318L26.4041 22.0256L26.0461 22.1831L25.2119 22.5411L24.8539 22.7094L23.8908 23.1963L23.7011 23.293L22.584 23.9159L22.3083 24.0842L21.4885 24.5926L21.1305 24.8181L20.3607 25.348L20.0671 25.5557L19.0432 26.329L18.9966 26.3684L18.0622 27.1453L17.7758 27.4031L17.0955 28.0224L16.7984 28.3089L16.0823 29.0249L15.8783 29.2326L15.0226 30.1813L14.8185 30.4212L14.1992 31.173L13.9271 31.5311L13.3972 32.2471L13.1466 32.6051L12.5093 33.5503L12.4198 33.6828C9.92193 37.6031 8.36977 42.0505 7.8859 46.6737C7.40202 51.2969 7.99968 55.9693 9.63167 60.3218C11.2637 64.6744 13.8853 68.5879 17.2895 71.7533C20.6937 74.9187 24.7872 77.2492 29.2468 78.5608C29.8089 78.7184 30.3746 78.8616 30.9438 78.994C31.5131 79.1265 32.0895 79.2446 32.6623 79.352L32.7841 79.3735C42.8303 81.2758 53.2235 79.2549 61.825 73.7268C70.4265 68.1987 76.5818 59.5838 79.0243 49.6551C81.4668 39.7264 80.0107 29.2391 74.9556 20.3514C69.9005 11.4637 61.6309 4.8517 51.8487 1.8761C58.8845 4.26521 64.7825 9.18156 68.3996 15.6721C72.0166 22.1626 73.0949 29.7649 71.4254 37.0052C70.6609 40.3304 69.3286 43.4987 67.4871 46.3711C64.3644 51.2637 59.8884 55.1445 54.6027 57.5424C49.3169 59.9402 43.4487 60.752 37.7105 59.8792C36.9565 59.7975 36.2081 59.6708 35.4692 59.4997ZM67.4943 46.3711L67.4728 46.2171C67.4836 46.2672 67.4907 46.3209 67.4943 46.3711Z"
            fill="url(#paint0_linear_1_100)" />
        <path fill-rule="evenodd" clip-rule="evenodd"
            d="M20.5003 35.5337C20.6686 34.8177 22.5804 30.0273 23.5936 28.5845L23.676 28.4628V28.4377L23.7619 28.3124L24.0734 27.9043L24.1987 27.736L24.2417 27.6823L24.3526 27.5391L24.6283 27.2097L24.7715 27.0379L24.8396 26.9627L24.9756 26.8016L25.2226 26.533L25.3694 26.3684L25.4697 26.2681L25.6344 26.0927L25.8563 25.8779L25.9995 25.7311L26.132 25.6058L26.3218 25.4196L26.5187 25.2442L26.6547 25.1189L26.8194 24.9792L27.0414 24.7823L27.2097 24.6463L27.335 24.5389L27.539 24.3813L27.7897 24.1808L27.9329 24.077L28.0367 23.9947L28.2837 23.8192L28.563 23.6152L28.6811 23.54L28.7671 23.4755L29.0571 23.2894L29.365 23.0889L29.4545 23.0352L29.5189 22.9958L29.8769 22.7917L30.1991 22.5984L30.26 22.5697L30.2994 22.5447L30.7326 22.3191L31.0477 22.1509H31.0763C31.3484 22.0184 31.6241 21.8859 31.9033 21.7642L32.1611 21.6568L32.7089 21.4312H32.7483L32.802 21.3704L33.1134 21.263L33.561 21.0983L33.6362 21.0732L33.7113 21.0481L34.0157 20.9551L34.4166 20.8298L34.5276 20.8011L34.635 20.7689L34.925 20.6937L35.2831 20.597L35.4298 20.5648L35.5695 20.529L35.8416 20.4753L36.1638 20.4073L36.35 20.3751L36.5218 20.3393L36.7688 20.3035L37.0588 20.2533L37.2844 20.2247L37.4849 20.1961L37.7069 20.1746L37.9611 20.1424L38.2296 20.1209L38.4623 20.0994H38.652L38.8704 20.0815H39.1819H39.4433H39.608H39.7906H40.1486H40.4386H40.5675H40.7143L41.126 20.1101H41.4339H41.5341H41.6451L42.1177 20.1603L42.4363 20.1925H42.5044H42.576L43.1846 20.2963L43.4746 20.3428H43.5068H43.5426L44.4771 20.5362L45.433 20.7832C49.9861 22.0762 53.9326 24.9432 56.5695 28.8738C59.2065 32.8043 60.3629 37.5432 59.8326 42.2466L59.7002 43.2097L59.915 41.8743L59.9651 41.4661L60.0689 40.5174L60.1083 40.0734L60.1692 39.0745V38.738L60.1871 37.4241V37.1412L60.1477 36.1066L60.119 35.6805L60.0403 34.7604L60.0009 34.3522L59.8469 33.2102L59.8255 33.0669L59.5963 31.796L59.5176 31.4379L59.3027 30.5286L59.1989 30.1133L58.9411 29.2003L58.8409 28.8673L58.4363 27.6537L58.3683 27.4782L57.9745 26.4579L57.8205 26.0998L57.4625 25.2621L57.2942 24.904L56.7894 23.9553L56.6928 23.7655L56.0734 22.6485L55.9087 22.3728L55.3967 21.553L55.1748 21.1949L54.6413 20.4359L54.4337 20.1424L53.6567 19.122L53.6174 19.0754L52.8512 18.1482L52.597 17.8582L51.974 17.1815L51.6912 16.8808L50.9752 16.1647L50.7639 15.9642L49.8187 15.105L49.5789 14.9045L48.8234 14.2851L48.4654 14.013L47.7494 13.4796L47.3914 13.2289L46.4462 12.5917L46.3173 12.5057C42.3965 10.0087 37.9489 8.45718 33.3257 7.9737C28.7025 7.49023 24.0302 8.08802 19.6776 9.71989C15.325 11.3518 11.4114 13.973 8.24553 17.3768C5.07971 20.7805 2.74841 24.8736 1.43567 29.3328C1.27814 29.8949 1.13493 30.4605 1.00246 31.0334C0.869991 31.6062 0.751844 32.179 0.644437 32.7519L0.622956 32.8736C-1.28555 42.9239 0.733253 53.3235 6.26347 61.9298C11.7937 70.5361 20.4141 76.6936 30.3487 79.1338C40.2834 81.5739 50.7756 80.1109 59.6637 75.0461C68.5519 69.9813 75.159 61.7005 78.124 51.9096C76.6644 56.2126 74.2456 60.1275 71.0504 63.3582C67.8553 66.5888 63.9675 69.0508 59.6809 70.558C55.3944 72.0651 50.8212 72.578 46.3073 72.0578C41.7934 71.5376 37.4568 69.9979 33.6254 67.5552C28.7329 64.4315 24.8522 59.9549 22.4543 54.6686C20.0565 49.3823 19.2446 43.5137 20.1172 37.7749C20.2003 37.0209 20.3283 36.2725 20.5003 35.5337Z"
            fill="url(#paint1_linear_1_100)" />
        <path fill-rule="evenodd" clip-rule="evenodd"
            d="M50.2627 1.35684L50.5563 1.4356L51.8487 1.81153C56.1524 3.2708 60.0679 5.68966 63.299 8.88512C66.5301 12.0806 68.9922 15.969 70.4991 20.2562C72.006 24.5434 72.5182 29.1172 71.997 33.6315C71.4758 38.1459 69.9349 42.4826 67.4907 46.3137C64.3727 51.1964 59.9069 55.0713 54.6333 57.4698C49.3598 59.8683 43.5043 60.6877 37.7749 59.829C38.4265 59.9006 39.0781 59.94 39.7261 59.9471H40.2524H40.3992C41.3304 59.9269 42.2589 59.8396 43.1774 59.6858H43.2347L43.3672 59.6643H43.446C43.7252 59.6142 44.0045 59.5569 44.2837 59.496H44.3195L44.4269 59.4674L44.8745 59.36L45.1323 59.292L45.2576 59.2597L45.3542 59.2311L45.5153 59.1845L45.7695 59.1058H45.8197H45.8698L46.1455 59.0199H46.1634L46.235 58.9948L46.6359 58.8552H46.6538L46.7505 58.8229L46.9546 58.7442L47.0691 58.7048L47.1801 58.6582L47.3663 58.5866L47.4666 58.5437H47.4845L47.5346 58.5222L47.8926 58.3683L47.9499 58.3432L48.1969 58.2286L48.2793 58.1928L48.3509 58.1606L48.5478 58.0675L48.7017 57.9923L48.802 57.9422L48.9237 57.8813L49.049 57.8169L49.0812 57.799L49.1278 57.7775L49.5323 57.5591L49.6433 57.4983L49.6755 57.4768H49.7042L49.8044 57.4195L49.8581 57.3909L49.962 57.3264L50.2699 57.1438L50.3809 57.0758L50.4704 57.0221L50.5563 56.9684L50.7031 56.8144L50.7783 56.7607L50.9071 56.6784L51.215 56.4743L51.3511 56.3812L51.4048 56.3418L51.4442 56.3168L52.0457 55.8764L52.1208 55.8191L52.1459 55.8012L52.2605 55.7082L52.4968 55.5256L52.7223 55.3358L52.8548 55.2284L52.9264 55.164L52.9873 55.1138L53.4634 54.6914L53.5064 54.652L53.5386 54.6233L53.5744 54.5911L53.7212 54.4443L53.9575 54.2224L54.0434 54.1329L54.1508 54.029L54.2045 53.9753L54.2618 53.918L54.3549 53.8214L54.4193 53.7533L54.6019 53.5564L54.7702 53.3774L54.8418 53.2951L54.8704 53.2664L54.9206 53.2127L55.1139 52.98L55.3574 52.6972L55.4254 52.6148L55.4504 52.5826L55.5328 52.486L55.7011 52.264L55.9087 52.0026L56.0161 51.8523L56.1235 51.7126L56.2631 51.5086L56.435 51.2687L56.5603 51.0789L56.6749 50.9107L56.793 50.7209L56.9327 50.5061L57.0687 50.277L57.1904 50.0765L57.2835 49.9082L57.3945 49.7184L57.5413 49.4428L57.6666 49.2136L57.7382 49.0668L57.8241 48.9057L57.9745 48.5835L58.0998 48.3222L58.1535 48.2004L58.2144 48.068L58.3719 47.6885L58.4936 47.402L58.5294 47.309L58.5724 47.2087L58.7335 46.7576L58.8445 46.4569V46.3924L58.8695 46.3244L59.0414 45.7659L59.1273 45.4902V45.458L59.1703 45.2897C59.2443 45.0295 59.3123 44.7646 59.3744 44.4949C59.4245 44.2801 59.471 44.0653 59.5104 43.8469C59.5713 43.539 59.625 43.2311 59.6715 42.9268C60.9834 35.3884 59.3619 27.6338 55.1395 21.2526C50.917 14.8715 44.4136 10.3473 36.9623 8.60752C29.5111 6.86776 21.6766 8.04423 15.0649 11.8958C8.4533 15.7473 3.56546 21.9821 1.40345 29.3219C2.70647 24.6283 4.86183 20.2144 7.76192 16.3007L7.81204 16.2327L8.32401 15.556L8.42426 15.4307L8.90043 14.8256L9.04006 14.6574L9.49475 14.1096L9.67018 13.9127L10.107 13.4114L10.3075 13.1895L10.7299 12.7276L10.9555 12.4877L11.3708 12.0617L11.6178 11.8111L12.0367 11.4029L12.3052 11.1452L12.7026 10.7657L12.9926 10.5007L13.3864 10.1427L13.6908 9.87418L14.0703 9.55554L14.3925 9.28345L14.7792 8.96839L15.1372 8.69629L15.5203 8.39555L15.8783 8.12345L16.2578 7.84062L16.6158 7.5721L16.9738 7.30358L17.3605 7.03865L17.7185 6.78445L18.1231 6.5052L18.4811 6.2689L18.8928 6.00754L19.2508 5.78199L19.6769 5.5278L20.0349 5.31656L20.4753 5.06595L20.8333 4.86903L21.3453 4.62558L21.7033 4.43941L22.1723 4.20311L22.5303 4.02768L23.0137 3.79855L23.3717 3.63744L23.8514 3.41189L24.2094 3.2651L24.7178 3.0467L25.0759 2.91065L25.5986 2.703L25.928 2.57411L26.4686 2.3772L26.7908 2.26264L27.3457 2.0693L27.6572 1.96548L28.23 1.78289L28.5308 1.69338L29.1215 1.51795L29.4115 1.43918L30.0201 1.27449L30.2958 1.20647L30.9259 1.04894L31.1837 0.991657L31.8389 0.848449L32.0752 0.798326L32.7554 0.665857L32.9667 0.630055L33.6827 0.504747L33.8581 0.479686L34.6136 0.368699L34.7389 0.350798L35.5444 0.250552H35.6089C38.7178 -0.095268 41.8568 -0.0724347 44.9604 0.318576H44.9998L45.8376 0.436723L45.9808 0.454624H46.0738L47.3878 0.683758L47.6993 0.741042L49.0096 1.0203L50.2627 1.35684Z"
            fill="url(#paint2_linear_1_100)" />
        <path fill-rule="evenodd" clip-rule="evenodd"
            d="M7.76192 16.3008C4.88894 20.2054 2.75459 24.6027 1.46431 29.2755C3.62632 21.9356 8.51416 15.7008 15.1258 11.8493C21.7374 7.99778 29.5719 6.82131 37.0232 8.56108C44.4744 10.3008 50.9779 14.8251 55.2003 21.2062C59.4227 27.5873 61.0442 35.342 59.7324 42.8803C60.2166 39.6009 59.8779 36.2525 58.7467 33.1364C57.6156 30.0204 55.7274 27.2345 53.2522 25.0293C51.4791 23.4586 49.4382 22.2192 47.2267 21.3704C47.0405 21.2952 46.1956 21.0123 45.7337 20.8548C45.2719 20.6973 44.8924 20.6114 44.4627 20.4968C44.0331 20.3822 43.6035 20.3106 43.1703 20.2462C35.618 18.8509 27.8184 20.4085 21.3813 24.5975C14.9443 28.7865 10.3612 35.287 8.57832 42.7572C6.79541 50.2275 7.9487 58.0971 11.8001 64.7416C15.6516 71.3862 21.9071 76.2983 29.2755 78.4641C23.0416 76.732 17.3214 73.5124 12.6064 69.0817C7.89144 64.6511 4.32263 59.142 2.20661 53.0277C0.0905844 46.9135 -0.509376 40.3769 0.458275 33.9797C1.42593 27.5824 3.93225 21.5157 7.76192 16.3008Z"
            fill="url(#paint3_linear_1_100)" />
        <path fill-rule="evenodd" clip-rule="evenodd"
            d="M50.5563 1.37476C59.9802 3.96906 68.1272 9.92581 73.4575 18.1191C78.7877 26.3123 80.9318 36.1743 79.4845 45.8411V45.9592C79.3377 46.9366 79.1479 47.9176 78.9224 48.8986C78.6968 49.8796 78.4354 50.8427 78.1383 51.7878C76.6795 56.0914 74.261 60.0068 71.0659 63.2379C67.8708 66.469 63.9827 68.9312 59.6957 70.4381C55.4087 71.9451 50.8352 72.4573 46.3211 71.9361C41.807 71.415 37.4705 69.874 33.6397 67.4298C28.7475 64.3069 24.8671 59.8308 22.4698 54.545C20.0726 49.2592 19.2615 43.391 20.1352 37.6531C19.9262 39.44 19.9648 41.2471 20.2497 43.0234L20.2712 43.1667V43.1989L20.2963 43.3457L20.3965 43.8505L20.4359 44.0581V44.1226L20.4717 44.3016L20.5755 44.7169L20.6292 44.9353L20.6579 45.0355L20.708 45.2396L20.8118 45.5976L20.8727 45.8089L20.9192 45.9449L20.9872 46.174L21.0911 46.464L21.1591 46.6609L21.2235 46.8292L21.313 47.0798L21.4133 47.3233L21.4777 47.4951L21.5672 47.6956L21.6782 47.9677L21.7713 48.1682L21.8358 48.315L21.9503 48.5477L22.0864 48.8377L22.1723 48.9953L22.2296 49.117L22.3728 49.3783L22.5375 49.6862L22.6091 49.8044L22.6592 49.8975L22.8382 50.1946L23.0244 50.5097L23.0817 50.5956L23.1211 50.6601L23.343 50.9966L23.5507 51.3117L23.5901 51.3654L23.6151 51.4047L23.9051 51.7986L24.1164 52.0886L24.1378 52.11C24.3204 52.3499 24.4959 52.5898 24.7071 52.8261L24.8933 53.0337L25.2871 53.4777L25.3157 53.5063L25.3479 53.5421L25.5771 53.7784L25.9065 54.1365L25.9637 54.1902L26.021 54.2474L26.2537 54.4658L26.5581 54.7558L26.644 54.8274L26.7263 54.9026L26.9555 55.0995L27.2383 55.343L27.3565 55.4361L27.4674 55.5292L27.6858 55.6974L27.9472 55.9015L28.1011 56.0125L28.2372 56.1163L28.4448 56.2595L28.6847 56.4314L28.8745 56.5567L29.0427 56.6712L29.2325 56.7858L29.4437 56.9254L29.6764 57.0615L29.8769 57.1868L30.0452 57.2799L30.2349 57.3909L30.507 57.5341L30.7398 57.663L30.883 57.7346L31.0477 57.8169L31.3699 57.9709L31.6312 58.0962L31.7494 58.1499L31.8819 58.2107L32.2614 58.3683L32.5478 58.49L32.6409 58.5222L32.7447 58.5652L33.1922 58.7263L33.4929 58.8373L33.5574 58.8588L33.629 58.8838L34.1839 59.0557L34.4632 59.1416H34.499C34.814 59.2347 35.1363 59.317 35.4585 59.3922C36.2257 59.5689 37.0028 59.6992 37.7856 59.7825C43.515 60.6417 49.3707 59.8225 54.6443 57.4239C59.918 55.0254 64.3837 51.1502 67.5015 46.2671C69.3434 43.3938 70.6757 40.2241 71.4397 36.8977C73.1134 29.6529 72.0355 22.0447 68.4153 15.55C64.7951 9.05523 58.8909 4.13724 51.8487 1.75068L50.5563 1.37476Z"
            fill="url(#paint4_linear_1_100)" />
        <path
            d="M24.3061 52.2927C23.923 51.8094 24.5675 50.1446 25.2012 47.0656C25.6308 44.9855 26.0318 43.2849 26.311 42.1464C25.3657 41.417 24.5541 40.529 23.9123 39.5221C17.1099 29.5225 22.1866 20.6221 23.9803 19.881C24.3993 18.7792 25.0323 17.7712 25.8428 16.9152C26.6533 16.0592 27.6252 15.3722 28.7026 14.8938C30.3277 14.0296 32.0707 13.4083 33.876 13.05C36.1637 12.4009 38.5206 12.0271 40.8968 11.9365C44.1011 11.8577 51.2473 13.6264 53.7856 14.5393C55.6975 15.2303 54.5482 17.5861 53.8716 18.696C54.5889 19.6316 55.1255 20.6928 55.454 21.8251C56.3419 24.4744 56.9685 24.8754 57.262 25.4268C57.5556 25.9781 58.2287 27.9866 57.8528 28.5953C57.2584 29.5583 57.3587 30.6969 57.7382 31.1515C58.4481 31.964 59.1126 32.815 59.7288 33.7007C60.5236 35.2258 61.9342 36.3071 61.5368 37.084C61.1394 37.8609 60.5737 38.158 59.156 38.9457C58.5975 39.2643 58.8445 39.9338 58.9125 40.3205C59.0148 40.6465 59.2072 40.9369 59.4674 41.1583C59.4137 41.1332 59.7216 42.0712 59.0163 42.508C58.7246 42.6585 58.4776 42.8833 58.3003 43.1596C58.3003 43.1596 59.2455 44.026 59.156 44.2337C58.8553 44.6803 58.5188 45.1017 58.1499 45.4939C57.7489 46.013 57.3515 46.346 57.8528 46.8902C58.354 47.4344 58.5473 48.9417 57.8528 49.5145C57.1582 50.0873 55.8514 51.4442 52.4287 51.0862C49.9978 50.8499 47.4164 51.9705 45.9843 53.1019C43.4388 55.1426 43.2204 58.2466 42.7621 59.6394C42.5402 60.2945 31.4701 61.3077 24.3061 52.2927Z"
            fill="white" />
        <path
            d="M31.5382 31.5847C31.5704 31.5596 31.6527 31.5847 31.7744 31.6778C31.377 32.3723 31.4164 33.1099 31.7923 34.055C32.4583 35.6411 33.9405 37.6138 34.6136 38.0971C35.2866 38.5804 35.5444 39.2141 36.1065 39.7512C36.5075 40.1307 37.7821 40.3956 38.4838 39.6617C38.6468 39.4927 38.7942 39.3094 38.9241 39.1139C39.0996 39.7619 39.8693 42.5903 40.1414 43.1631C40.4457 43.8147 41.2441 46.4176 42.8409 47.5417C44.205 48.5048 51.1685 51.0933 52.7724 51.122C47.4021 51.0826 45.0034 53.4634 43.9794 55.7225C42.5473 53.3131 38.7917 41.7597 38.7058 41.6093C38.6198 41.4589 38.516 41.8134 37.4097 41.8241C36.017 41.8241 35.2437 40.5209 34.9429 40.077C34.6422 39.633 30.6825 36.7653 30.5249 35.4513C30.3674 34.1374 31.1765 31.8819 31.5382 31.5847Z"
            fill="#BEBBBB" />
        <path
            d="M39.0888 33.1851C38.6126 32.726 38.18 32.2238 37.7964 31.685C37.2916 30.9295 34.9322 29.1072 33.2316 30.2529C31.531 31.3985 31.1264 32.4655 31.7995 34.0515C32.4726 35.6375 33.9476 37.6102 34.6207 38.0936C35.2938 38.5769 35.5516 39.2106 36.1137 39.7476C36.5147 40.1271 37.7892 40.3921 38.4909 39.6581C38.7396 39.4146 38.9443 39.13 39.096 38.8168L39.0888 33.1851Z"
            fill="white" />
        <path
            d="M56.7393 37.3059C56.7393 37.3059 56.3813 37.4133 56.4243 38.5411C56.4457 38.9815 56.9613 39.2858 57.5449 39.3073C57.7987 39.3054 58.0495 39.3631 58.277 39.4756C58.5045 39.5882 58.7026 39.7524 58.8552 39.9553C58.8552 39.9553 58.6368 39.2392 59.1166 38.9922C59.4925 38.7989 60.9246 37.936 61.2647 37.4885C61.458 37.2343 60.4055 38.0685 59.7467 38.0578C58.243 38.0363 57.5699 38.1723 57.4625 38.4802C57.4088 38.6413 57.4625 38.8382 57.1045 38.8382C56.3634 38.8275 56.6176 37.8394 56.7393 37.3059Z"
            fill="#BEBBBB" />
        <path
            d="M56.7501 28.8386C56.7501 28.8386 51.1399 29.3184 50.8212 32.0608C52.0242 32.1826 53.5995 33.45 54.1114 33.3032C55.4397 32.9201 56.2596 29.7802 56.5925 29.5833C56.9255 29.3864 57.3873 28.6346 56.7501 28.8386Z"
            fill="#BEBBBB" />
        <path
            d="M54.5733 30.9223C54.5733 30.9223 54.9528 32.4331 54.0864 33.3425C52.5039 33.1993 51.9024 32.3186 50.832 32.0787C51.5731 32.247 53.6532 30.8041 54.5733 30.9223Z"
            fill="url(#paint5_linear_1_100)" />
        <path
            d="M54.6986 31.3304C54.6986 31.3304 54.6986 31.6885 54.6556 31.6885C52.4681 31.5703 51.3368 32.8091 50.832 32.068C51.1005 32.469 52.4932 31.4558 54.6986 31.3304Z"
            fill="#BEBBBB" />
        <path
            d="M50.832 32.0788C51.4263 32.5908 52.665 31.309 54.695 31.4272C54.9062 31.4272 54.9743 30.6216 54.763 30.4211C54.3477 30.4534 51.6912 30.994 50.832 32.0788Z"
            fill="url(#paint6_linear_1_100)" />
        <path
            d="M58.311 43.1595C58.4935 42.9229 58.7108 42.7152 58.9555 42.5437C59.1376 42.4502 59.2863 42.3026 59.3811 42.1212C59.476 41.9398 59.5124 41.7334 59.4853 41.5305C59.5032 41.9959 57.8026 41.9387 57.1904 42.3504C56.67 42.7418 56.0493 42.9777 55.4003 43.0306C55.2034 42.9948 55.2535 42.9232 55.0172 42.9698C54.7809 43.0163 54.9349 43.1452 55.4648 43.1882C56.2417 43.2454 57.6236 42.7406 58.311 43.1595Z"
            fill="#BEBBBB" />
        <path
            d="M59.1667 44.2479C59.1667 44.2479 57.8492 44.6417 57.6594 45.1322C57.3551 45.9163 57.3014 46.3531 57.706 46.7254C57.6472 46.5929 57.6285 46.446 57.652 46.3029C57.6755 46.1598 57.7403 46.0267 57.8384 45.9199C58.3194 45.394 58.7632 44.8353 59.1667 44.2479Z"
            fill="#BEBBBB" />
    </g>
    <path
        d="M93.4179 20.0615V48.4321H99.2589V28.525H99.3384L106.292 48.4321H111.1L118.053 28.3263H118.133V48.4321H123.974V20.0615H115.193L108.914 39.5713H108.835L102.199 20.0615H93.4179ZM129.466 20.0615V48.4321H151.003V43.1871H135.705V36.2336H149.453V31.3859H135.705V25.3065H150.685V20.0615H129.466ZM161.47 43.1871V25.3065H165.921C167.457 25.3065 168.742 25.5316 169.775 25.982C170.834 26.4058 171.682 27.0283 172.318 27.8495C172.954 28.6707 173.404 29.6641 173.669 30.8296C173.96 31.9687 174.106 33.2534 174.106 34.6839C174.106 36.2468 173.907 37.5713 173.51 38.6574C173.113 39.7435 172.583 40.6309 171.921 41.3196C171.258 41.9818 170.503 42.4587 169.656 42.7501C168.808 43.0414 167.934 43.1871 167.033 43.1871H161.47ZM155.232 20.0615V48.4321H167.47C169.642 48.4321 171.523 48.0745 173.113 47.3593C174.728 46.6176 176.066 45.611 177.126 44.3394C178.212 43.0679 179.02 41.558 179.55 39.8097C180.079 38.0613 180.344 36.1541 180.344 34.0879C180.344 31.7303 180.013 29.6773 179.351 27.929C178.715 26.1806 177.814 24.7237 176.649 23.5582C175.51 22.3926 174.146 21.5184 172.556 20.9357C170.993 20.3529 169.298 20.0615 167.47 20.0615H155.232ZM184.684 20.0615V48.4321H190.922V20.0615H184.684ZM203.555 37.4653L207.25 27.0548H207.329L210.906 37.4653H203.555ZM204.151 20.0615L193.422 48.4321H199.7L201.926 42.1143H212.535L214.68 48.4321H221.157L210.548 20.0615H204.151ZM223.604 20.0615V48.4321H243.67V43.1871H229.842V20.0615H223.604ZM252.164 34.366C252.164 33.121 252.296 31.9157 252.561 30.7501C252.853 29.5846 253.303 28.5515 253.912 27.6508C254.522 26.7237 255.316 25.9952 256.296 25.4654C257.277 24.9091 258.469 24.631 259.873 24.631C261.276 24.631 262.469 24.9091 263.449 25.4654C264.429 25.9952 265.223 26.7237 265.833 27.6508C266.442 28.5515 266.879 29.5846 267.144 30.7501C267.435 31.9157 267.581 33.121 267.581 34.366C267.581 35.5581 267.435 36.7236 267.144 37.8627C266.879 38.9753 266.442 39.9819 265.833 40.8825C265.223 41.7832 264.429 42.5116 263.449 43.0679C262.469 43.5977 261.276 43.8626 259.873 43.8626C258.469 43.8626 257.277 43.5977 256.296 43.0679C255.316 42.5116 254.522 41.7832 253.912 40.8825C253.303 39.9819 252.853 38.9753 252.561 37.8627C252.296 36.7236 252.164 35.5581 252.164 34.366ZM245.926 34.366C245.926 36.4322 246.243 38.366 246.879 40.1673C247.515 41.9421 248.429 43.4918 249.621 44.8163C250.813 46.1408 252.27 47.1871 253.992 47.9553C255.74 48.697 257.7 49.0679 259.873 49.0679C262.071 49.0679 264.031 48.697 265.753 47.9553C267.475 47.1871 268.932 46.1408 270.124 44.8163C271.316 43.4918 272.23 41.9421 272.866 40.1673C273.502 38.366 273.819 36.4322 273.819 34.366C273.819 32.2468 273.502 30.2866 272.866 28.4853C272.23 26.6575 271.316 25.0681 270.124 23.7171C268.932 22.3661 267.475 21.3065 265.753 20.5383C264.031 19.7701 262.071 19.386 259.873 19.386C257.7 19.386 255.74 19.7701 253.992 20.5383C252.27 21.3065 250.813 22.3661 249.621 23.7171C248.429 25.0681 247.515 26.6575 246.879 28.4853C246.243 30.2866 245.926 32.2468 245.926 34.366ZM298.587 45.2136L299.223 48.4321H303.196V33.0945H291.276V37.7435H297.554C297.368 39.7302 296.706 41.2534 295.567 42.313C294.455 43.3461 292.865 43.8626 290.799 43.8626C289.395 43.8626 288.203 43.5977 287.223 43.0679C286.243 42.5116 285.448 41.7832 284.839 40.8825C284.229 39.9819 283.779 38.9753 283.488 37.8627C283.223 36.7236 283.09 35.5581 283.09 34.366C283.09 33.121 283.223 31.9157 283.488 30.7501C283.779 29.5846 284.229 28.5515 284.839 27.6508C285.448 26.7237 286.243 25.9952 287.223 25.4654C288.203 24.9091 289.395 24.631 290.799 24.631C292.309 24.631 293.594 25.0283 294.653 25.823C295.713 26.6177 296.428 27.8098 296.799 29.3992H302.759C302.6 27.7833 302.163 26.3528 301.448 25.1078C300.733 23.8628 299.819 22.8164 298.706 21.9688C297.62 21.1211 296.388 20.4853 295.011 20.0615C293.66 19.6112 292.256 19.386 290.799 19.386C288.627 19.386 286.666 19.7701 284.918 20.5383C283.196 21.3065 281.739 22.3661 280.547 23.7171C279.355 25.0681 278.441 26.6575 277.806 28.4853C277.17 30.2866 276.852 32.2468 276.852 34.366C276.852 36.4322 277.17 38.366 277.806 40.1673C278.441 41.9421 279.355 43.4918 280.547 44.8163C281.739 46.1408 283.196 47.1871 284.918 47.9553C286.666 48.697 288.627 49.0679 290.799 49.0679C292.176 49.0679 293.541 48.7897 294.892 48.2335C296.243 47.6507 297.474 46.6441 298.587 45.2136ZM308.234 20.0615V48.4321H314.472V20.0615H308.234ZM324.204 39.015H318.165C318.138 40.7633 318.456 42.2732 319.118 43.5448C319.781 44.8163 320.668 45.8626 321.781 46.6838C322.92 47.505 324.218 48.101 325.675 48.4719C327.158 48.8692 328.681 49.0679 330.244 49.0679C332.178 49.0679 333.873 48.8427 335.33 48.3924C336.814 47.9421 338.045 47.3196 339.025 46.5249C340.032 45.7037 340.787 44.7368 341.29 43.6242C341.794 42.5116 342.045 41.3064 342.045 40.0084C342.045 38.419 341.701 37.121 341.012 36.1143C340.35 35.0812 339.555 34.2601 338.628 33.6508C337.701 33.0415 336.761 32.6044 335.807 32.3395C334.88 32.0482 334.151 31.8495 333.622 31.7435C331.847 31.2932 330.403 30.9223 329.29 30.6309C328.204 30.3396 327.343 30.0482 326.708 29.7568C326.098 29.4654 325.688 29.1475 325.476 28.8031C325.264 28.4588 325.158 28.0084 325.158 27.4522C325.158 26.8429 325.29 26.3396 325.555 25.9422C325.82 25.5449 326.151 25.2138 326.549 24.9489C326.973 24.684 327.436 24.4985 327.939 24.3926C328.443 24.2866 328.946 24.2336 329.449 24.2336C330.218 24.2336 330.92 24.2999 331.555 24.4323C332.218 24.5648 332.8 24.7899 333.304 25.1078C333.807 25.4257 334.204 25.8628 334.496 26.4191C334.814 26.9753 334.999 27.6773 335.052 28.525H341.092C341.092 26.8826 340.774 25.4919 340.138 24.3529C339.529 23.1873 338.694 22.2337 337.635 21.4919C336.575 20.7502 335.357 20.2204 333.979 19.9026C332.628 19.5582 331.211 19.386 329.728 19.386C328.456 19.386 327.184 19.5582 325.913 19.9026C324.641 20.2469 323.502 20.7767 322.496 21.4919C321.489 22.2072 320.668 23.1078 320.032 24.1939C319.423 25.2535 319.118 26.5118 319.118 27.9687C319.118 29.2667 319.357 30.3793 319.834 31.3064C320.337 32.2071 320.986 32.9621 321.781 33.5713C322.575 34.1806 323.476 34.6839 324.483 35.0812C325.489 35.4521 326.522 35.77 327.582 36.0349C328.615 36.3263 329.635 36.5912 330.641 36.8296C331.648 37.068 332.549 37.3461 333.343 37.664C334.138 37.9819 334.774 38.3792 335.251 38.856C335.754 39.3329 336.006 39.9554 336.006 40.7236C336.006 41.4388 335.82 42.0348 335.449 42.5116C335.078 42.962 334.615 43.3196 334.059 43.5845C333.502 43.8494 332.906 44.0348 332.271 44.1408C331.635 44.2202 331.039 44.26 330.482 44.26C329.661 44.26 328.867 44.1673 328.098 43.9818C327.33 43.7699 326.655 43.4653 326.072 43.0679C325.516 42.6441 325.065 42.1011 324.721 41.4388C324.377 40.7766 324.204 39.9686 324.204 39.015Z"
        fill="black" />
    <path
        d="M97.4827 60.9256C97.423 60.4214 97.1809 60.03 96.7563 59.7514C96.3317 59.4727 95.811 59.3334 95.194 59.3334C94.7429 59.3334 94.3482 59.4064 94.0098 59.5523C93.6748 59.6983 93.4128 59.899 93.2237 60.1544C93.0379 60.4098 92.9451 60.7 92.9451 61.0251C92.9451 61.2971 93.0097 61.5309 93.1391 61.7266C93.2718 61.919 93.441 62.0799 93.6466 62.2093C93.8523 62.3353 94.0679 62.4398 94.2934 62.5227C94.519 62.6023 94.7263 62.667 94.9154 62.7168L95.9503 62.9954C96.2156 63.0651 96.5109 63.1613 96.8359 63.284C97.1643 63.4067 97.4778 63.5742 97.7763 63.7865C98.0781 63.9955 98.3269 64.2642 98.5226 64.5925C98.7183 64.9209 98.8162 65.324 98.8162 65.8016C98.8162 66.3522 98.6719 66.8498 98.3833 67.2943C98.098 67.7387 97.6801 68.092 97.1295 68.354C96.5822 68.6161 95.9171 68.7471 95.1343 68.7471C94.4046 68.7471 93.7727 68.6294 93.2386 68.3938C92.7079 68.1583 92.29 67.83 91.9848 67.4087C91.6829 66.9874 91.5121 66.4982 91.4723 65.9409H92.746C92.7792 66.3257 92.9086 66.6441 93.1341 66.8962C93.363 67.145 93.6516 67.3307 93.9999 67.4535C94.3515 67.5729 94.7296 67.6326 95.1343 67.6326C95.6053 67.6326 96.0282 67.5563 96.4031 67.4037C96.7779 67.2478 97.0747 67.0322 97.2937 66.7569C97.5126 66.4783 97.6221 66.1532 97.6221 65.7817C97.6221 65.4434 97.5275 65.1681 97.3385 64.9558C97.1494 64.7435 96.9006 64.571 96.5921 64.4383C96.2836 64.3056 95.9503 64.1895 95.592 64.09L94.3382 63.7318C93.5421 63.5029 92.9119 63.1762 92.4475 62.7516C91.9831 62.327 91.7509 61.7714 91.7509 61.0848C91.7509 60.5143 91.9052 60.0167 92.2137 59.5921C92.5255 59.1642 92.9434 58.8325 93.4675 58.597C93.9949 58.3582 94.5837 58.2388 95.2338 58.2388C95.8906 58.2388 96.4744 58.3566 96.9852 58.5921C97.496 58.8243 97.9007 59.1427 98.1992 59.5474C98.5011 59.952 98.6603 60.4114 98.6769 60.9256H97.4827ZM102.143 71.4339C101.944 71.4339 101.766 71.4173 101.61 71.3841C101.454 71.3543 101.346 71.3244 101.287 71.2946L101.585 70.2597C101.871 70.3326 102.123 70.3592 102.342 70.3393C102.561 70.3194 102.755 70.2215 102.924 70.0457C103.096 69.8732 103.254 69.593 103.396 69.2049L103.615 68.6078L100.789 60.9256H102.063L104.173 67.0156H104.252L106.362 60.9256H107.636L104.392 69.6825C104.246 70.0772 104.065 70.404 103.849 70.6627C103.634 70.9247 103.383 71.1188 103.098 71.2448C102.816 71.3709 102.497 71.4339 102.143 71.4339ZM115.299 62.6372L114.245 62.9357C114.178 62.7599 114.08 62.5891 113.951 62.4232C113.825 62.2541 113.652 62.1147 113.434 62.0053C113.215 61.8958 112.934 61.8411 112.593 61.8411C112.125 61.8411 111.735 61.9489 111.423 62.1645C111.115 62.3768 110.961 62.6471 110.961 62.9755C110.961 63.2674 111.067 63.4979 111.279 63.6671C111.491 63.8363 111.823 63.9772 112.274 64.09L113.409 64.3686C114.092 64.5345 114.601 64.7883 114.936 65.1299C115.271 65.4682 115.439 65.9044 115.439 66.4385C115.439 66.8763 115.313 67.2677 115.061 67.6127C114.812 67.9577 114.463 68.2297 114.016 68.4287C113.568 68.6277 113.047 68.7272 112.453 68.7272C111.674 68.7272 111.029 68.558 110.518 68.2197C110.007 67.8814 109.684 67.3871 109.548 66.737L110.662 66.4584C110.768 66.8697 110.969 67.1782 111.264 67.3838C111.563 67.5895 111.952 67.6923 112.433 67.6923C112.981 67.6923 113.415 67.5762 113.737 67.344C114.062 67.1085 114.225 66.8266 114.225 66.4982C114.225 66.2328 114.132 66.0106 113.946 65.8315C113.76 65.649 113.475 65.513 113.09 65.4235L111.816 65.1249C111.117 64.9591 110.602 64.702 110.274 64.3537C109.949 64.0021 109.786 63.5626 109.786 63.0352C109.786 62.604 109.908 62.2225 110.15 61.8908C110.395 61.5591 110.729 61.2988 111.15 61.1097C111.574 60.9206 112.055 60.8261 112.593 60.8261C113.349 60.8261 113.943 60.9919 114.374 61.3236C114.808 61.6553 115.117 62.0932 115.299 62.6372ZM121.23 60.9256V61.9207H117.27V60.9256H121.23ZM118.424 59.0946H119.598V66.3788C119.598 66.7105 119.647 66.9592 119.743 67.1251C119.842 67.2876 119.968 67.3971 120.121 67.4535C120.277 67.5065 120.441 67.5331 120.613 67.5331C120.743 67.5331 120.849 67.5264 120.932 67.5132C121.015 67.4966 121.081 67.4833 121.131 67.4734L121.37 68.5282C121.29 68.558 121.179 68.5879 121.036 68.6177C120.894 68.6509 120.713 68.6675 120.494 68.6675C120.162 68.6675 119.837 68.5962 119.519 68.4536C119.204 68.3109 118.942 68.0937 118.733 67.8018C118.527 67.5099 118.424 67.1417 118.424 66.6972V59.0946ZM126.819 68.7272C126.083 68.7272 125.448 68.5647 124.914 68.2396C124.383 67.9112 123.973 67.4535 123.685 66.8664C123.4 66.2759 123.257 65.5893 123.257 64.8065C123.257 64.0237 123.4 63.3337 123.685 62.7367C123.973 62.1363 124.375 61.6686 124.889 61.3336C125.406 60.9952 126.01 60.8261 126.7 60.8261C127.098 60.8261 127.491 60.8924 127.879 61.0251C128.267 61.1578 128.621 61.3734 128.939 61.6719C129.257 61.9671 129.511 62.3585 129.7 62.8461C129.889 63.3337 129.984 63.9341 129.984 64.6473V65.1448H124.093V64.1298H128.79C128.79 63.6986 128.704 63.3138 128.531 62.9755C128.362 62.6372 128.12 62.3701 127.805 62.1744C127.493 61.9787 127.125 61.8809 126.7 61.8809C126.232 61.8809 125.828 61.997 125.486 62.2292C125.148 62.458 124.887 62.7566 124.705 63.1248C124.522 63.493 124.431 63.8877 124.431 64.3089V64.9856C124.431 65.5628 124.531 66.052 124.73 66.4534C124.932 66.8514 125.212 67.1549 125.571 67.3639C125.929 67.5696 126.345 67.6724 126.819 67.6724C127.128 67.6724 127.407 67.6293 127.655 67.543C127.907 67.4535 128.125 67.3208 128.307 67.145C128.49 66.9659 128.631 66.7436 128.73 66.4783L129.864 66.7967C129.745 67.1815 129.544 67.5198 129.262 67.8117C128.98 68.1003 128.632 68.3259 128.218 68.4884C127.803 68.6476 127.337 68.7272 126.819 68.7272ZM126.143 59.8907L124.59 57.582H125.964L127.178 59.8907H126.143ZM132.471 68.568V60.9256H133.605V62.1197H133.705C133.864 61.7117 134.121 61.3949 134.476 61.1694C134.831 60.9405 135.257 60.8261 135.754 60.8261C136.259 60.8261 136.678 60.9405 137.013 61.1694C137.352 61.3949 137.615 61.7117 137.804 62.1197H137.884C138.08 61.725 138.373 61.4115 138.765 61.1793C139.156 60.9438 139.625 60.8261 140.173 60.8261C140.856 60.8261 141.415 61.04 141.85 61.4679C142.284 61.8925 142.501 62.5542 142.501 63.4532V68.568H141.327V63.4532C141.327 62.8893 141.173 62.4862 140.864 62.2441C140.556 62.002 140.193 61.8809 139.775 61.8809C139.237 61.8809 138.821 62.0434 138.526 62.3685C138.231 62.6902 138.083 63.0982 138.083 63.5925V68.568H136.889V63.3337C136.889 62.8992 136.748 62.5493 136.466 62.2839C136.184 62.0152 135.821 61.8809 135.376 61.8809C135.071 61.8809 134.786 61.9622 134.521 62.1247C134.259 62.2872 134.046 62.5128 133.884 62.8014C133.724 63.0866 133.645 63.4167 133.645 63.7915V68.568H132.471ZM148.553 68.7272C147.817 68.7272 147.181 68.5647 146.647 68.2396C146.117 67.9112 145.707 67.4535 145.418 66.8664C145.133 66.2759 144.991 65.5893 144.991 64.8065C144.991 64.0237 145.133 63.3337 145.418 62.7367C145.707 62.1363 146.108 61.6686 146.623 61.3336C147.14 60.9952 147.744 60.8261 148.434 60.8261C148.832 60.8261 149.225 60.8924 149.613 61.0251C150.001 61.1578 150.354 61.3734 150.673 61.6719C150.991 61.9671 151.245 62.3585 151.434 62.8461C151.623 63.3337 151.717 63.9341 151.717 64.6473V65.1448H145.826V64.1298H150.523C150.523 63.6986 150.437 63.3138 150.265 62.9755C150.095 62.6372 149.853 62.3701 149.538 62.1744C149.226 61.9787 148.858 61.8809 148.434 61.8809C147.966 61.8809 147.561 61.997 147.22 62.2292C146.881 62.458 146.621 62.7566 146.438 63.1248C146.256 63.493 146.165 63.8877 146.165 64.3089V64.9856C146.165 65.5628 146.264 66.052 146.463 66.4534C146.666 66.8514 146.946 67.1549 147.304 67.3639C147.662 67.5696 148.079 67.6724 148.553 67.6724C148.862 67.6724 149.14 67.6293 149.389 67.543C149.641 67.4535 149.858 67.3208 150.041 67.145C150.223 66.9659 150.364 66.7436 150.464 66.4783L151.598 66.7967C151.479 67.1815 151.278 67.5198 150.996 67.8117C150.714 68.1003 150.366 68.3259 149.951 68.4884C149.537 68.6476 149.07 68.7272 148.553 68.7272ZM161.731 68.7272C161.094 68.7272 160.532 68.5663 160.045 68.2446C159.557 67.9195 159.175 67.4618 158.9 66.8713C158.625 66.2776 158.487 65.576 158.487 64.7667C158.487 63.964 158.625 63.2674 158.9 62.677C159.175 62.0865 159.559 61.6305 160.049 61.3087C160.54 60.987 161.108 60.8261 161.751 60.8261C162.249 60.8261 162.642 60.909 162.93 61.0749C163.222 61.2374 163.444 61.4231 163.597 61.6321C163.753 61.8378 163.874 62.0069 163.96 62.1396H164.06V58.3781H165.234V68.568H164.1V67.3938H163.96C163.874 67.5331 163.751 67.7089 163.592 67.9212C163.433 68.1301 163.206 68.3176 162.91 68.4834C162.615 68.6459 162.222 68.7272 161.731 68.7272ZM161.89 67.6724C162.361 67.6724 162.759 67.5497 163.085 67.3042C163.41 67.0554 163.657 66.7121 163.826 66.2743C163.995 65.8331 164.08 65.324 164.08 64.7468C164.08 64.1763 163.997 63.6771 163.831 63.2492C163.665 62.8179 163.42 62.4829 163.095 62.2441C162.769 62.002 162.368 61.8809 161.89 61.8809C161.393 61.8809 160.978 62.0086 160.647 62.264C160.318 62.5161 160.071 62.8594 159.905 63.2939C159.743 63.7251 159.661 64.2094 159.661 64.7468C159.661 65.2908 159.744 65.785 159.91 66.2295C160.079 66.6707 160.328 67.0223 160.656 67.2843C160.988 67.543 161.4 67.6724 161.89 67.6724ZM169.263 58.3781V61.8809H168.169V58.3781H169.263ZM172.055 68.568V60.9256H173.229V68.568H172.055ZM172.652 59.6519C172.423 59.6519 172.226 59.5739 172.06 59.418C171.897 59.2621 171.816 59.0747 171.816 58.8558C171.816 58.6368 171.897 58.4494 172.06 58.2935C172.226 58.1376 172.423 58.0597 172.652 58.0597C172.881 58.0597 173.076 58.1376 173.239 58.2935C173.405 58.4494 173.488 58.6368 173.488 58.8558C173.488 59.0747 173.405 59.2621 173.239 59.418C173.076 59.5739 172.881 59.6519 172.652 59.6519ZM177.254 63.9706V68.568H176.08V60.9256H177.215V62.1197H177.314C177.493 61.7316 177.765 61.4198 178.13 61.1843C178.495 60.9455 178.966 60.8261 179.543 60.8261C180.061 60.8261 180.513 60.9322 180.901 61.1445C181.289 61.3535 181.591 61.6719 181.807 62.0998C182.023 62.5244 182.13 63.0617 182.13 63.7119V68.568H180.956V63.7915C180.956 63.1911 180.8 62.7234 180.488 62.3884C180.177 62.0501 179.749 61.8809 179.205 61.8809C178.83 61.8809 178.495 61.9622 178.2 62.1247C177.908 62.2872 177.677 62.5244 177.508 62.8362C177.339 63.148 177.254 63.5261 177.254 63.9706ZM188.38 60.9256V61.9207H184.26V60.9256H188.38ZM185.494 68.568V59.8708C185.494 59.4329 185.597 59.0681 185.803 58.7762C186.008 58.4843 186.275 58.2653 186.604 58.1194C186.932 57.9734 187.279 57.9005 187.643 57.9005C187.932 57.9005 188.168 57.9237 188.35 57.9701C188.532 58.0166 188.668 58.0597 188.758 58.0995L188.42 59.1145C188.36 59.0946 188.277 59.0697 188.171 59.0399C188.068 59.01 187.932 58.9951 187.763 58.9951C187.375 58.9951 187.095 59.0929 186.922 59.2886C186.753 59.4843 186.668 59.7713 186.668 60.1494V68.568H185.494ZM193.516 68.7272C192.826 68.7272 192.221 68.563 191.7 68.2346C191.183 67.9062 190.778 67.4468 190.486 66.8564C190.197 66.266 190.053 65.576 190.053 64.7866C190.053 63.9905 190.197 63.2956 190.486 62.7018C190.778 62.1081 191.183 61.647 191.7 61.3187C192.221 60.9903 192.826 60.8261 193.516 60.8261C194.206 60.8261 194.81 60.9903 195.327 61.3187C195.848 61.647 196.253 62.1081 196.541 62.7018C196.833 63.2956 196.979 63.9905 196.979 64.7866C196.979 65.576 196.833 66.266 196.541 66.8564C196.253 67.4468 195.848 67.9062 195.327 68.2346C194.81 68.563 194.206 68.7272 193.516 68.7272ZM193.516 67.6724C194.04 67.6724 194.471 67.5381 194.81 67.2694C195.148 67.0007 195.399 66.6474 195.561 66.2096C195.724 65.7717 195.805 65.2974 195.805 64.7866C195.805 64.2758 195.724 63.7998 195.561 63.3586C195.399 62.9175 195.148 62.5609 194.81 62.2889C194.471 62.0169 194.04 61.8809 193.516 61.8809C192.992 61.8809 192.561 62.0169 192.222 62.2889C191.884 62.5609 191.634 62.9175 191.471 63.3586C191.309 63.7998 191.227 64.2758 191.227 64.7866C191.227 65.2974 191.309 65.7717 191.471 66.2096C191.634 66.6474 191.884 67.0007 192.222 67.2694C192.561 67.5381 192.992 67.6724 193.516 67.6724ZM199.472 68.568V60.9256H200.606V62.0799H200.686C200.825 61.7018 201.077 61.3949 201.442 61.1594C201.807 60.9239 202.219 60.8062 202.676 60.8062C202.763 60.8062 202.87 60.8078 203 60.8111C203.129 60.8145 203.227 60.8194 203.293 60.8261V62.0202C203.253 62.0103 203.162 61.9953 203.02 61.9754C202.88 61.9522 202.733 61.9406 202.577 61.9406C202.205 61.9406 201.874 62.0185 201.582 62.1744C201.293 62.327 201.064 62.5393 200.895 62.8113C200.729 63.08 200.646 63.3868 200.646 63.7318V68.568H199.472ZM205.386 68.568V60.9256H206.52V62.1197H206.62C206.779 61.7117 207.036 61.3949 207.391 61.1694C207.746 60.9405 208.172 60.8261 208.67 60.8261C209.174 60.8261 209.593 60.9405 209.928 61.1694C210.267 61.3949 210.53 61.7117 210.719 62.1197H210.799C210.995 61.725 211.288 61.4115 211.68 61.1793C212.071 60.9438 212.541 60.8261 213.088 60.8261C213.771 60.8261 214.33 61.04 214.765 61.4679C215.199 61.8925 215.416 62.5542 215.416 63.4532V68.568H214.242V63.4532C214.242 62.8893 214.088 62.4862 213.779 62.2441C213.471 62.002 213.108 61.8809 212.69 61.8809C212.152 61.8809 211.736 62.0434 211.441 62.3685C211.146 62.6902 210.998 63.0982 210.998 63.5925V68.568H209.804V63.3337C209.804 62.8992 209.663 62.5493 209.381 62.2839C209.099 62.0152 208.736 61.8809 208.291 61.8809C207.986 61.8809 207.701 61.9622 207.436 62.1247C207.174 62.2872 206.961 62.5128 206.799 62.8014C206.64 63.0866 206.56 63.4167 206.56 63.7915V68.568H205.386ZM220.513 68.7471C220.029 68.7471 219.589 68.6559 219.194 68.4735C218.8 68.2877 218.486 68.0207 218.254 67.6724C218.022 67.3208 217.906 66.8962 217.906 66.3987C217.906 65.9608 217.992 65.6059 218.164 65.3339C218.337 65.0586 218.567 64.843 218.856 64.6871C219.145 64.5312 219.463 64.4151 219.811 64.3388C220.163 64.2592 220.516 64.1962 220.871 64.1497C221.335 64.09 221.712 64.0452 222 64.0154C222.292 63.9822 222.505 63.9275 222.637 63.8512C222.773 63.7749 222.841 63.6422 222.841 63.4532V63.4133C222.841 62.9224 222.707 62.541 222.438 62.269C222.173 61.997 221.77 61.861 221.229 61.861C220.669 61.861 220.229 61.9837 219.911 62.2292C219.592 62.4746 219.368 62.7367 219.239 63.0153L218.125 62.6173C218.324 62.1529 218.589 61.7913 218.921 61.5326C219.256 61.2706 219.621 61.0881 220.015 60.9853C220.413 60.8791 220.805 60.8261 221.189 60.8261C221.435 60.8261 221.717 60.8559 222.035 60.9156C222.357 60.972 222.667 61.0898 222.966 61.2689C223.268 61.448 223.518 61.7184 223.717 62.0799C223.916 62.4415 224.016 62.9257 224.016 63.5328V68.568H222.841V67.5331H222.782C222.702 67.6989 222.569 67.8764 222.384 68.0655C222.198 68.2545 221.951 68.4154 221.642 68.5481C221.334 68.6808 220.957 68.7471 220.513 68.7471ZM220.692 67.6923C221.156 67.6923 221.548 67.6011 221.866 67.4186C222.188 67.2362 222.43 67.0007 222.593 66.7121C222.758 66.4235 222.841 66.12 222.841 65.8016V64.7269C222.792 64.7866 222.682 64.8413 222.513 64.8911C222.347 64.9375 222.155 64.979 221.936 65.0155C221.72 65.0486 221.51 65.0785 221.304 65.105C221.102 65.1282 220.937 65.1481 220.811 65.1647C220.506 65.2045 220.221 65.2692 219.956 65.3588C219.694 65.445 219.481 65.576 219.319 65.7518C219.159 65.9243 219.08 66.1598 219.08 66.4584C219.08 66.8664 219.231 67.1748 219.533 67.3838C219.838 67.5895 220.224 67.6923 220.692 67.6923ZM230.183 60.9256V61.9207H226.222V60.9256H230.183ZM227.377 59.0946H228.551V66.3788C228.551 66.7105 228.599 66.9592 228.695 67.1251C228.795 67.2876 228.921 67.3971 229.073 67.4535C229.229 67.5065 229.394 67.5331 229.566 67.5331C229.695 67.5331 229.802 67.5264 229.884 67.5132C229.967 67.4966 230.034 67.4833 230.083 67.4734L230.322 68.5282C230.243 68.558 230.132 68.5879 229.989 68.6177C229.846 68.6509 229.666 68.6675 229.447 68.6675C229.115 68.6675 228.79 68.5962 228.471 68.4536C228.156 68.3109 227.894 68.0937 227.685 67.8018C227.48 67.5099 227.377 67.1417 227.377 66.6972V59.0946ZM232.65 68.568V60.9256H233.824V68.568H232.65ZM233.247 59.6519C233.018 59.6519 232.821 59.5739 232.655 59.418C232.492 59.2621 232.411 59.0747 232.411 58.8558C232.411 58.6368 232.492 58.4494 232.655 58.2935C232.821 58.1376 233.018 58.0597 233.247 58.0597C233.476 58.0597 233.672 58.1376 233.834 58.2935C234 58.4494 234.083 58.6368 234.083 58.8558C234.083 59.0747 234 59.2621 233.834 59.418C233.672 59.5739 233.476 59.6519 233.247 59.6519ZM239.78 68.7272C239.09 68.7272 238.485 68.563 237.964 68.2346C237.447 67.9062 237.042 67.4468 236.75 66.8564C236.461 66.266 236.317 65.576 236.317 64.7866C236.317 63.9905 236.461 63.2956 236.75 62.7018C237.042 62.1081 237.447 61.647 237.964 61.3187C238.485 60.9903 239.09 60.8261 239.78 60.8261C240.47 60.8261 241.074 60.9903 241.591 61.3187C242.112 61.647 242.517 62.1081 242.805 62.7018C243.097 63.2956 243.243 63.9905 243.243 64.7866C243.243 65.576 243.097 66.266 242.805 66.8564C242.517 67.4468 242.112 67.9062 241.591 68.2346C241.074 68.563 240.47 68.7272 239.78 68.7272ZM239.78 67.6724C240.304 67.6724 240.735 67.5381 241.074 67.2694C241.412 67.0007 241.662 66.6474 241.825 66.2096C241.988 65.7717 242.069 65.2974 242.069 64.7866C242.069 64.2758 241.988 63.7998 241.825 63.3586C241.662 62.9175 241.412 62.5609 241.074 62.2889C240.735 62.0169 240.304 61.8809 239.78 61.8809C239.256 61.8809 238.825 62.0169 238.486 62.2889C238.148 62.5609 237.898 62.9175 237.735 63.3586C237.573 63.7998 237.491 64.2758 237.491 64.7866C237.491 65.2974 237.573 65.7717 237.735 66.2096C237.898 66.6474 238.148 67.0007 238.486 67.2694C238.825 67.5381 239.256 67.6724 239.78 67.6724ZM246.91 63.9706V68.568H245.736V60.9256H246.87V62.1197H246.97C247.149 61.7316 247.421 61.4198 247.786 61.1843C248.151 60.9455 248.622 60.8261 249.199 60.8261C249.716 60.8261 250.169 60.9322 250.557 61.1445C250.945 61.3535 251.247 61.6719 251.463 62.0998C251.678 62.5244 251.786 63.0617 251.786 63.7119V68.568H250.612V63.7915C250.612 63.1911 250.456 62.7234 250.144 62.3884C249.832 62.0501 249.405 61.8809 248.861 61.8809C248.486 61.8809 248.151 61.9622 247.856 62.1247C247.564 62.2872 247.333 62.5244 247.164 62.8362C246.995 63.148 246.91 63.5261 246.91 63.9706ZM259.274 68.568V60.9256H260.408V62.1197H260.508C260.667 61.7117 260.924 61.3949 261.279 61.1694C261.634 60.9405 262.06 60.8261 262.557 60.8261C263.062 60.8261 263.481 60.9405 263.816 61.1694C264.155 61.3949 264.418 61.7117 264.607 62.1197H264.687C264.883 61.725 265.176 61.4115 265.568 61.1793C265.959 60.9438 266.428 60.8261 266.976 60.8261C267.659 60.8261 268.218 61.04 268.653 61.4679C269.087 61.8925 269.304 62.5542 269.304 63.4532V68.568H268.13V63.4532C268.13 62.8893 267.976 62.4862 267.667 62.2441C267.359 62.002 266.996 61.8809 266.578 61.8809C266.04 61.8809 265.624 62.0434 265.329 62.3685C265.034 62.6902 264.886 63.0982 264.886 63.5925V68.568H263.692V63.3337C263.692 62.8992 263.551 62.5493 263.269 62.2839C262.987 62.0152 262.624 61.8809 262.179 61.8809C261.874 61.8809 261.589 61.9622 261.324 62.1247C261.062 62.2872 260.849 62.5128 260.687 62.8014C260.527 63.0866 260.448 63.4167 260.448 63.7915V68.568H259.274ZM275.356 68.7272C274.62 68.7272 273.984 68.5647 273.45 68.2396C272.92 67.9112 272.51 67.4535 272.221 66.8664C271.936 66.2759 271.794 65.5893 271.794 64.8065C271.794 64.0237 271.936 63.3337 272.221 62.7367C272.51 62.1363 272.911 61.6686 273.426 61.3336C273.943 60.9952 274.547 60.8261 275.237 60.8261C275.635 60.8261 276.028 60.8924 276.416 61.0251C276.804 61.1578 277.157 61.3734 277.476 61.6719C277.794 61.9671 278.048 62.3585 278.237 62.8461C278.426 63.3337 278.52 63.9341 278.52 64.6473V65.1448H272.629V64.1298H277.326C277.326 63.6986 277.24 63.3138 277.068 62.9755C276.898 62.6372 276.656 62.3701 276.341 62.1744C276.029 61.9787 275.661 61.8809 275.237 61.8809C274.769 61.8809 274.364 61.997 274.023 62.2292C273.684 62.458 273.424 62.7566 273.241 63.1248C273.059 63.493 272.968 63.8877 272.968 64.3089V64.9856C272.968 65.5628 273.067 66.052 273.266 66.4534C273.469 66.8514 273.749 67.1549 274.107 67.3639C274.465 67.5696 274.882 67.6724 275.356 67.6724C275.665 67.6724 275.943 67.6293 276.192 67.543C276.444 67.4535 276.661 67.3208 276.844 67.145C277.026 66.9659 277.167 66.7436 277.267 66.4783L278.401 66.7967C278.282 67.1815 278.081 67.5198 277.799 67.8117C277.517 68.1003 277.169 68.3259 276.754 68.4884C276.34 68.6476 275.873 68.7272 275.356 68.7272ZM274.64 59.8907L275.854 57.582H277.227L275.674 59.8907H274.64ZM283.893 68.7272C283.256 68.7272 282.694 68.5663 282.206 68.2446C281.719 67.9195 281.337 67.4618 281.062 66.8713C280.787 66.2776 280.649 65.576 280.649 64.7667C280.649 63.964 280.787 63.2674 281.062 62.677C281.337 62.0865 281.72 61.6305 282.211 61.3087C282.702 60.987 283.269 60.8261 283.913 60.8261C284.41 60.8261 284.804 60.909 285.092 61.0749C285.384 61.2374 285.606 61.4231 285.759 61.6321C285.915 61.8378 286.036 62.0069 286.122 62.1396H286.222V58.3781H287.396V68.568H286.261V67.3938H286.122C286.036 67.5331 285.913 67.7089 285.754 67.9212C285.595 68.1301 285.367 68.3176 285.072 68.4834C284.777 68.6459 284.384 68.7272 283.893 68.7272ZM284.052 67.6724C284.523 67.6724 284.921 67.5497 285.246 67.3042C285.571 67.0554 285.819 66.7121 285.988 66.2743C286.157 65.8331 286.241 65.324 286.241 64.7468C286.241 64.1763 286.159 63.6771 285.993 63.2492C285.827 62.8179 285.581 62.4829 285.256 62.2441C284.931 62.002 284.53 61.8809 284.052 61.8809C283.555 61.8809 283.14 62.0086 282.808 62.264C282.48 62.5161 282.233 62.8594 282.067 63.2939C281.904 63.7251 281.823 64.2094 281.823 64.7468C281.823 65.2908 281.906 65.785 282.072 66.2295C282.241 66.6707 282.49 67.0223 282.818 67.2843C283.15 67.543 283.561 67.6724 284.052 67.6724ZM290.41 68.568V60.9256H291.584V68.568H290.41ZM291.007 59.6519C290.778 59.6519 290.581 59.5739 290.415 59.418C290.252 59.2621 290.171 59.0747 290.171 58.8558C290.171 58.6368 290.252 58.4494 290.415 58.2935C290.581 58.1376 290.778 58.0597 291.007 58.0597C291.236 58.0597 291.432 58.1376 291.594 58.2935C291.76 58.4494 291.843 58.6368 291.843 58.8558C291.843 59.0747 291.76 59.2621 291.594 59.418C291.432 59.5739 291.236 59.6519 291.007 59.6519ZM297.54 68.7272C296.824 68.7272 296.207 68.558 295.689 68.2197C295.172 67.8814 294.774 67.4153 294.495 66.8216C294.217 66.2278 294.077 65.5495 294.077 64.7866C294.077 64.0104 294.22 63.3254 294.505 62.7317C294.794 62.1346 295.195 61.6686 295.709 61.3336C296.227 60.9952 296.83 60.8261 297.52 60.8261C298.058 60.8261 298.542 60.9256 298.973 61.1246C299.404 61.3236 299.758 61.6023 300.033 61.9605C300.308 62.3187 300.479 62.7367 300.545 63.2143H299.371C299.282 62.866 299.083 62.5576 298.774 62.2889C298.469 62.0169 298.058 61.8809 297.54 61.8809C297.082 61.8809 296.681 62.0003 296.336 62.2391C295.994 62.4746 295.727 62.808 295.535 63.2392C295.346 63.6671 295.251 64.1696 295.251 64.7468C295.251 65.3372 295.344 65.8514 295.53 66.2892C295.719 66.727 295.984 67.067 296.326 67.3092C296.671 67.5513 297.076 67.6724 297.54 67.6724C297.845 67.6724 298.122 67.6193 298.371 67.5132C298.62 67.407 298.83 67.2545 299.003 67.0554C299.175 66.8564 299.298 66.6176 299.371 66.339H300.545C300.479 66.7901 300.315 67.1964 300.053 67.558C299.794 67.9162 299.451 68.2015 299.023 68.4138C298.598 68.6227 298.104 68.7272 297.54 68.7272ZM305.211 68.7471C304.727 68.7471 304.288 68.6559 303.893 68.4735C303.498 68.2877 303.185 68.0207 302.953 67.6724C302.72 67.3208 302.604 66.8962 302.604 66.3987C302.604 65.9608 302.69 65.6059 302.863 65.3339C303.035 65.0586 303.266 64.843 303.555 64.6871C303.843 64.5312 304.162 64.4151 304.51 64.3388C304.861 64.2592 305.215 64.1962 305.57 64.1497C306.034 64.09 306.411 64.0452 306.699 64.0154C306.991 63.9822 307.203 63.9275 307.336 63.8512C307.472 63.7749 307.54 63.6422 307.54 63.4532V63.4133C307.54 62.9224 307.406 62.541 307.137 62.269C306.872 61.997 306.469 61.861 305.928 61.861C305.367 61.861 304.928 61.9837 304.609 62.2292C304.291 62.4746 304.067 62.7367 303.938 63.0153L302.823 62.6173C303.022 62.1529 303.288 61.7913 303.619 61.5326C303.954 61.2706 304.319 61.0881 304.714 60.9853C305.112 60.8791 305.503 60.8261 305.888 60.8261C306.134 60.8261 306.415 60.8559 306.734 60.9156C307.056 60.972 307.366 61.0898 307.664 61.2689C307.966 61.448 308.217 61.7184 308.416 62.0799C308.615 62.4415 308.714 62.9257 308.714 63.5328V68.568H307.54V67.5331H307.48C307.401 67.6989 307.268 67.8764 307.082 68.0655C306.896 68.2545 306.649 68.4154 306.341 68.5481C306.032 68.6808 305.656 68.7471 305.211 68.7471ZM305.391 67.6923C305.855 67.6923 306.246 67.6011 306.565 67.4186C306.887 67.2362 307.129 67.0007 307.291 66.7121C307.457 66.4235 307.54 66.12 307.54 65.8016V64.7269C307.49 64.7866 307.381 64.8413 307.212 64.8911C307.046 64.9375 306.853 64.979 306.634 65.0155C306.419 65.0486 306.208 65.0785 306.003 65.105C305.8 65.1282 305.636 65.1481 305.51 65.1647C305.205 65.2045 304.92 65.2692 304.654 65.3588C304.392 65.445 304.18 65.576 304.017 65.7518C303.858 65.9243 303.778 66.1598 303.778 66.4584C303.778 66.8664 303.929 67.1748 304.231 67.3838C304.536 67.5895 304.923 67.6923 305.391 67.6923ZM312.732 58.3781V68.568H311.558V58.3781H312.732Z"
        fill="black" />
    <defs>
        <linearGradient id="paint0_linear_1_100" x1="0.320354" y1="30.9318" x2="79.1808" y2="49.1527"
            gradientUnits="userSpaceOnUse">
            <stop stop-color="#721537" />
            <stop offset="1" stop-color="#E7227B" />
        </linearGradient>
        <linearGradient id="paint1_linear_1_100" x1="-11.9964" y1="33.1569" x2="78.0022" y2="53.9512"
            gradientUnits="userSpaceOnUse">
            <stop stop-color="#51160D" />
            <stop offset="1" stop-color="#E00914" />
        </linearGradient>
        <linearGradient id="paint2_linear_1_100" x1="26.9477" y1="64.5769" x2="45.7186" y2="1.09051"
            gradientUnits="userSpaceOnUse">
            <stop stop-color="#01487A" />
            <stop offset="1" stop-color="#50C2F0" />
        </linearGradient>
        <linearGradient id="paint3_linear_1_100" x1="68.0836" y1="47.4109" x2="-2.57003" y2="41.5152"
            gradientUnits="userSpaceOnUse">
            <stop stop-color="#01487A" />
            <stop offset="1" stop-color="#50C2F0" />
        </linearGradient>
        <linearGradient id="paint4_linear_1_100" x1="0.571686" y1="36.8776" x2="74.7756" y2="35.5954"
            gradientUnits="userSpaceOnUse">
            <stop stop-color="#51160D" />
            <stop offset="1" stop-color="#E00914" />
        </linearGradient>
        <linearGradient id="paint5_linear_1_100" x1="54.3931" y1="30.8876" x2="50.5623" y2="30.9643"
            gradientUnits="userSpaceOnUse">
            <stop stop-color="white" />
            <stop offset="1" stop-color="#F6FBFD" />
        </linearGradient>
        <linearGradient id="paint6_linear_1_100" x1="54.6339" y1="30.034" x2="50.5453" y2="30.1158"
            gradientUnits="userSpaceOnUse">
            <stop stop-color="white" />
            <stop offset="1" stop-color="#F6FBFD" />
        </linearGradient>
        <clipPath id="clip0_1_100">
            <rect width="79.9356" height="80" fill="white" />
        </clipPath>
    </defs>
</svg>