<?xml version="1.0" encoding="UTF-8"?>
<svg width="560pt" height="560pt" version="1.1" viewBox="0 0 560 560" xmlns="http://www.w3.org/2000/svg" xmlns:xlink="http://www.w3.org/1999/xlink">
 <g>
  <path fill="#34495E" d="m436.85 246.23h-68.516v-139.48h69.301c2.3203 0 4.5469-0.92188 6.1875-2.5625s2.5625-3.8672 2.5625-6.1875v-50.75c0.09375-12.379-4.7109-24.293-13.363-33.145-8.6562-8.8516-20.457-13.922-32.836-14.105-0.49609-0.042969-0.99219-0.042969-1.4883 0h-359.62c-9.8945 0-19.383 3.9258-26.387 10.914-7.0039 6.9844-10.953 16.469-10.977 26.359v355.16c0.023437 9.9023 3.9688 19.391 10.969 26.395 7.0039 7 16.492 10.945 26.395 10.969h185.24v108.76c0.023438 5.6953 2.3008 11.145 6.3359 15.164 4.0352 4.0195 9.4961 6.2734 15.188 6.2734h191.19c5.6406 0 11.051-2.2383 15.035-6.2266 3.9883-3.9883 6.2305-9.3984 6.2305-15.035v-271.25c-0.046874-5.6562-2.3281-11.062-6.3438-15.047-4.0117-3.9805-9.4414-6.2148-15.094-6.2148zm-68.516-198.98c0.5625-10.477 6.4805-19.926 15.656-25.008 9.1797-5.082 20.324-5.082 29.504 0 9.1758 5.082 15.09 14.531 15.652 25.008v42.523h-60.812zm-144.02 220.41v145.16h-185.24c-5.4062 0-10.594-2.1484-14.414-5.9688-3.8242-3.8242-5.9727-9.0117-5.9727-14.418v-355.16c-0.058594-5.3945 2.0938-10.578 5.9492-14.348 3.8281-3.8281 9.0234-5.9727 14.438-5.9492h323.75c-7.2344 8.4375-11.262 19.156-11.375 30.273v198.98h-105.61c-5.6914 0-11.152 2.2539-15.188 6.2734-4.0352 4.0156-6.3125 9.4688-6.3359 15.164zm217 271.25c-0.023438 1.1602-0.50781 2.2617-1.3438 3.0664-0.83594 0.80469-1.957 1.2422-3.1172 1.2188h-191.02c-1.1953 0.023437-2.3555-0.43359-3.2109-1.2734-0.85547-0.83984-1.3359-1.9883-1.3359-3.1875v-271.25c0-1.1992 0.48047-2.3477 1.3359-3.1875 0.85547-0.83984 2.0156-1.3008 3.2109-1.2773h191.02c2.4648 0 4.4609 2 4.4609 4.4648z"/>
  <path fill="#34495E" d="m261.94 340.64h158.73c2.3203 0 4.543-0.92188 6.1875-2.5625 1.6406-1.6406 2.5625-3.8672 2.5625-6.1875v-49.086c0-2.3203-0.92187-4.5469-2.5625-6.1875-1.6445-1.6406-3.8672-2.5625-6.1875-2.5625h-158.73c-4.832 0-8.75 3.918-8.75 8.75v49.699c0.32031 4.5898 4.1484 8.1484 8.75 8.1367zm8.75-49.352h141.75v32.465h-142.01z"/>
  <path fill="#34495E" d="m298.07 351.23h-36.398c-4.832 0-8.75 3.9141-8.75 8.75v36.488-0.003906c0 2.3203 0.92188 4.5469 2.5625 6.1875 1.6406 1.6406 3.8672 2.5625 6.1875 2.5625h36.398c2.3203 0 4.5469-0.92188 6.1875-2.5625 1.6406-1.6406 2.5625-3.8672 2.5625-6.1875v-36.75c-0.14062-4.7266-4.0156-8.4883-8.75-8.4844zm-8.75 36.488-19.16-0.003906v-19.512h19.426z"/>
  <path fill="#34495E" d="m359.5 351.23h-36.398c-4.8359 0-8.75 3.9141-8.75 8.75v36.488-0.003906c0 2.3203 0.92188 4.5469 2.5625 6.1875 1.6406 1.6406 3.8672 2.5625 6.1875 2.5625h36.398c2.3203 0 4.5469-0.92188 6.1875-2.5625 1.6406-1.6406 2.5625-3.8672 2.5625-6.1875v-36.75c-0.14062-4.7266-4.0195-8.4883-8.75-8.4844zm-8.75 36.488-19.164-0.003906v-19.512h19.426z"/>
  <path fill="#34495E" d="m420.93 351.23h-36.402c-4.832 0-8.75 3.9141-8.75 8.75v36.488-0.003906c0 2.3203 0.92187 4.5469 2.5625 6.1875 1.6445 1.6406 3.8672 2.5625 6.1875 2.5625h36.402c2.3203 0 4.5469-0.92188 6.1875-2.5625 1.6406-1.6406 2.5625-3.8672 2.5625-6.1875v-36.75c-0.14453-4.7266-4.0195-8.4883-8.75-8.4844zm-8.75 36.488-19.164-0.003906v-19.512h19.426z"/>
  <path fill="#34495E" d="m298.07 414.84h-36.398c-4.832 0-8.75 3.918-8.75 8.75v36.488c0 2.3203 0.92188 4.5469 2.5625 6.1875s3.8672 2.5625 6.1875 2.5625h36.398c2.3203 0 4.5469-0.92188 6.1875-2.5625s2.5625-3.8672 2.5625-6.1875v-36.75c-0.14062-4.7305-4.0156-8.4883-8.75-8.4883zm-8.75 36.488h-19.16v-19.512h19.426z"/>
  <path fill="#34495E" d="m359.5 414.84h-36.398c-4.8359 0-8.75 3.918-8.75 8.75v36.488c0 2.3203 0.92188 4.5469 2.5625 6.1875 1.6406 1.6406 3.8672 2.5625 6.1875 2.5625h36.398c2.3203 0 4.5469-0.92188 6.1875-2.5625s2.5625-3.8672 2.5625-6.1875v-36.75c-0.14062-4.7305-4.0195-8.4883-8.75-8.4883zm-8.75 36.488h-19.164v-19.512h19.426z"/>
  <path fill="#34495E" d="m420.93 414.84h-36.402c-4.832 0-8.75 3.918-8.75 8.75v36.488c0 2.3203 0.92187 4.5469 2.5625 6.1875 1.6445 1.6406 3.8672 2.5625 6.1875 2.5625h36.402c2.3203 0 4.5469-0.92188 6.1875-2.5625s2.5625-3.8672 2.5625-6.1875v-36.75c-0.14453-4.7305-4.0195-8.4883-8.75-8.4883zm-8.75 36.488h-19.164v-19.512h19.426z"/>
  <path fill="#34495E" d="m298.07 478.45h-36.398c-4.832 0-8.75 3.918-8.75 8.75v36.402c0 2.3203 0.92188 4.543 2.5625 6.1875 1.6406 1.6406 3.8672 2.5625 6.1875 2.5625h36.398c2.3203 0 4.5469-0.92187 6.1875-2.5625 1.6406-1.6445 2.5625-3.8672 2.5625-6.1875v-36.664c-0.14062-4.7305-4.0156-8.4883-8.75-8.4883zm-8.75 36.398-19.16 0.003906v-19.426h19.426z"/>
  <path fill="#34495E" d="m359.5 478.45h-36.398c-4.8359 0-8.75 3.918-8.75 8.75v36.402c0 2.3203 0.92188 4.543 2.5625 6.1875 1.6406 1.6406 3.8672 2.5625 6.1875 2.5625h36.398c2.3203 0 4.5469-0.92187 6.1875-2.5625 1.6406-1.6445 2.5625-3.8672 2.5625-6.1875v-36.664c-0.14062-4.7305-4.0195-8.4883-8.75-8.4883zm-8.75 36.398-19.164 0.003906v-19.426h19.426z"/>
  <path fill="#34495E" d="m420.93 478.45h-36.402c-4.832 0-8.75 3.918-8.75 8.75v36.402c0 2.3203 0.92187 4.543 2.5625 6.1875 1.6445 1.6406 3.8672 2.5625 6.1875 2.5625h36.402c2.3203 0 4.5469-0.92187 6.1875-2.5625 1.6406-1.6445 2.5625-3.8672 2.5625-6.1875v-36.664c-0.14453-4.7305-4.0195-8.4883-8.75-8.4883zm-8.75 36.398-19.164 0.003906v-19.426h19.426z"/>
  <path fill="#34495E" d="m215.79 77.875h96.25c3.5938-1.1602 6.0391-4.5 6.0586-8.2812 0.023438-3.7812-2.3867-7.1445-5.9727-8.3438h-96.25c-2.6133-0.65625-5.3867-0.070312-7.5117 1.5898-2.125 1.6562-3.3672 4.2031-3.3672 6.8984 0 2.6953 1.2422 5.2383 3.3672 6.8984 2.125 1.6562 4.8984 2.2422 7.5117 1.5898z"/>
  <path fill="#34495E" d="m215.79 140h96.25c3.8906-0.97656 6.6211-4.4727 6.6211-8.4883 0-4.0117-2.7305-7.5117-6.6211-8.4883h-96.25c-2.6172-0.65234-5.3867-0.066407-7.5117 1.5898-2.125 1.6602-3.3672 4.2031-3.3672 6.8984 0 2.6953 1.2422 5.2422 3.3672 6.8984 2.125 1.6602 4.8945 2.2461 7.5117 1.5898z"/>
  <path fill="#34495E" d="m320.61 193.55c0-2.3203-0.92188-4.5469-2.5625-6.1875s-3.8672-2.5625-6.1875-2.5625h-96.25c-3.8945 0.97656-6.625 4.4727-6.625 8.4883 0 4.0117 2.7305 7.5117 6.625 8.4844h96.25c4.6328 0.011718 8.4727-3.5977 8.75-8.2227z"/>
  <path fill="#34495E" d="m170.06 369.51h-123.81c-2.6289-0.71484-5.4453-0.16406-7.6094 1.4922s-3.4336 4.2266-3.4336 6.9531c0 2.7266 1.2695 5.2969 3.4336 6.9492 2.1641 1.6562 4.9805 2.207 7.6094 1.4922h123.81c2.6289 0.71484 5.4453 0.16406 7.6094-1.4922 2.1641-1.6523 3.4336-4.2227 3.4336-6.9492 0-2.7266-1.2695-5.2969-3.4336-6.9531s-4.9805-2.207-7.6094-1.4922z"/>
  <path fill="#34495E" d="m71.8 276.76 28.523 60.461v0.003906c1.4453 2.9453 4.418 4.8398 7.6992 4.8984 3.2852-0.058594 6.2578-1.9531 7.7031-4.8984l28.523-60.461v-0.003906c0.52734-1.0586 0.79688-2.2266 0.78906-3.4102v-191.28c0-13.223-7.0547-25.441-18.508-32.055-11.453-6.6094-25.562-6.6094-37.012 0-11.453 6.6133-18.508 18.832-18.508 32.055v191.1c-0.007813 1.1836 0.26172 2.3516 0.78906 3.4102zm36.227 37.012-15.137-32.113h30.273zm-20.039-231.7c0-7.1562 3.8164-13.773 10.02-17.352 6.1992-3.5781 13.836-3.5781 20.035 0s10.02 10.195 10.02 17.352v27.125h-40.074zm0 43.75h40.074v138.86h-40.074z"/>
 </g>
</svg>
