<svg width="700pt" height="700pt" viewBox="0 0 700 700" xmlns="http://www.w3.org/2000/svg"><path d="M542.5 105h-385a52.51 52.51 0 00-37.125 15.375A52.51 52.51 0 00105 157.5v245a52.51 52.51 0 0015.375 37.125A52.51 52.51 0 00157.5 455h385a52.51 52.51 0 0037.125-15.375A52.51 52.51 0 00595 402.5v-245a52.51 52.51 0 00-15.375-37.125A52.51 52.51 0 00542.5 105zm-8.398 35l-172.27 157.92h-.004c-3.227 2.96-7.45 4.602-11.828 4.602s-8.602-1.641-11.828-4.602L165.902 140zm-394.1 256.59V163.75l128.96 118.21zm26.355 23.414l128.54-114.26 19.633 18.008c9.652 8.934 22.32 13.898 35.473 13.898s25.82-4.965 35.473-13.898l19.637-17.988 128.54 114.24zm393.64-23.414l-128.96-114.62 128.96-118.21z"/></svg>