<?xml version="1.0" encoding="UTF-8"?>
<svg width="700pt" height="700pt" version="1.1" viewBox="0 0 700 700" xmlns="http://www.w3.org/2000/svg">
    <path
        d="m542.5 105h-385c-13.926 0-27.277 5.5312-37.125 15.375-9.8438 9.8477-15.375 23.199-15.375 37.125v245c0 13.926 5.5312 27.277 15.375 37.125 9.8477 9.8438 23.199 15.375 37.125 15.375h385c13.926 0 27.277-5.5312 37.125-15.375 9.8438-9.8477 15.375-23.199 15.375-37.125v-245c0-13.926-5.5312-27.277-15.375-37.125-9.8477-9.8438-23.199-15.375-37.125-15.375zm-8.3984 35-172.27 157.92h-0.003906c-3.2266 2.9609-7.4492 4.6016-11.828 4.6016s-8.6016-1.6406-11.828-4.6016l-172.27-157.92zm-394.1 256.59v-232.84l128.96 118.21zm26.355 23.414 128.54-114.26 19.633 18.008c9.6523 8.9336 22.32 13.898 35.473 13.898s25.82-4.9648 35.473-13.898l19.637-17.988 128.54 114.24zm393.64-23.414-128.96-114.62 128.96-118.21z" />
</svg>