<?xml version="1.0" encoding="UTF-8"?>
<svg width="560pt" height="560pt" version="1.1" viewBox="0 0 560 560" xmlns="http://www.w3.org/2000/svg"
    xmlns:xlink="http://www.w3.org/1999/xlink">
    <g>
        <path fill="#003B7E"
            d="m557.08 43.918c0-14.496-11.754-26.25-26.25-26.25h-501.67c-14.496 0-26.25 11.754-26.25 26.25v472.16c0 14.496 11.754 26.25 26.25 26.25h501.67c14.496 0 26.25-11.754 26.25-26.25zm-17.5 0v472.16c0 4.8281-3.9219 8.75-8.75 8.75h-501.67c-4.8281 0-8.75-3.9219-8.75-8.75v-472.16c0-4.8281 3.9219-8.75 8.75-8.75h501.67c4.8281 0 8.75 3.9219 8.75 8.75z"
            fill-rule="evenodd" />
        <path fill="#003B7E"
            d="m320.48 174.78c0-11.277-9.1406-20.418-20.418-20.418h-91.203c-11.277 0-20.418 9.1406-20.418 20.418v91.203c0 11.277 9.1406 20.418 20.418 20.418h91.203c11.277 0 20.418-9.1406 20.418-20.418zm-17.5 0v91.203c0 1.6094-1.3086 2.918-2.918 2.918h-91.203c-1.6094 0-2.918-1.3086-2.918-2.918v-91.203c0-1.6094 1.3086-2.918 2.918-2.918h91.203c1.6094 0 2.918 1.3086 2.918 2.918z"
            fill-rule="evenodd" />
        <path fill="#003B7E"
            d="m320.48 349.94c0-11.277-9.1406-20.418-20.418-20.418h-91.203c-11.277 0-20.418 9.1406-20.418 20.418v91.203c0 11.277 9.1406 20.418 20.418 20.418h91.203c11.277 0 20.418-9.1406 20.418-20.418zm-17.5 0v91.203c0 1.6094-1.3086 2.918-2.918 2.918h-91.203c-1.6094 0-2.918-1.3086-2.918-2.918v-91.203c0-1.6094 1.3086-2.918 2.918-2.918h91.203c1.6094 0 2.918 1.3086 2.918 2.918z"
            fill-rule="evenodd" />
        <path fill="#003B7E"
            d="m501.68 174.78c0-11.277-9.1406-20.418-20.418-20.418h-91.203c-11.277 0-20.418 9.1406-20.418 20.418v91.203c0 11.277 9.1406 20.418 20.418 20.418h91.203c11.277 0 20.418-9.1406 20.418-20.418zm-17.5 0v91.203c0 1.6094-1.3086 2.918-2.918 2.918h-91.203c-1.6094 0-2.918-1.3086-2.918-2.918v-91.203c0-1.6094 1.3086-2.918 2.918-2.918h91.203c1.6094 0 2.918 1.3086 2.918 2.918z"
            fill-rule="evenodd" />
        <path fill="#003B7E"
            d="m501.68 349.94c0-11.277-9.1406-20.418-20.418-20.418h-91.203c-11.277 0-20.418 9.1406-20.418 20.418v91.203c0 11.277 9.1406 20.418 20.418 20.418h91.203c11.277 0 20.418-9.1406 20.418-20.418zm-17.5 0v91.203c0 1.6094-1.3086 2.918-2.918 2.918h-91.203c-1.6094 0-2.918-1.3086-2.918-2.918v-91.203c0-1.6094 1.3086-2.918 2.918-2.918h91.203c1.6094 0 2.918 1.3086 2.918 2.918z"
            fill-rule="evenodd" />
        <path fill="#003B7E"
            d="m315.39 225.39c-17.395-8.0039-30.758-7.1641-44.941-4.1484-17.727 3.7617-36.953 11.59-71.266 3.5742-4.7031-1.0977-9.4102 1.8242-10.512 6.5352-1.0977 4.7031 1.832 9.4102 6.5352 10.504 31.977 7.4727 52.242 2.8711 69.586-1.3242 14.426-3.4961 26.426-7.0039 43.285 0.75391 4.3867 2.0195 9.5859 0.097657 11.609-4.2891 2.0195-4.3867 0.09375-9.5898-4.293-11.609z"
            fill-rule="evenodd" />
        <path fill="#003B7E"
            d="m315.39 400.56c-17.395-8.0039-30.758-7.1562-44.941-4.1484-17.727 3.7695-36.953 11.59-71.266 3.5742-4.7031-1.0977-9.4102 1.8242-10.512 6.5352-1.0977 4.7031 1.832 9.4102 6.5352 10.504 31.977 7.4727 52.242 2.875 69.586-1.3242 14.426-3.4961 26.426-7.0039 43.285 0.75391 4.3867 2.0195 9.5859 0.097656 11.609-4.2891 2.0195-4.3867 0.09375-9.5898-4.293-11.609z"
            fill-rule="evenodd" />
        <path fill="#003B7E"
            d="m496.59 225.39c-17.395-8.0039-30.758-7.1641-44.941-4.1484-17.727 3.7617-36.953 11.59-71.266 3.5742-4.7031-1.0977-9.4102 1.8242-10.512 6.5352-1.0977 4.7031 1.8242 9.4102 6.5352 10.504 31.973 7.4727 52.242 2.8711 69.586-1.3242 14.426-3.4961 26.426-7.0039 43.285 0.75391 4.3867 2.0195 9.5859 0.097657 11.602-4.2891 2.0234-4.3867 0.097656-9.5898-4.2891-11.609z"
            fill-rule="evenodd" />
        <path fill="#003B7E"
            d="m496.59 400.56c-17.395-8.0039-30.758-7.1562-44.941-4.1484-17.727 3.7695-36.953 11.59-71.266 3.5742-4.7031-1.0977-9.4102 1.8242-10.512 6.5352-1.0977 4.7031 1.8242 9.4102 6.5352 10.504 31.973 7.4727 52.242 2.875 69.586-1.3242 14.426-3.4961 26.426-7.0039 43.285 0.75391 4.3867 2.0195 9.5859 0.097656 11.602-4.2891 2.0234-4.3867 0.097656-9.5898-4.2891-11.609z"
            fill-rule="evenodd" />
        <path fill="#003B7E"
            d="m247.52 240.08c2.7891 2.9648 7.3672 3.6641 10.961 1.4453 7.9609-4.9062 13.277-13.715 13.277-23.746 0-15.387-12.496-27.883-27.883-27.883s-27.883 12.496-27.883 27.883c0 13.234 9.2383 24.324 21.613 27.172 4.1133 0.94922 8.2266-1.1797 9.918-4.8711zm-1.582-9.6484c0.69531-1.5234 1.832-2.8594 3.3594-3.8047 2.9688-1.8242 4.957-5.1055 4.957-8.8477 0-5.7266-4.6562-10.383-10.383-10.383-5.7344 0-10.383 4.6562-10.383 10.383 0 4.9297 3.4375 9.0586 8.0391 10.121 1.7539 0.40234 3.2656 1.3086 4.4102 2.5312z"
            fill-rule="evenodd" />
        <path fill="#003B7E"
            d="m247.52 415.24c2.7891 2.9648 7.3672 3.6641 10.961 1.4453 7.9609-4.9062 13.277-13.715 13.277-23.746 0-15.387-12.496-27.883-27.883-27.883s-27.883 12.496-27.883 27.883c0 13.234 9.2383 24.324 21.613 27.172 4.1133 0.94922 8.2266-1.1797 9.918-4.8711zm-1.582-9.6484c0.69531-1.5234 1.832-2.8594 3.3594-3.8047 2.9688-1.8242 4.957-5.1055 4.957-8.8477 0-5.7266-4.6562-10.383-10.383-10.383-5.7344 0-10.383 4.6562-10.383 10.383 0 4.9297 3.4375 9.0586 8.0391 10.121 1.7539 0.40234 3.2656 1.3086 4.4102 2.5312z"
            fill-rule="evenodd" />
        <path fill="#003B7E"
            d="m428.73 240.08c2.7812 2.9648 7.3633 3.6641 10.961 1.4453 7.9609-4.9062 13.27-13.715 13.27-23.746 0-15.387-12.488-27.883-27.879-27.883-15.387 0-27.883 12.496-27.883 27.883 0 13.234 9.2383 24.324 21.613 27.172 4.1133 0.94922 8.2188-1.1797 9.918-4.8711zm-1.582-9.6484c0.69531-1.5234 1.832-2.8594 3.3594-3.8047 2.9688-1.8242 4.9531-5.1055 4.9531-8.8477 0-5.7266-4.6484-10.383-10.379-10.383-5.7344 0-10.383 4.6562-10.383 10.383 0 4.9297 3.4375 9.0586 8.0391 10.121 1.7539 0.40234 3.2617 1.3086 4.4102 2.5312z"
            fill-rule="evenodd" />
        <path fill="#003B7E"
            d="m428.73 415.24c2.7812 2.9648 7.3633 3.6641 10.961 1.4453 7.9609-4.9062 13.27-13.715 13.27-23.746 0-15.387-12.488-27.883-27.879-27.883-15.387 0-27.883 12.496-27.883 27.883 0 13.234 9.2383 24.324 21.613 27.172 4.1133 0.94922 8.2188-1.1797 9.918-4.8711zm-1.582-9.6484c0.69531-1.5234 1.832-2.8594 3.3594-3.8047 2.9688-1.8242 4.9531-5.1055 4.9531-8.8477 0-5.7266-4.6484-10.383-10.379-10.383-5.7344 0-10.383 4.6562-10.383 10.383 0 4.9297 3.4375 9.0586 8.0391 10.121 1.7539 0.40234 3.2617 1.3086 4.4102 2.5312z"
            fill-rule="evenodd" />
        <path fill="#003B7E"
            d="m154.27 533.58v-390.62c0-4.8281-3.9219-8.75-8.75-8.75s-8.75 3.9219-8.75 8.75v390.62c0 4.8242 3.9219 8.75 8.75 8.75s8.75-3.9258 8.75-8.75z"
            fill-rule="evenodd" />
        <path fill="#003B7E"
            d="m50.56 177.52h46.07c4.8281 0 8.75-3.9219 8.75-8.75s-3.9219-8.75-8.75-8.75h-46.07c-4.8281 0-8.75 3.9219-8.75 8.75s3.9219 8.75 8.75 8.75z"
            fill-rule="evenodd" />
        <path fill="#003B7E"
            d="m50.56 288.75h46.07c4.8281 0 8.75-3.9219 8.75-8.75s-3.9219-8.75-8.75-8.75h-46.07c-4.8281 0-8.75 3.9219-8.75 8.75s3.9219 8.75 8.75 8.75z"
            fill-rule="evenodd" />
        <path fill="#003B7E"
            d="m50.56 216h46.07c4.8281 0 8.75-3.9258 8.75-8.75 0-4.8281-3.9219-8.75-8.75-8.75h-46.07c-4.8281 0-8.75 3.9219-8.75 8.75 0 4.8242 3.9219 8.75 8.75 8.75z"
            fill-rule="evenodd" />
        <path fill="#003B7E"
            d="m50.56 327.24h46.07c4.8281 0 8.75-3.9219 8.75-8.75s-3.9219-8.75-8.75-8.75h-46.07c-4.8281 0-8.75 3.9219-8.75 8.75s3.9219 8.75 8.75 8.75z"
            fill-rule="evenodd" />
        <path fill="#003B7E"
            d="m50.56 254.48h46.07c4.8281 0 8.75-3.9219 8.75-8.75 0-4.8242-3.9219-8.75-8.75-8.75h-46.07c-4.8281 0-8.75 3.9258-8.75 8.75 0 4.8281 3.9219 8.75 8.75 8.75z"
            fill-rule="evenodd" />
        <path fill="#003B7E"
            d="m50.56 365.73h46.07c4.8281 0 8.75-3.9219 8.75-8.75 0-4.8281-3.9219-8.75-8.75-8.75h-46.07c-4.8281 0-8.75 3.9219-8.75 8.75 0 4.8281 3.9219 8.75 8.75 8.75z"
            fill-rule="evenodd" />
        <path fill="#003B7E"
            d="m73.73 116.75h474.6c4.8281 0 8.75-3.9219 8.75-8.75s-3.9219-8.75-8.75-8.75h-474.6c-4.8281 0-8.75 3.9219-8.75 8.75s3.9219 8.75 8.75 8.75zm-62.066 0h28.707c4.8281 0 8.75-3.9219 8.75-8.75s-3.9219-8.75-8.75-8.75h-28.707c-4.8281 0-8.75 3.9219-8.75 8.75s3.9219 8.75 8.75 8.75z"
            fill-rule="evenodd" />
        <path fill="#003B7E"
            d="m461.4 75.961h38.688c4.8281 0 8.75-3.9219 8.75-8.75 0-4.8281-3.9219-8.75-8.75-8.75h-38.688c-4.8281 0-8.75 3.9219-8.75 8.75 0 4.8281 3.9219 8.75 8.75 8.75z"
            fill-rule="evenodd" />
        <path fill="#003B7E"
            d="m374.15 75.961h38.688c4.8281 0 8.75-3.9219 8.75-8.75 0-4.8281-3.9219-8.75-8.75-8.75h-38.688c-4.8281 0-8.75 3.9219-8.75 8.75 0 4.8281 3.9219 8.75 8.75 8.75z"
            fill-rule="evenodd" />
        <path fill="#003B7E"
            d="m65.92 75.961h25.34c4.8281 0 8.75-3.9219 8.75-8.75 0-4.8281-3.9219-8.75-8.75-8.75h-25.34c-4.8281 0-8.75 3.9219-8.75 8.75 0 4.8281 3.9219 8.75 8.75 8.75z"
            fill-rule="evenodd" />
    </g>
</svg>