<svg width="350" height="350" viewBox="0 0 350 350" xmlns="http://www.w3.org/2000/svg">
    <g>
        <path fill="#003B7E"
            d="m99 150.92c0 3.3594-2.8008 6.1602-6.1602 6.1602h-18.48c-3.3594 0-6.1602-2.8008-6.1602-6.1602v-18.48c0-3.3594 2.8008-6.1602 6.1602-6.1602h18.48c3.3594 0 6.1602 2.8008 6.1602 6.1602zm42.559-17.922c0-3.3594-2.8008-6.1602-6.1602-6.1602h-18.48c-3.3594 0-6.1602 2.8008-6.1602 6.1602v18.48c0 3.3594 2.8008 6.1602 6.1602 6.1602h18.48c3.3594 0 6.1602-2.8008 6.1602-6.1602zm42.559 0c0-3.3594-2.8008-6.1602-6.1602-6.1602h-18.48c-3.3594 0-6.1602 2.8008-6.1602 6.1602v18.48c0 3.3594 2.8008 6.1602 6.1602 6.1602h18.48c3.3594 0 6.1602-2.8008 6.1602-6.1602zm-42.559 40.879c0-3.3594-2.8008-6.1602-6.1602-6.1602h-18.48c-3.3594 0-6.1602 2.8008-6.1602 6.1602v18.48c0 3.3594 2.8008 6.1602 6.1602 6.1602h18.48c3.3594 0 6.1602-2.8008 6.1602-6.1602zm42.559 0c0-3.3594-2.8008-6.1602-6.1602-6.1602h-18.48c-3.3594 0-6.1602 2.8008-6.1602 6.1602v18.48c0 3.3594 2.8008 6.1602 6.1602 6.1602h18.48c3.3594 0 6.1602-2.8008 6.1602-6.1602zm42 18.48v-18.48c0-3.3594-2.8008-6.1602-6.1602-6.1602h-18.48c-3.3594 0-6.1602 2.8008-6.1602 6.1602v18.48c0 3.3594 2.8008 6.1602 6.1602 6.1602h18.48c3.3594 0 6.1602-2.8008 6.1602-6.1602zm-133.28-24.641h-18.48c-3.3594 0-6.1602 2.8008-6.1602 6.1602v18.48c0 3.3594 2.8008 6.1602 6.1602 6.1602h18.48c3.3594 0 6.1602-2.8008 6.1602-6.1602v-18.48c0-3.3594-2.8008-6.1602-6.1602-6.1602zm84.559 40.883h-18.48c-3.3594 0-6.1602 2.8008-6.1602 6.1602v18.48c0 3.3594 2.8008 6.1602 6.1602 6.1602h18.48c3.3594 0 6.1602-2.8008 6.1602-6.1602v-18.48c0.55859-2.8008-2.8008-6.1602-6.1602-6.1602zm-42 0h-18.48c-3.3594 0-6.1602 2.8008-6.1602 6.1602v18.48c0 3.3594 2.8008 6.1602 6.1602 6.1602h18.48c3.3594 0 6.1602-2.8008 6.1602-6.1602v-18.48c0-2.8008-2.8008-6.1602-6.1602-6.1602zm47.602 81.758c-1.6797-8.3984-2.2383-16.801-1.6797-25.199h-133.84c-10.641 0-19.039-8.3984-19.039-19.039v-144.48h243.04v71.68c8.3984-0.55859 17.359 0 25.199 1.1211l0.003906-99.68c0-24.641-20.16-44.801-44.801-44.801h-10.078l-0.003906 16.238c0 10.641-8.3984 19.039-19.039 19.039h-19.039c-10.641 0-19.039-8.3984-19.039-19.039v-15.68h-70v15.68c0 10.641-8.3984 19.039-19.039 19.039h-19.039c-10.641 0-19.039-8.3984-19.039-19.039v-15.68h-10.078c-24.641 0-44.801 20.16-44.801 44.801v170.8c0 24.641 20.16 44.801 44.801 44.801h135.52zm-104.16-236.32h14c5.6016 0 10.078-4.4805 10.078-10.078v-31.359c0-5.6016-4.4805-10.078-10.078-10.078h-14c-5.6016 0-10.078 4.4805-10.078 10.078v31.359c-0.5625 5.5977 4.4766 10.078 10.078 10.078zm127.12-51.52c-5.6016 0-10.078 4.4805-10.078 10.078v31.359c0 5.6016 4.4805 10.078 10.078 10.078h14c5.6016 0 10.078-4.4805 10.078-10.078l0.003907-31.355c0-5.6016-4.4805-10.078-10.078-10.078zm-3.918 268.24c0-42.559 34.16-76.719 76.719-76.719 42.559 0 76.719 34.16 76.719 76.719 0 42.559-34.16 76.719-76.719 76.719-42.559 0-76.719-34.16-76.719-76.719zm37.52 0.55859c0 2.2383 1.1211 5.0391 2.8008 6.7188l19.602 19.602c3.3594 3.3594 9.5195 3.3594 12.879 0l39.762-39.762c1.6797-1.6797 2.8008-3.9219 2.8008-6.7188 0-2.2383-1.1211-5.0391-2.8008-6.7188-3.3594-3.3594-9.5195-3.3594-12.879 0l-33.602 33.602-12.324-13.441c-3.3594-3.3594-9.5195-3.3594-12.879 0-2.2383 2.2383-3.3594 4.4766-3.3594 6.7188z" />
    </g>
</svg>