<?xml version="1.0" encoding="UTF-8"?>
<svg width="460pt" height="460pt" version="1.1" viewBox="0 0 460 460" xmlns="http://www.w3.org/2000/svg"
    xmlns:xlink="http://www.w3.org/1999/xlink">
    <g>
        <path fill="#2880b9"
            d="m340 260v-225.88c0-20.535-16.805-37.336-37.328-37.336h-261.34c-20.523 0-37.336 16.801-37.336 37.336v336c0 20.523 16.812 37.328 37.336 37.328h205.77c17.023 22.551 43.801 37.336 74.227 37.336 51.531 0 93.336-41.797 93.336-93.336 0-45.145-32.082-82.789-74.672-91.453zm-37.328 0c-42.582 8.6641-74.672 46.305-74.672 91.453 0 6.4023 0.65625 12.633 1.8984 18.672h-188.56v-336h261.34zm74.664 105.45h-70v-69.992h28v41.996l42-0.003907z" />
        <path fill="#2880b9" d="m80 220h149.33v37.328h-149.33z" />
        <path fill="#2880b9" d="m80 290h112v37.328h-112z" />
        <path fill="#2880b9" d="m80 150h186.66v37.336h-186.66z" />
        <path fill="#2880b9" d="m80 80h149.33v37.336h-149.33z" />
    </g>
</svg>