<?xml version="1.0" encoding="UTF-8"?>
<svg width="482pt" height="482pt" version="1.1" viewBox="0 0 482 482" xmlns="http://www.w3.org/2000/svg" xmlns:xlink="http://www.w3.org/1999/xlink">

 <g>
  <path fill="#34495E" d="m151.07 334.55c-15.781-15.785-38.012-23.332-60.145-20.418-22.129 2.9102-41.648 15.953-52.812 35.285-11.16 19.332-12.695 42.754-4.1562 63.379 8.543 20.625 26.191 36.102 47.754 41.879 21.562 5.7812 44.586 1.1992 62.297-12.391 17.711-13.586 28.094-34.641 28.094-56.965 0.023438-19.047-7.543-37.32-21.031-50.77zm-50.77-34.496c26.512 0 51.516 12.328 67.656 33.355 16.141 21.031 21.578 48.375 14.719 73.98-6.8594 25.609-25.238 46.57-49.73 56.715-24.492 10.145-52.309 8.3242-75.27-4.9297-22.957-13.254-38.445-36.434-41.906-62.719-3.4609-26.281 5.4961-52.68 24.242-71.426 15.973-16.016 37.672-25.004 60.289-24.977zm68.047 17.227c21.156 21.152 31.27 50.945 27.363 80.605-3.9062 29.66-21.383 55.82-47.293 70.777-25.906 14.957-57.301 17.016-84.941 5.5664-27.637-11.445-48.383-35.098-56.125-63.996-7.7422-28.898-1.6055-59.754 16.605-83.488 18.215-23.734 46.43-37.648 76.344-37.648 25.531-0.035156 50.02 10.109 68.047 28.184zm136.41-32.781h-29.629v25.988h29.629zm-36.367-13.469h43.121c3.7109 0 6.7188 3.0078 6.7188 6.7188v39.457c0 3.7109-3.0078 6.7227-6.7188 6.7227h-43.121c-3.7109 0-6.7188-3.0117-6.7188-6.7227v-39.441c0-3.7109 3.0078-6.7188 6.7188-6.7188zm103.48 13.469h-29.625v25.988h29.629v-25.988zm-36.359-13.469h43.121c3.7109 0 6.7227 3.0078 6.7227 6.7188v39.457c0 3.7109-3.0117 6.7227-6.7227 6.7227h-43.121c-3.7109 0-6.7188-3.0117-6.7188-6.7227v-39.441c0-3.7109 3.0078-6.7188 6.7188-6.7188zm103.48 13.469h-29.625v25.988h29.629v-25.988zm-36.367-13.469h43.125c3.7109 0 6.7188 3.0078 6.7188 6.7188v39.457c0 3.7109-3.0078 6.7227-6.7188 6.7227h-43.121c-3.7109 0-6.7188-3.0117-6.7188-6.7227v-39.441c0-3.7109 3.0078-6.7188 6.7188-6.7188zm-97.867 76.844h-29.629v25.984h29.629zm-36.367-13.477h43.121c3.7109 0 6.7188 3.0117 6.7188 6.7227v39.457c0 3.7109-3.0078 6.7188-6.7188 6.7188h-43.121c-3.7109 0-6.7188-3.0078-6.7188-6.7188v-39.457c0-3.7109 3.0078-6.7227 6.7188-6.7227zm103.48 13.469h-29.625v25.984h29.629v-25.984zm-36.359-13.469h43.121c3.7109 0 6.7227 3.0117 6.7227 6.7227v39.457c0 3.7109-3.0117 6.7188-6.7227 6.7188h-43.121c-3.7109 0-6.7188-3.0078-6.7188-6.7188v-39.457c0-3.7109 3.0078-6.7227 6.7188-6.7227zm-30.754 76.844h-29.629v25.988h29.629zm-36.367-13.469h43.121c3.7109 0 6.7188 3.0117 6.7188 6.7227v39.453-0.003907c0 3.7148-3.0078 6.7227-6.7188 6.7227h-43.121c-3.7109 0-6.7188-3.0078-6.7188-6.7227v-39.434c0-3.7109 3.0078-6.7188 6.7188-6.7188zm103.48 13.469h-29.625v25.988h29.629v-25.988zm-36.359-13.469h43.121c3.7109 0 6.7227 3.0117 6.7227 6.7227v39.453-0.003907c0 3.7148-3.0117 6.7227-6.7227 6.7227h-43.121c-3.7109 0-6.7188-3.0078-6.7188-6.7227v-39.434c0-3.7109 3.0078-6.7188 6.7188-6.7188zm103.48-49.902-29.625 0.003906v89.359h29.629v-89.359zm-36.363-13.473h43.121c3.7109 0 6.7188 3.0117 6.7188 6.7227v102.84c0 3.7109-3.0078 6.7188-6.7188 6.7188h-43.121c-3.7109 0-6.7188-3.0078-6.7188-6.7188v-102.84c0-3.7109 3.0078-6.7227 6.7188-6.7227zm36.367-146.72h-163.87v51.172h163.87zm-170.61-13.496h177.34c3.7109 0 6.7188 3.0078 6.7188 6.7188v64.66c0 3.7109-3.0078 6.7188-6.7188 6.7188h-177.34c-3.7109 0-6.7188-3.0078-6.7188-6.7188v-64.648c0-3.7109 3.0078-6.7188 6.7188-6.7188zm-62.488 181.32h17.633v-26.023h-28.793c4.832 8.1523 8.5859 16.898 11.16 26.023zm-15.922 93.004h33.555v-79.52h-14.742c0.80469 5.4102 1.207 10.875 1.207 16.344 0.035156 22.629-6.9609 44.711-20.02 63.191zm47.039 6.7188v-294.81c0.027344-6.9375 5.6445-12.559 12.586-12.586h213.75-0.003906c6.9414 0.027344 12.555 5.6484 12.582 12.586v298.48c-0.027344 6.9375-5.6445 12.555-12.582 12.582h-213.77c-6.9336-0.027344-12.551-5.6445-12.582-12.582v-3.6562zm-164.36-400.33h28.07c3.8516-0.019532 6.9648-3.1328 6.9922-6.9844v-35.516l-35.062 42.477zm48.531-52.449h286.72c3.8477 0.023437 6.9609 3.1406 6.9805 6.9883v124.93h-165.3c-4.0859-0.011719-8.1133 0.94922-11.758 2.8008h-132.79v13.469l120.4-0.003906c-1.2578 3.1016-1.9062 6.418-1.8984 9.7617v46.434l-118.5 0.003906v13.5h118.5v26.023h-118.5v13.469h118.5v56.195h-38.203c-14.129-17.32-33.207-29.914-54.688-36.102-21.477-6.1875-44.332-5.6758-65.512 1.4727v-213.02h35.594c5.4219-0.011719 10.621-2.168 14.453-6 3.8359-3.8359 5.9922-9.0312 6.0039-14.453v-45.465zm-16.148 108.72h166.06c3.7188 0 6.7344-3.0156 6.7344-6.7344s-3.0156-6.7344-6.7344-6.7344h-166.06c-3.7188 0-6.7344 3.0156-6.7344 6.7344s3.0156 6.7344 6.7344 6.7344zm1.9922 316.59v5.3125h0.003906c0 3.7227-3.0156 6.7344-6.7344 6.7344s-6.7344-3.0117-6.7344-6.7344v-5.3125c-1.2656-0.28906-2.5117-0.66406-3.7305-1.1211-4.8164-1.582-8.9922-4.6797-11.91-8.8242-2.9141-4.1484-4.418-9.125-4.2812-14.191 0-3.7109 3.0117-6.7188 6.7227-6.7188 3.7109 0 6.7188 3.0078 6.7188 6.7188-0.11719 4.707 2.875 8.9336 7.3516 10.387 3.7734 1.3398 7.8945 1.3398 11.668 0 4.4766-1.4531 7.4648-5.6797 7.3477-10.387 0-8.6055-7.3242-10.203-14.637-11.801-12.605-2.75-25.199-5.5-25.199-24.84h-0.003907c-0.13672-5.0664 1.3633-10.043 4.2812-14.191 2.9141-4.1445 7.0938-7.2422 11.906-8.8242 1.2188-0.45703 2.4648-0.83203 3.7305-1.1211v-5.3125c0-3.7188 3.0156-6.7344 6.7344-6.7344s6.7344 3.0156 6.7344 6.7344v5.3125c1.2656 0.28906 2.5078 0.66406 3.7227 1.1211 4.8164 1.582 8.9922 4.6797 11.91 8.8242 2.918 4.1484 4.418 9.125 4.2812 14.191 0 3.7109-3.0078 6.7188-6.7188 6.7188-3.7148 0-6.7227-3.0078-6.7227-6.7188 0.11719-4.6914-2.8555-8.9062-7.3125-10.371-3.7734-1.3281-7.8906-1.3281-11.664 0-4.4922 1.4453-7.4922 5.6758-7.375 10.395 0 8.5078 7.2812 10.078 14.559 11.688 12.621 2.7539 25.262 5.5156 25.262 24.953 0.13672 5.0664-1.3633 10.043-4.2812 14.191-2.918 4.1445-7.0938 7.2383-11.906 8.8242-1.2148 0.44531-2.4531 0.8125-3.7148 1.0977z" fill-rule="evenodd"/>
 </g>
</svg>
