<?xml version="1.0" encoding="UTF-8"?>
<svg width="550pt" height="550pt" version="1.1" viewBox="0 0 550 550" xmlns="http://www.w3.org/2000/svg" xmlns:xlink="http://www.w3.org/1999/xlink">
 <g>
  <path d="m91.4 303.52c-2.2383 0-3.9219 1.6797-3.9219 3.9219v36.398c0 2.2383 1.6797 3.9219 3.9219 3.9219h134.96c7.2812-16.238 17.922-31.359 30.238-44.238z"/>
  <path d="m112 389.52c-7.2812 0-14.559 2.8008-19.602 7.8398l-52.078 47.039v-405.44h324.8v202.16c5.6016-1.1211 12.32-1.1211 18.48-1.1211s12.32 0.55859 18.48 1.1211v-210c0-16.238-12.879-29.121-29.121-29.121h-340.48c-16.238 0-29.121 12.879-29.121 29.121v429.52c0 11.762 7.2812 22.398 17.359 26.879 3.9219 1.6797 7.8398 2.2383 11.762 2.2383 7.2812 0 14.559-2.2383 19.602-7.2812l62.16-56.559h101.92c-1.1211-5.6016-1.1211-12.32-1.1211-18.48s0.55859-12.32 1.1211-18.48l-104.16 0.003907z"/>
  <path d="m303.76 109.2c0-2.2383-1.6797-3.9219-3.9219-3.9219l-209.44 0.003906c-2.2383 0-3.9219 1.6797-3.9219 3.9219l0.003907 36.398c0 2.2383 1.6797 3.9219 3.9219 3.9219h209.44c2.2383 0 3.9219-1.6797 3.9219-3.9219z"/>
  <path d="m299.84 204.4h-209.44c-2.2383 0-3.9219 1.6797-3.9219 3.9219v36.398c0 2.2383 1.6797 3.9219 3.9219 3.9219h209.44c2.2383 0 3.9219-1.6797 3.9219-3.9219v-36.398c0-2.2422-1.6836-3.9219-3.9219-3.9219z"/>
  <path d="m376.56 293.44c-69.441 0-126.56 56.559-126.56 126.56s56.559 126.56 126.56 126.56 126.56-56.559 126.56-126.56c0.003906-70-56.559-126.56-126.56-126.56zm0 215.6c-49.281 0-89.602-40.32-89.602-89.602s40.32-89.602 89.602-89.602 89.602 40.32 89.602 89.602-39.762 89.602-89.602 89.602z"/>
  <path d="m400.08 381.92-35.281 39.762-15.68-15.68c-7.2812-7.2812-19.039-7.2812-25.762 0-7.2812 7.2812-7.2812 19.039 0 25.762l29.68 29.68c3.3594 3.3594 7.8398 5.6016 12.879 5.6016h0.55859c5.0391 0 10.078-2.2383 13.441-6.1602l48.16-54.32c6.7188-7.8398 6.1602-19.039-1.6797-25.762-7.8359-7.2852-19.594-6.1641-26.316 1.1172z"/>
 </g>
</svg>
