<?xml version="1.0" encoding="UTF-8"?>
<svg width="540pt" height="540pt" version="1.1" viewBox="0 0 540 540" xmlns="http://www.w3.org/2000/svg"
    xmlns:xlink="http://www.w3.org/1999/xlink">

    <g>
        <path fill="#2880b9"
            d="m223.75 61.25c0 9.6641-7.8359 17.5-17.5 17.5s-17.5-7.8359-17.5-17.5 7.8359-17.5 17.5-17.5 17.5 7.8359 17.5 17.5" />
        <path fill="#2880b9"
            d="m153.75 332.5h-52.5c-4.6406 0-9.0938 1.8438-12.375 5.125s-5.125 7.7344-5.125 12.375v52.5c0 4.6406 1.8438 9.0938 5.125 12.375s7.7344 5.125 12.375 5.125h52.5c4.6406 0 9.0938-1.8438 12.375-5.125s5.125-7.7344 5.125-12.375v-52.5c0-4.6406-1.8438-9.0938-5.125-12.375s-7.7344-5.125-12.375-5.125zm-52.5 70v-52.5h52.5v52.5z" />
        <path fill="#2880b9" d="m188.75 262.5h70v17.5h-70z" />
        <path fill="#2880b9" d="m188.75 227.5h35v17.5h-35z" />
        <path fill="#2880b9" d="m188.75 385h35v17.5h-35z" />
        <path fill="#2880b9" d="m188.75 350h35v17.5h-35z" />
        <path fill="#2880b9" d="m241.25 227.5h52.5v17.5h-52.5z" />
        <path fill="#2880b9"
            d="m363.75 358.75c2.3203 0 4.5469 0.92188 6.1875 2.5625s2.5625 3.8672 2.5625 6.1875h17.5c-0.023438-5.4102-1.7148-10.68-4.8477-15.09-3.1328-4.4102-7.5508-7.7461-12.652-9.5508v-10.359h-17.5v10.359c-7.8398 2.7617-13.906 9.082-16.34 17.031s-0.94922 16.582 4 23.262c4.9492 6.6797 12.777 10.613 21.09 10.598 3.5391 0 6.7305 2.1328 8.082 5.4023 1.3555 3.2695 0.60938 7.0312-1.8945 9.5352s-6.2656 3.25-9.5352 1.8945c-3.2695-1.3516-5.4023-4.543-5.4023-8.082h-17.5c0.023438 5.4102 1.7148 10.68 4.8477 15.09 3.1328 4.4102 7.5508 7.7461 12.652 9.5508v10.359h17.5v-10.359c7.8398-2.7617 13.906-9.082 16.34-17.031s0.94922-16.582-4-23.262c-4.9492-6.6797-12.777-10.613-21.09-10.598-4.832 0-8.75-3.918-8.75-8.75s3.918-8.75 8.75-8.75z" />
        <path fill="#2880b9"
            d="m363.75 297.5c-23.207 0-45.461 9.2188-61.871 25.629s-25.629 38.664-25.629 61.871 9.2188 45.461 25.629 61.871 38.664 25.629 61.871 25.629 45.461-9.2188 61.871-25.629 25.629-38.664 25.629-61.871c-0.027344-23.199-9.2539-45.441-25.656-61.844s-38.645-25.629-61.844-25.656zm0 157.5c-18.566 0-36.371-7.375-49.496-20.504-13.129-13.125-20.504-30.93-20.504-49.496s7.375-36.371 20.504-49.496c13.125-13.129 30.93-20.504 49.496-20.504s36.371 7.375 49.496 20.504c13.129 13.125 20.504 30.93 20.504 49.496-0.019531 18.559-7.4023 36.352-20.527 49.473-13.121 13.125-30.914 20.508-49.473 20.527z" />
        <path fill="#2880b9"
            d="m486.25 385c-0.039062-26.363-8.5742-52.016-24.332-73.148-15.762-21.133-37.91-36.629-63.168-44.188v-118.91c-0.015625-11.598-4.6289-22.719-12.828-30.922-8.2031-8.1992-19.324-12.812-30.922-12.828h-44.625c-2.0312-9.875-7.4023-18.75-15.215-25.125-7.8086-6.375-17.578-9.8633-27.66-9.875h-17.5v-26.25c0-6.9609-2.7656-13.641-7.6875-18.562s-11.602-7.6875-18.562-7.6875h-35c-6.9609 0-13.641 2.7656-18.562 7.6875s-7.6875 11.602-7.6875 18.562v26.25h-17.5c-10.082 0.011719-19.852 3.5-27.66 9.875-7.8125 6.375-13.184 15.25-15.215 25.125h-44.625c-11.598 0.015625-22.719 4.6289-30.922 12.828-8.1992 8.2031-12.812 19.324-12.828 30.922v350c0.015625 11.598 4.6289 22.719 12.828 30.922 8.2031 8.1992 19.324 12.812 30.922 12.828h297.5c10.934-0.03125 21.457-4.168 29.488-11.586 8.0312-7.4219 12.988-17.582 13.887-28.48 25.344-7.4922 47.59-22.973 63.426-44.133 15.836-21.16 24.41-46.871 24.449-73.301zm-367.5-271.25c0-6.9609 2.7656-13.641 7.6875-18.562s11.602-7.6875 18.562-7.6875h26.25c2.3203 0 4.5469-0.92188 6.1875-2.5625s2.5625-3.8672 2.5625-6.1875v-35c0-4.832 3.918-8.75 8.75-8.75h35c2.3203 0 4.5469 0.92188 6.1875 2.5625s2.5625 3.8672 2.5625 6.1875v35c0 2.3203 0.92188 4.5469 2.5625 6.1875s3.8672 2.5625 6.1875 2.5625h26.25c6.9609 0 13.641 2.7656 18.562 7.6875s7.6875 11.602 7.6875 18.562v26.25h-175zm236.25 411.25h-297.5c-6.9609 0-13.641-2.7656-18.562-7.6875s-7.6875-11.602-7.6875-18.562v-350c0-6.9609 2.7656-13.641 7.6875-18.562s11.602-7.6875 18.562-7.6875h43.75v26.25c0 2.3203 0.92188 4.5469 2.5625 6.1875s3.8672 2.5625 6.1875 2.5625h192.5c2.3203 0 4.5469-0.92188 6.1875-2.5625s2.5625-3.8672 2.5625-6.1875v-26.25h43.75c6.9609 0 13.641 2.7656 18.562 7.6875s7.6875 11.602 7.6875 18.562v115.15c-33.648-4.8633-67.805 4.4805-94.289 25.801-26.484 21.316-42.91 52.688-45.348 86.598-2.4336 33.91 9.3398 67.309 32.504 92.191 23.164 24.887 55.637 39.016 89.633 39.012 5.4414-0.042969 10.875-0.44531 16.266-1.207-1.6133 5.3867-4.918 10.113-9.4219 13.48-4.5039 3.3672-9.9688 5.1992-15.594 5.2266zm8.75-35c-27.848 0-54.555-11.062-74.246-30.754s-30.754-46.398-30.754-74.246 11.062-54.555 30.754-74.246 46.398-30.754 74.246-30.754 54.555 11.062 74.246 30.754 30.754 46.398 30.754 74.246c-0.03125 27.84-11.102 54.527-30.785 74.215-19.688 19.684-46.375 30.754-74.215 30.785z" />
        <path fill="#2880b9" d="m407.5 376.25h17.5v17.5h-17.5z" />
        <path fill="#2880b9" d="m302.5 376.25h17.5v17.5h-17.5z" />
        <path fill="#2880b9"
            d="m173.81 203.81-9.6758 9.6875c-2.9922-2.2578-6.6367-3.4844-10.387-3.5h-52.5c-4.6406 0-9.0938 1.8438-12.375 5.125s-5.125 7.7344-5.125 12.375v52.5c0 4.6406 1.8438 9.0938 5.125 12.375s7.7344 5.125 12.375 5.125h52.5c4.6406 0 9.0938-1.8438 12.375-5.125s5.125-7.7344 5.125-12.375v-48.879l14.938-14.938zm-20.062 76.188h-52.5v-52.5h48.879l-22.629 22.629-11.312-11.312-12.371 12.371 17.5 17.5h-0.003906c3.418 3.4141 8.957 3.4141 12.375 0l20.062-20.074z" />
    </g>
</svg>