<?xml version="1.0" encoding="UTF-8"?>
<svg width="530pt" height="530pt" version="1.1" viewBox="0 0 530 530" xmlns="http://www.w3.org/2000/svg"
    xmlns:xlink="http://www.w3.org/1999/xlink">

    <g>
        <path fill="#2880b9"
            d="m520 41h-40.914v-30.977c0-4.832-3.9141-8.75-8.75-8.75h-178.79c-4.8359 0-8.75 3.918-8.75 8.75v30.977h-50.852c-4.8359 0-8.75 3.918-8.75 8.75v124.2c-8.293-4.1328-17.484-6.4219-26.949-6.4219-20.914 0-39.801 10.574-50.961 27.535-15.285-12.129-34.062-18.785-54.039-18.785-48.246 0-87.5 39.25-87.5 87.5s39.254 87.5 87.5 87.5c15.508 0 30.547-4.1602 43.75-11.82v46.82c0 33.773 27.48 61.25 61.25 61.25 12.641 0 24.801-3.9336 35-11.109 10.199 7.1758 22.359 11.109 35 11.109 33.77 0 61.25-27.477 61.25-61.25h192.5c4.8359 0 8.75-3.918 8.75-8.75v-327.77c0-4.832-3.9141-8.75-8.75-8.75zm-382.52 170.62c-0.70703 2.3906-1.2188 4.8281-1.6211 7.2891-0.10938 0.66797-0.20703 1.3359-0.29688 2.0078-0.33594 2.5938-0.56641 5.2109-0.56641 7.8594v89.59c-12.375 9.9609-27.762 15.41-43.75 15.41-38.598 0-70-31.402-70-70s31.402-70 70-70c17.348 0 33.598 6.1875 46.305 17.527-0.03125 0.10156-0.039063 0.21094-0.070313 0.31641zm162.82-192.84h161.29v30.805c0 0.058593-0.035157 0.10937-0.035157 0.16797v21.051l-161.25 0.003906zm-147.8 210c0-5.7148 1.1016-11.27 3.2891-16.555 6.7422-16.523 22.629-27.195 40.461-27.195 7.8711 0 15.211 1.9727 22.039 6.0078 2.7266 1.4961 5.2734 3.3828 8.0156 6.0156 0.32422 0.26953 0.58984 0.54297 0.89062 0.83984 8.2578 8.1836 12.805 19.156 12.805 30.887v61.25h-87.5zm53.273 166.67c0.097656 0.64844 0.19141 1.2891 0.30859 1.9336 0.54297 2.9414 1.2656 5.832 2.2266 8.6445 0.13672 0.40234 0.3125 0.78516 0.45703 1.1836 0.94922 2.6094 2.082 5.1367 3.375 7.5859 0.21875 0.41406 0.41016 0.83984 0.64062 1.2461 1.4609 2.6172 3.125 5.1094 4.9648 7.4883 0.14453 0.1875 0.24219 0.40234 0.39062 0.58984-6.582 3.8477-14.121 5.9062-21.887 5.9062-24.121 0-43.75-19.629-43.75-43.75v-78.75h87.5v23.383c-1.5039 0.71875-2.9727 1.5117-4.3672 2.3711-3.3242 1.9141-6.4766 4.1445-9.4062 6.6562-13.492 11.676-21.227 28.566-21.227 46.34 0 3.0977 0.31641 6.1523 0.77344 9.1719zm60.477 34.578c-10.801 0-21.148-3.9805-29.199-11.273-9.2461-8.1914-14.551-20.031-14.551-32.477 0-12.688 5.5273-24.758 15.141-33.082 2.0781-1.7773 4.332-3.375 6.9375-4.8711 2.1797-1.3398 4.5273-2.4258 7.168-3.2656 2.1094-0.76953 4.2891-1.3203 6.5-1.7383 1.2734-0.23438 2.5664-0.32422 3.8555-0.4375 0.87109-0.082031 1.7344-0.19531 2.6172-0.22656 10.352-0.27734 20.863 3.1562 29.043 9.7461 0.19922 0.16406 0.39844 0.32031 0.59375 0.48828 1.5625 1.3086 3.0547 2.7148 4.418 4.2539 5.6406 6.2383 9.2812 13.758 10.57 21.938 0.44141 2.4102 0.65625 4.7656 0.65625 7.1953 0 24.121-19.629 43.75-43.75 43.75zm245-61.25h-186.3c-0.054687-0.18359-0.13672-0.35547-0.19141-0.53906-0.19141-0.625-0.44922-1.2266-0.66016-1.8438-0.63672-1.8555-1.3438-3.6797-2.1641-5.4688-0.36719-0.80078-0.76172-1.582-1.1641-2.3672-0.83984-1.6367-1.7578-3.2266-2.75-4.7891-0.4375-0.69141-0.85156-1.3906-1.3203-2.0664-1.4961-2.1562-3.0938-4.2539-4.8789-6.2266-1.6133-1.8203-3.3477-3.5039-5.1484-5.1016-0.32812-0.28906-0.68359-0.55078-1.0195-0.83203-1.5781-1.3398-3.2148-2.5977-4.9141-3.7656-0.24609-0.16797-0.5-0.32422-0.74609-0.48828-1.9141-1.2734-3.8945-2.4297-5.9375-3.4766-0.054687-0.027344-0.10938-0.058594-0.16797-0.085937-8.4688-4.3086-17.902-6.6992-27.633-6.6992-0.19922 0-0.38672 0.046875-0.58594 0.050781-2.7266 0.015625-5.4531 0.17969-8.1641 0.57812v-96.879c0-2.0234-0.10156-4.0273-0.29297-6.0117-0.0625-0.64453-0.19141-1.2695-0.27344-1.9062-0.16797-1.3281-0.32812-2.6562-0.58594-3.9648-0.15234-0.78125-0.375-1.5391-0.55859-2.3125-0.26953-1.1406-0.51953-2.2891-0.85156-3.4102-0.23828-0.80469-0.54688-1.582-0.82031-2.375-0.36328-1.0547-0.70703-2.1172-1.1289-3.1523-0.32422-0.79688-0.71484-1.5664-1.0703-2.3516-0.45312-0.99219-0.89453-1.9883-1.4023-2.957-0.41016-0.78125-0.87891-1.5273-1.3242-2.293-0.53906-0.92578-1.0664-1.8555-1.6602-2.7539-0.49609-0.75391-1.043-1.4727-1.5742-2.2031-0.625-0.86328-1.2383-1.7266-1.9102-2.5586-0.57812-0.71484-1.1992-1.3945-1.8125-2.0859-0.51953-0.58594-0.99609-1.2031-1.543-1.7734l0.007813-128.16h42.082v21.09c0 4.832 3.9141 8.75 8.75 8.75h178.77c2.4297 0 4.625-0.99219 6.207-2.5898 1.5898-1.5859 2.5781-3.7734 2.5781-6.1953v-21.051l32.164-0.003907z" />
        <path fill="#2880b9"
            d="m325.12 106.16h-39.727c-4.8359 0-8.75 3.918-8.75 8.75v39.723c0 4.832 3.9141 8.75 8.75 8.75h39.727c4.8359 0 8.75-3.918 8.75-8.75v-39.723c0-4.832-3.9141-8.75-8.75-8.75zm-8.75 39.723h-22.227v-22.223h22.227z" />
        <path fill="#2880b9"
            d="m325.12 185.61h-39.727c-4.8359 0-8.75 3.918-8.75 8.75v39.727c0 4.832 3.9141 8.75 8.75 8.75h39.727c4.8359 0 8.75-3.918 8.75-8.75v-39.727c0-4.832-3.9141-8.75-8.75-8.75zm-8.75 39.727h-22.227v-22.227h22.227z" />
        <path fill="#2880b9"
            d="m325.12 264.06h-39.727c-4.8359 0-8.75 3.918-8.75 8.75v39.727c0 4.832 3.9141 8.75 8.75 8.75h39.727c4.8359 0 8.75-3.918 8.75-8.75v-39.727c0-4.832-3.9141-8.75-8.75-8.75zm-8.75 39.723h-22.227v-22.227h22.227z" />
        <path fill="#2880b9"
            d="m484.16 126h-99.324c-4.8359 0-8.75 3.918-8.75 8.75 0 4.832 3.9141 8.75 8.75 8.75h99.328c4.8359 0 8.75-3.918 8.75-8.75-0.003906-4.832-3.918-8.75-8.7539-8.75z" />
        <path fill="#2880b9"
            d="m484.16 205.46h-99.324c-4.8359 0-8.75 3.918-8.75 8.75s3.9141 8.75 8.75 8.75h99.328c4.8359 0 8.75-3.918 8.75-8.75-0.003906-4.832-3.918-8.75-8.7539-8.75z" />
        <path fill="#2880b9"
            d="m484.16 284.91h-99.324c-4.8359 0-8.75 3.918-8.75 8.75 0 4.832 3.9141 8.75 8.75 8.75h99.328c4.8359 0 8.75-3.918 8.75-8.75-0.003906-4.832-3.918-8.75-8.7539-8.75z" />
        <path fill="#2880b9"
            d="m61.07 294.31c1.7109 1.7109 3.9492 2.5625 6.1875 2.5625 2.2383 0 4.4766-0.85547 6.1875-2.5625l49.492-49.5c3.418-3.418 3.418-8.9609 0-12.375-3.418-3.418-8.9531-3.418-12.375 0l-49.492 49.5c-3.418 3.418-3.418 8.9609 0 12.375z" />
        <path fill="#2880b9"
            d="m258.71 369.59c1.5742-1.6602 2.5391-3.9375 2.5391-6.2109 0-2.2773-0.96484-4.5508-2.5391-6.2109-3.3242-3.2383-9.1875-3.2383-12.426 0-1.5781 1.6602-2.5352 3.9336-2.5352 6.2109 0 2.2734 0.95703 4.5508 2.5391 6.2109 1.6562 1.5742 3.9375 2.5391 6.2109 2.5391s4.5469-0.96484 6.2109-2.5391z" />
        <path fill="#2880b9"
            d="m284.96 370.91c-0.43359-0.35156-0.87891-0.70312-1.3164-1.0508-0.51953-0.35156-1.0508-0.61719-1.5703-0.78906-0.53125-0.26172-1.0508-0.4375-1.668-0.51953-1.0508-0.26563-2.2734-0.26563-3.4102 0-0.51953 0.085937-1.0508 0.26172-1.5703 0.51953-0.53125 0.17578-1.0508 0.44141-1.582 0.78906-0.4375 0.35156-0.87109 0.69922-1.3086 1.0508-0.78516 0.87109-1.3984 1.8359-1.8359 2.8828-0.52734 1.0508-0.69922 2.1875-0.69922 3.3281 0 0.52734 0.085938 1.1367 0.17188 1.7461 0.09375 0.52734 0.26562 1.0508 0.53125 1.5781 0.16797 0.52344 0.43359 1.0508 0.78516 1.5781 0.26562 0.4375 0.69922 0.87109 1.0508 1.3125 0.4375 0.35156 0.87109 0.69922 1.3086 1.0469 0.53125 0.35156 1.0508 0.61719 1.582 0.78906 0.51953 0.26172 1.0508 0.4375 1.5703 0.52734 0.61328 0.082031 1.1328 0.17188 1.75 0.17188 0.51953 0 1.1367-0.089844 1.6562-0.17578 0.61719-0.089844 1.1367-0.26562 1.668-0.52734 0.51953-0.17578 1.0508-0.44141 1.5703-0.78906 0.4375-0.34766 0.87891-0.69531 1.3164-1.0469 0.35156-0.44141 0.69922-0.875 1.0508-1.3125 0.35156-0.52344 0.60938-1.0508 0.78906-1.5742 0.26562-0.52734 0.4375-1.0508 0.51953-1.5781 0.09375-0.60938 0.17969-1.2188 0.17969-1.7461 0-1.1406-0.26562-2.2773-0.69922-3.3281-0.4375-1.0469-1.0508-2.0117-1.8398-2.8828z" />
        <path fill="#2880b9"
            d="m270.46 399.16c-2.4531-2.4531-6.3906-3.1523-9.5352-1.8398-1.1367 0.44141-2.0156 1.0508-2.8867 1.8398-0.78906 0.87109-1.4023 1.8359-1.8398 2.8828-0.43359 1.0508-0.69922 2.1875-0.69922 3.3281 0 1.1367 0.26562 2.2734 0.69922 3.3242 0.4375 1.1367 1.0508 2.0977 1.8359 2.8867 0.87109 0.78516 1.75 1.3984 2.8867 1.8359 1.0547 0.4375 2.1914 0.70312 3.3281 0.70312 2.2734 0 4.5469-0.96484 6.2109-2.5391 0.78516-0.78906 1.4023-1.75 1.8359-2.8867 0.4375-1.0508 0.70312-2.1875 0.70312-3.3242 0-1.1406-0.26562-2.2773-0.69922-3.3281-0.4375-1.0469-1.0508-2.0117-1.8398-2.8828z" />

    </g>
</svg>