<svg width="700pt" height="700pt" viewBox="0 0 700 700" xmlns="http://www.w3.org/2000/svg"><path d="M630 442.27c0 7.16-1.324 16.504-3.977 28.039-2.652 11.535-5.437 20.617-8.351 27.246-5.567 13.258-21.742 27.312-48.523 42.16C544.227 553.238 519.567 560 495.172 560c-7.16 0-14.121-.465-20.88-1.39-6.76-.93-14.382-2.587-22.87-4.973-8.485-2.387-14.781-4.309-18.891-5.766s-11.47-4.176-22.074-8.152c-10.605-3.977-17.102-6.364-19.488-7.16-25.984-9.282-49.188-20.285-69.602-33.012-33.938-20.945-69.004-49.516-105.2-85.711-36.195-36.2-64.766-71.266-85.715-105.2-12.727-20.418-23.73-43.617-33.012-69.602-.797-2.387-3.184-8.883-7.16-19.488s-6.696-17.965-8.153-22.074c-1.457-4.11-3.379-10.406-5.765-18.891s-4.043-16.11-4.973-22.871c-.926-6.762-1.39-13.723-1.39-20.883 0-24.395 6.761-49.055 20.284-73.977 14.848-26.781 28.902-42.953 42.16-48.523 6.625-2.915 15.707-5.7 27.242-8.352s20.88-3.977 28.04-3.977c3.71 0 6.496.399 8.351 1.192 4.773 1.59 11.801 11.668 21.078 30.227 2.918 5.039 6.894 12.195 11.934 21.477a2039.56 2039.56 0 0013.922 25.254 853.232 853.232 0 0012.328 21.277c.797 1.058 3.117 4.375 6.96 9.941 3.845 5.567 6.696 10.273 8.552 14.121 1.855 3.844 2.785 7.625 2.785 11.336 0 5.305-3.777 11.934-11.336 19.887a194.105 194.105 0 01-24.66 21.875c-8.883 6.63-17.102 13.656-24.66 21.078-7.559 7.422-11.336 13.523-11.336 18.297 0 2.387.664 5.371 1.988 8.95 1.324 3.577 2.453 6.296 3.38 8.152.929 1.855 2.784 5.039 5.565 9.547 2.786 4.507 4.31 7.027 4.575 7.558 20.152 36.324 43.219 67.48 69.203 93.465 25.984 25.984 57.14 49.055 93.465 69.203.53.266 3.047 1.79 7.558 4.574 4.508 2.786 7.688 4.641 9.547 5.567 1.856.93 4.574 2.054 8.152 3.379 3.579 1.328 6.563 1.988 8.95 1.988 4.773 0 10.87-3.777 18.297-11.336 7.426-7.559 14.453-15.777 21.078-24.66 6.629-8.883 13.922-17.102 21.875-24.66s14.582-11.336 19.887-11.336c3.71 0 7.492.93 11.336 2.785s8.55 4.707 14.12 8.551c5.567 3.844 8.883 6.164 9.942 6.96a860.515 860.515 0 0021.277 12.329 2100.652 2100.652 0 0025.254 13.922c9.281 5.039 16.438 9.015 21.477 11.934 18.562 9.281 28.637 16.309 30.227 21.078.797 1.855 1.191 4.64 1.191 8.351z"/></svg>