<?xml version="1.0" encoding="UTF-8"?>
<svg width="700pt" height="700pt" version="1.1" viewBox="0 0 700 700" xmlns="http://www.w3.org/2000/svg"
    xmlns:xlink="http://www.w3.org/1999/xlink">
    <g>
        <path
            d="m630 442.27c0 7.1602-1.3242 16.504-3.9766 28.039-2.6523 11.535-5.4375 20.617-8.3516 27.246-5.5664 13.258-21.742 27.312-48.523 42.16-24.922 13.523-49.582 20.285-73.977 20.285-7.1602 0-14.121-0.46484-20.879-1.3906-6.7617-0.92969-14.383-2.5859-22.871-4.9727-8.4844-2.3867-14.781-4.3086-18.891-5.7656s-11.469-4.1758-22.074-8.1523c-10.605-3.9766-17.102-6.3633-19.488-7.1602-25.984-9.2812-49.188-20.285-69.602-33.012-33.938-20.945-69.004-49.516-105.2-85.711-36.195-36.199-64.766-71.266-85.715-105.2-12.727-20.418-23.73-43.617-33.012-69.602-0.79688-2.3867-3.1836-8.8828-7.1602-19.488s-6.6953-17.965-8.1523-22.074c-1.457-4.1094-3.3789-10.406-5.7656-18.891s-4.043-16.109-4.9727-22.871c-0.92578-6.7617-1.3906-13.723-1.3906-20.883 0-24.395 6.7617-49.055 20.285-73.977 14.848-26.781 28.902-42.953 42.16-48.523 6.625-2.9141 15.707-5.6992 27.242-8.3516 11.535-2.6523 20.879-3.9766 28.039-3.9766 3.7109 0 6.4961 0.39844 8.3516 1.1914 4.7734 1.5898 11.801 11.668 21.078 30.227 2.918 5.0391 6.8945 12.195 11.934 21.477 5.0391 9.2812 9.6797 17.699 13.922 25.254 4.2422 7.5586 8.3516 14.648 12.328 21.277 0.79688 1.0586 3.1172 4.375 6.9609 9.9414 3.8438 5.5664 6.6953 10.273 8.5508 14.121 1.8555 3.8438 2.7852 7.625 2.7852 11.336 0 5.3047-3.7773 11.934-11.336 19.887-7.5586 7.9531-15.777 15.246-24.66 21.875-8.8828 6.6289-17.102 13.656-24.66 21.078-7.5586 7.4219-11.336 13.523-11.336 18.297 0 2.3867 0.66406 5.3711 1.9883 8.9492 1.3242 3.5781 2.4531 6.2969 3.3789 8.1523 0.92969 1.8555 2.7852 5.0391 5.5664 9.5469 2.7852 4.5078 4.3086 7.0273 4.5742 7.5586 20.152 36.324 43.219 67.48 69.203 93.465 25.984 25.984 57.141 49.055 93.465 69.203 0.53125 0.26562 3.0469 1.7891 7.5586 4.5742 4.5078 2.7852 7.6875 4.6406 9.5469 5.5664 1.8555 0.92969 4.5742 2.0547 8.1523 3.3789 3.5781 1.3281 6.5625 1.9883 8.9492 1.9883 4.7734 0 10.871-3.7773 18.297-11.336 7.4258-7.5586 14.453-15.777 21.078-24.66 6.6289-8.8828 13.922-17.102 21.875-24.66s14.582-11.336 19.887-11.336c3.7109 0 7.4922 0.92969 11.336 2.7852s8.5508 4.707 14.121 8.5508c5.5664 3.8438 8.8828 6.1641 9.9414 6.9609 6.6289 3.9766 13.723 8.0859 21.277 12.328 7.5586 4.2422 15.977 8.8828 25.254 13.922 9.2812 5.0391 16.438 9.0156 21.477 11.934 18.562 9.2812 28.637 16.309 30.227 21.078 0.79688 1.8555 1.1914 4.6406 1.1914 8.3516z" />
    </g>
</svg>