<?xml version="1.0" standalone="no"?>
<!DOCTYPE svg PUBLIC "-//W3C//DTD SVG 20010904//EN"
 "http://www.w3.org/TR/2001/REC-SVG-20010904/DTD/svg10.dtd">
<svg version="1.0" xmlns="http://www.w3.org/2000/svg"
 width="700.000000pt" height="700.000000pt" viewBox="0 0 700.000000 700.000000"
 preserveAspectRatio="xMidYMid meet">
<metadata>
Created by potrace 1.14, written by Peter Selinger 2001-2017
</metadata>
<g transform="translate(0.000000,700.000000) scale(0.100000,-0.100000)"
fill="#000000" stroke="none">
<path d="M3298 6995 c-2 -1 -48 -6 -103 -9 -54 -4 -101 -9 -105 -10 -3 -2 -32
-6 -65 -10 -33 -3 -96 -13 -140 -22 -44 -8 -93 -18 -110 -20 -52 -9 -255 -64
-360 -98 -302 -100 -617 -252 -864 -419 -42 -28 -78 -54 -81 -57 -3 -3 -50
-39 -105 -80 -173 -130 -362 -308 -520 -490 -127 -147 -300 -388 -366 -510
-13 -25 -27 -47 -31 -50 -10 -8 -183 -367 -197 -409 -6 -18 -8 -38 -4 -44 3
-6 1 -7 -5 -3 -11 7 -16 -7 -15 -41 1 -7 -3 -11 -7 -8 -7 4 -11 -6 -25 -57 -2
-5 -4 -10 -5 -13 -1 -3 -3 -8 -4 -12 -1 -5 -11 -37 -23 -73 -67 -206 -126
-486 -151 -715 -10 -95 -9 -674 1 -755 5 -36 10 -76 12 -90 5 -44 15 -105 20
-120 2 -8 6 -32 9 -53 9 -58 44 -215 62 -277 184 -627 468 -1114 909 -1555
474 -475 1084 -805 1745 -944 93 -20 113 -24 215 -41 68 -12 938 -11 998 0 26
5 69 12 95 16 26 3 56 8 67 11 11 2 34 7 50 9 117 21 476 127 570 169 17 8 59
26 95 40 107 44 327 157 450 231 385 231 751 562 1011 914 332 448 549 955
645 1505 25 144 26 167 28 555 1 223 -2 432 -6 465 -5 33 -11 78 -13 100 -12
83 -58 294 -90 410 -88 316 -227 630 -402 908 -63 101 -194 289 -213 307 -3 3
-39 46 -80 95 -89 108 -294 316 -405 410 -292 250 -644 462 -1005 605 -30 12
-62 24 -70 25 -8 2 -16 4 -17 5 -2 2 -6 3 -10 4 -5 1 -60 18 -123 38 -268 85
-423 117 -740 154 -55 6 -516 15 -522 9z"/>
</g>
</svg>
