<svg viewBox="0 0 515.1029792325394 109.69162686305054" height="84.22632756175113" width="395.52"><g transform="matrix(1,0,0,1,119.58297923253929,33.896304863333796)"><svg viewBox="0 0 395.52000000000004 41.899017136382945" height="41.899017136382945" width="395.52000000000004"><g><svg viewBox="0 0 395.52000000000004 41.899017136382945" height="41.899017136382945" width="395.52000000000004"><g><svg viewBox="0 0 395.52000000000004 41.899017136382945" height="41.899017136382945" width="395.52000000000004"><g transform="matrix(1,0,0,1,0,0)"><svg width="395.52000000000004" viewBox="1.649999976158142 -37 353.02001953125 37.400001525878906" height="41.899017136382945" data-palette-color="#030303"><path d="M1.65-17.6Q1.65-22.8 3.9-26.88 6.15-30.95 10.18-33.23 14.2-35.5 19.3-35.5L19.3-35.5Q25.55-35.5 30-32.2 34.45-28.9 35.95-23.2L35.95-23.2 26.55-23.2Q25.5-25.4 23.58-26.55 21.65-27.7 19.2-27.7L19.2-27.7Q15.25-27.7 12.8-24.95 10.35-22.2 10.35-17.6L10.35-17.6Q10.35-13 12.8-10.25 15.25-7.5 19.2-7.5L19.2-7.5Q21.65-7.5 23.58-8.65 25.5-9.8 26.55-12L26.55-12 35.95-12Q34.45-6.3 30-3.03 25.55 0.25 19.3 0.25L19.3 0.25Q14.2 0.25 10.18-2.02 6.15-4.3 3.9-8.35 1.65-12.4 1.65-17.6L1.65-17.6ZM67.5-14.4Q67.5-13.2 67.35-11.9L67.35-11.9 48-11.9Q48.2-9.3 49.67-7.93 51.15-6.55 53.3-6.55L53.3-6.55Q56.5-6.55 57.75-9.25L57.75-9.25 66.85-9.25Q66.15-6.5 64.32-4.3 62.5-2.1 59.75-0.85 57 0.4 53.6 0.4L53.6 0.4Q49.5 0.4 46.3-1.35 43.1-3.1 41.3-6.35 39.5-9.6 39.5-13.95L39.5-13.95Q39.5-18.3 41.27-21.55 43.05-24.8 46.25-26.55 49.45-28.3 53.6-28.3L53.6-28.3Q57.65-28.3 60.8-26.6 63.95-24.9 65.72-21.75 67.5-18.6 67.5-14.4L67.5-14.4ZM48.05-16.65L58.75-16.65Q58.75-18.85 57.25-20.15 55.75-21.45 53.5-21.45L53.5-21.45Q51.35-21.45 49.87-20.2 48.4-18.95 48.05-16.65L48.05-16.65ZM83.35 0.4Q79.7 0.4 76.85-0.85 74-2.1 72.35-4.28 70.7-6.45 70.5-9.15L70.5-9.15 78.95-9.15Q79.1-7.7 80.3-6.8 81.5-5.9 83.25-5.9L83.25-5.9Q84.85-5.9 85.72-6.53 86.6-7.15 86.6-8.15L86.6-8.15Q86.6-9.35 85.35-9.93 84.1-10.5 81.3-11.2L81.3-11.2Q78.3-11.9 76.3-12.68 74.3-13.45 72.85-15.13 71.4-16.8 71.4-19.65L71.4-19.65Q71.4-22.05 72.72-24.03 74.05-26 76.62-27.15 79.2-28.3 82.75-28.3L82.75-28.3Q88-28.3 91.02-25.7 94.05-23.1 94.5-18.8L94.5-18.8 86.6-18.8Q86.4-20.25 85.32-21.1 84.25-21.95 82.5-21.95L82.5-21.95Q81-21.95 80.2-21.38 79.4-20.8 79.4-19.8L79.4-19.8Q79.4-18.6 80.67-18 81.95-17.4 84.65-16.8L84.65-16.8Q87.75-16 89.7-15.23 91.65-14.45 93.12-12.73 94.6-11 94.65-8.1L94.65-8.1Q94.65-5.65 93.27-3.73 91.9-1.8 89.32-0.7 86.75 0.4 83.35 0.4L83.35 0.4ZM98.19-14Q98.19-18.3 99.82-21.55 101.44-24.8 104.24-26.55 107.04-28.3 110.49-28.3L110.49-28.3Q113.44-28.3 115.67-27.1 117.89-25.9 119.09-23.95L119.09-23.95 119.09-27.9 127.64-27.9 127.64 0 119.09 0 119.09-3.95Q117.84-2 115.62-0.8 113.39 0.4 110.44 0.4L110.44 0.4Q107.04 0.4 104.24-1.38 101.44-3.15 99.82-6.43 98.19-9.7 98.19-14L98.19-14ZM119.09-13.95Q119.09-17.15 117.32-19 115.54-20.85 112.99-20.85L112.99-20.85Q110.44-20.85 108.67-19.03 106.89-17.2 106.89-14L106.89-14Q106.89-10.8 108.67-8.93 110.44-7.05 112.99-7.05L112.99-7.05Q115.54-7.05 117.32-8.9 119.09-10.75 119.09-13.95L119.09-13.95ZM142.39-23.25Q143.89-25.55 146.14-26.88 148.39-28.2 151.14-28.2L151.14-28.2 151.14-19.15 148.79-19.15Q145.59-19.15 143.99-17.78 142.39-16.4 142.39-12.95L142.39-12.95 142.39 0 133.84 0 133.84-27.9 142.39-27.9 142.39-23.25ZM198.59-24L189.14-24Q188.19-25.75 186.41-26.68 184.64-27.6 182.24-27.6L182.24-27.6Q178.09-27.6 175.59-24.88 173.09-22.15 173.09-17.6L173.09-17.6Q173.09-12.75 175.71-10.03 178.34-7.3 182.94-7.3L182.94-7.3Q186.09-7.3 188.26-8.9 190.44-10.5 191.44-13.5L191.44-13.5 180.59-13.5 180.59-19.8 199.19-19.8 199.19-11.85Q198.24-8.65 195.96-5.9 193.69-3.15 190.19-1.45 186.69 0.25 182.29 0.25L182.29 0.25Q177.09 0.25 173.01-2.02 168.94-4.3 166.66-8.35 164.39-12.4 164.39-17.6L164.39-17.6Q164.39-22.8 166.66-26.88 168.94-30.95 172.99-33.23 177.04-35.5 182.24-35.5L182.24-35.5Q188.54-35.5 192.86-32.45 197.19-29.4 198.59-24L198.59-24ZM212.48-23.25Q213.98-25.55 216.23-26.88 218.48-28.2 221.23-28.2L221.23-28.2 221.23-19.15 218.88-19.15Q215.68-19.15 214.08-17.78 212.48-16.4 212.48-12.95L212.48-12.95 212.48 0 203.93 0 203.93-27.9 212.48-27.9 212.48-23.25ZM223.63-14Q223.63-18.3 225.26-21.55 226.88-24.8 229.68-26.55 232.48-28.3 235.93-28.3L235.93-28.3Q238.88-28.3 241.11-27.1 243.33-25.9 244.53-23.95L244.53-23.95 244.53-27.9 253.08-27.9 253.08 0 244.53 0 244.53-3.95Q243.28-2 241.06-0.8 238.83 0.4 235.88 0.4L235.88 0.4Q232.48 0.4 229.68-1.38 226.88-3.15 225.26-6.43 223.63-9.7 223.63-14L223.63-14ZM244.53-13.95Q244.53-17.15 242.76-19 240.98-20.85 238.43-20.85L238.43-20.85Q235.88-20.85 234.11-19.03 232.33-17.2 232.33-14L232.33-14Q232.33-10.8 234.11-8.93 235.88-7.05 238.43-7.05L238.43-7.05Q240.98-7.05 242.76-8.9 244.53-10.75 244.53-13.95L244.53-13.95ZM276.28-28.2Q281.18-28.2 284.1-25.03 287.03-21.85 287.03-16.3L287.03-16.3 287.03 0 278.53 0 278.53-15.15Q278.53-17.95 277.08-19.5 275.63-21.05 273.18-21.05L273.18-21.05Q270.73-21.05 269.28-19.5 267.83-17.95 267.83-15.15L267.83-15.15 267.83 0 259.28 0 259.28-27.9 267.83-27.9 267.83-24.2Q269.13-26.05 271.33-27.13 273.53-28.2 276.28-28.2L276.28-28.2ZM291.27-14Q291.27-18.3 292.9-21.55 294.52-24.8 297.32-26.55 300.13-28.3 303.57-28.3L303.57-28.3Q306.32-28.3 308.6-27.15 310.88-26 312.18-24.05L312.18-24.05 312.18-37 320.73-37 320.73 0 312.18 0 312.18-4Q310.98-2 308.75-0.8 306.52 0.4 303.57 0.4L303.57 0.4Q300.13 0.4 297.32-1.38 294.52-3.15 292.9-6.43 291.27-9.7 291.27-14L291.27-14ZM312.18-13.95Q312.18-17.15 310.4-19 308.63-20.85 306.07-20.85L306.07-20.85Q303.52-20.85 301.75-19.03 299.98-17.2 299.98-14L299.98-14Q299.98-10.8 301.75-8.93 303.52-7.05 306.07-7.05L306.07-7.05Q308.63-7.05 310.4-8.9 312.18-10.75 312.18-13.95L312.18-13.95ZM325.22-14Q325.22-18.3 326.85-21.55 328.47-24.8 331.27-26.55 334.07-28.3 337.52-28.3L337.52-28.3Q340.47-28.3 342.7-27.1 344.92-25.9 346.12-23.95L346.12-23.95 346.12-27.9 354.67-27.9 354.67 0 346.12 0 346.12-3.95Q344.87-2 342.65-0.8 340.42 0.4 337.47 0.4L337.47 0.4Q334.07 0.4 331.27-1.38 328.47-3.15 326.85-6.43 325.22-9.7 325.22-14L325.22-14ZM346.12-13.95Q346.12-17.15 344.35-19 342.57-20.85 340.02-20.85L340.02-20.85Q337.47-20.85 335.7-19.03 333.92-17.2 333.92-14L333.92-14Q333.92-10.8 335.7-8.93 337.47-7.05 340.02-7.05L340.02-7.05Q342.57-7.05 344.35-8.9 346.12-10.75 346.12-13.95L346.12-13.95Z" opacity="1" transform="matrix(1,0,0,1,0,0)" fill="#030303" class="undefined-text-0" data-fill-palette-color="primary" id="text-0"></path></svg></g></svg></g></svg></g></svg></g><g><svg viewBox="0 0 109.69162686305054 109.69162686305054" height="109.69162686305054" width="109.69162686305054"><g><svg xmlns="http://www.w3.org/2000/svg" xmlns:xlink="http://www.w3.org/1999/xlink" version="1.1" x="0" y="0" viewBox="4 4 24 24" enable-background="new 0 0 32 32" xml:space="preserve" height="109.69162686305054" width="109.69162686305054" class="icon-icon-0" data-fill-palette-color="accent" id="icon-0"><g fill="#045299" data-fill-palette-color="accent"><g fill="#045299" data-fill-palette-color="accent"><path d="M19.5 12.5h-7v7h7V12.5zM18.5 18.5h-5v-5h5V18.5z" fill="#045299" data-fill-palette-color="accent"></path><path d="M28 13.5v-1h-3.5v-5h-5V4h-1v3.5h-2V4h-1v3.5h-2V4h-1v3.5h-5v5H4v1h3.5v2H4v1h3.5v2H4v1h3.5v5h5V28h1v-3.5h2V28h1v-3.5h2V28h1v-3.5h5v-5H28v-1h-3.5v-2H28v-1h-3.5v-2H28zM23.5 23.5h-15v-15h15V23.5z" fill="#045299" data-fill-palette-color="accent"></path></g></g></svg></g></svg></g></svg>